  0
SECTION
  2
HEADER
  9
$ACADVER
  1
AC1032
  9
$ACADMAINTVER
 90
       55
  9
$DWGCODEPAGE
  3
ANSI_936
  9
$LASTSAVEDBY
  1
Administrator
  9
$REQUIREDVERSIONS
160
                 0
  9
$INSBASE
 10
0.0
 20
0.0
 30
0.0
  9
$EXTMIN
 10
0.179487
 20
-20.544872
 30
0.0
  9
$EXTMAX
 10
44.826923
 20
3.589744
 30
0.0
  9
$LIMMIN
 10
0.0
 20
0.0
  9
$LIMMAX
 10
420.0
 20
297.0
  9
$ORTHOMODE
 70
     0
  9
$REGENMODE
 70
     1
  9
$FILLMODE
 70
     1
  9
$QTEXTMODE
 70
     0
  9
$MIRRTEXT
 70
     1
  9
$LTSCALE
 40
1.0
  9
$ATTMODE
 70
     1
  9
$TEXTSIZE
 40
3.5
  9
$TRACEWID
 40
1.0
  9
$TEXTSTYLE
  7
Standard
  9
$CLAYER
  8
0
  9
$CELTYPE
  6
ByLayer
  9
$CECOLOR
 62
   256
  9
$CELTSCALE
 40
1.0
  9
$DISPSILH
 70
     0
  9
$DIMSCALE
 40
1.0
  9
$DIMASZ
 40
3.556
  9
$DIMEXO
 40
1.0
  9
$DIMDLI
 40
3.75
  9
$DIMRND
 40
0.0
  9
$DIMDLE
 40
0.0
  9
$DIMEXE
 40
1.0
  9
$DIMTP
 40
0.0
  9
$DIMTM
 40
0.0
  9
$DIMTXT
 40
3.5
  9
$DIMCEN
 40
2.5
  9
$DIMTSZ
 40
0.0
  9
$DIMTOL
 70
     0
  9
$DIMLIM
 70
     0
  9
$DIMTIH
 70
     1
  9
$DIMTOH
 70
     1
  9
$DIMSE1
 70
     0
  9
$DIMSE2
 70
     0
  9
$DIMTAD
 70
     1
  9
$DIMZIN
 70
     1
  9
$DIMBLK
  1

  9
$DIMASO
 70
     1
  9
$DIMSHO
 70
     1
  9
$DIMPOST
  1

  9
$DIMAPOST
  1

  9
$DIMALT
 70
     0
  9
$DIMALTD
 70
     3
  9
$DIMALTF
 40
0.03937
  9
$DIMLFAC
 40
1.0
  9
$DIMTOFL
 70
     1
  9
$DIMTVP
 40
0.0
  9
$DIMTIX
 70
     0
  9
$DIMSOXD
 70
     0
  9
$DIMSAH
 70
     0
  9
$DIMBLK1
  1

  9
$DIMBLK2
  1

  9
$DIMSTYLE
  2
ISO-25
  9
$DIMCLRD
 70
     0
  9
$DIMCLRE
 70
     0
  9
$DIMCLRT
 70
     0
  9
$DIMTFAC
 40
1.0
  9
$DIMGAP
 40
1.524
  9
$DIMJUST
 70
     0
  9
$DIMSD1
 70
     0
  9
$DIMSD2
 70
     0
  9
$DIMTOLJ
 70
     0
  9
$DIMTZIN
 70
     1
  9
$DIMALTZ
 70
     0
  9
$DIMALTTZ
 70
     0
  9
$DIMUPT
 70
     0
  9
$DIMDEC
 70
     2
  9
$DIMTDEC
 70
     2
  9
$DIMALTU
 70
     2
  9
$DIMALTTD
 70
     3
  9
$DIMTXSTY
  7
Standard
  9
$DIMAUNIT
 70
     0
  9
$DIMADEC
 70
     2
  9
$DIMALTRND
 40
0.0
  9
$DIMAZIN
 70
     0
  9
$DIMDSEP
 70
    44
  9
$DIMATFIT
 70
     3
  9
$DIMFRAC
 70
     0
  9
$DIMLDRBLK
  1

  9
$DIMLUNIT
 70
     2
  9
$DIMLWD
 70
    -2
  9
$DIMLWE
 70
    -2
  9
$DIMTMOVE
 70
     0
  9
$DIMFXL
 40
1.0
  9
$DIMFXLON
 70
     0
  9
$DIMJOGANG
 40
0.785398
  9
$DIMTFILL
 70
     0
  9
$DIMTFILLCLR
 70
     0
  9
$DIMARCSYM
 70
     0
  9
$DIMLTYPE
  6

  9
$DIMLTEX1
  6

  9
$DIMLTEX2
  6

  9
$DIMTXTDIRECTION
 70
     0
  9
$LUNITS
 70
     2
  9
$LUPREC
 70
     2
  9
$SKETCHINC
 40
1.0
  9
$FILLETRAD
 40
10.0
  9
$AUNITS
 70
     0
  9
$AUPREC
 70
     2
  9
$MENU
  1
.
  9
$ELEVATION
 40
0.0
  9
$PELEVATION
 40
0.0
  9
$THICKNESS
 40
0.0
  9
$LIMCHECK
 70
     0
  9
$CHAMFERA
 40
0.0
  9
$CHAMFERB
 40
0.0
  9
$CHAMFERC
 40
0.0
  9
$CHAMFERD
 40
0.0
  9
$SKPOLY
 70
     0
  9
$TDCREATE
 40
2459923.859039583
  9
$TDUCREATE
 40
2459923.52570625
  9
$TDUPDATE
 40
2459923.861166771
  9
$TDUUPDATE
 40
2459923.527833438
  9
$TDINDWG
 40
0.0000000116
  9
$TDUSRTIMER
 40
0.0000000116
  9
$USRTIMER
 70
     1
  9
$ANGBASE
 50
0.0
  9
$ANGDIR
 70
     0
  9
$PDMODE
 70
     0
  9
$PDSIZE
 40
-1.0
  9
$PLINEWID
 40
0.0
  9
$SPLFRAME
 70
     0
  9
$SPLINETYPE
 70
     6
  9
$SPLINESEGS
 70
     8
  9
$HANDSEED
  5
D4
  9
$SURFTAB1
 70
     6
  9
$SURFTAB2
 70
     6
  9
$SURFTYPE
 70
     6
  9
$SURFU
 70
     6
  9
$SURFV
 70
     6
  9
$UCSBASE
  2

  9
$UCSNAME
  2

  9
$UCSORG
 10
0.0
 20
0.0
 30
0.0
  9
$UCSXDIR
 10
1.0
 20
0.0
 30
0.0
  9
$UCSYDIR
 10
0.0
 20
1.0
 30
0.0
  9
$UCSORTHOREF
  2

  9
$UCSORTHOVIEW
 70
     0
  9
$UCSORGTOP
 10
0.0
 20
0.0
 30
0.0
  9
$UCSORGBOTTOM
 10
0.0
 20
0.0
 30
0.0
  9
$UCSORGLEFT
 10
0.0
 20
0.0
 30
0.0
  9
$UCSORGRIGHT
 10
0.0
 20
0.0
 30
0.0
  9
$UCSORGFRONT
 10
0.0
 20
0.0
 30
0.0
  9
$UCSORGBACK
 10
0.0
 20
0.0
 30
0.0
  9
$PUCSBASE
  2

  9
$PUCSNAME
  2

  9
$PUCSORG
 10
0.0
 20
0.0
 30
0.0
  9
$PUCSXDIR
 10
1.0
 20
0.0
 30
0.0
  9
$PUCSYDIR
 10
0.0
 20
1.0
 30
0.0
  9
$PUCSORTHOREF
  2

  9
$PUCSORTHOVIEW
 70
     0
  9
$PUCSORGTOP
 10
0.0
 20
0.0
 30
0.0
  9
$PUCSORGBOTTOM
 10
0.0
 20
0.0
 30
0.0
  9
$PUCSORGLEFT
 10
0.0
 20
0.0
 30
0.0
  9
$PUCSORGRIGHT
 10
0.0
 20
0.0
 30
0.0
  9
$PUCSORGFRONT
 10
0.0
 20
0.0
 30
0.0
  9
$PUCSORGBACK
 10
0.0
 20
0.0
 30
0.0
  9
$USERI1
 70
     0
  9
$USERI2
 70
     0
  9
$USERI3
 70
     0
  9
$USERI4
 70
     0
  9
$USERI5
 70
     0
  9
$USERR1
 40
1.0
  9
$USERR2
 40
0.0
  9
$USERR3
 40
0.0
  9
$USERR4
 40
0.0
  9
$USERR5
 40
0.0
  9
$WORLDVIEW
 70
     1
  9
$SHADEDGE
 70
     3
  9
$SHADEDIF
 70
    70
  9
$TILEMODE
 70
     1
  9
$MAXACTVP
 70
    64
  9
$PINSBASE
 10
0.0
 20
0.0
 30
0.0
  9
$PLIMCHECK
 70
     0
  9
$PEXTMIN
 10
1.000000E+20
 20
1.000000E+20
 30
1.000000E+20
  9
$PEXTMAX
 10
-1.000000E+20
 20
-1.000000E+20
 30
-1.000000E+20
  9
$PLIMMIN
 10
0.0
 20
0.0
  9
$PLIMMAX
 10
420.0
 20
297.0
  9
$UNITMODE
 70
     0
  9
$VISRETAIN
 70
     1
  9
$PLINEGEN
 70
     0
  9
$PSLTSCALE
 70
     1
  9
$TREEDEPTH
 70
  3020
  9
$CMLSTYLE
  2
Standard
  9
$CMLJUST
 70
     0
  9
$CMLSCALE
 40
20.0
  9
$PROXYGRAPHICS
 70
     1
  9
$MEASUREMENT
 70
     1
  9
$CELWEIGHT
370
    -1
  9
$ENDCAPS
280
     0
  9
$JOINSTYLE
280
     0
  9
$LWDISPLAY
290
     1
  9
$INSUNITS
 70
     4
  9
$HYPERLINKBASE
  1

  9
$STYLESHEET
  1

  9
$XEDIT
290
     1
  9
$CEPSNTYPE
380
     0
  9
$PSTYLEMODE
290
     1
  9
$FINGERPRINTGUID
  2
{2fc67847-0700-451b-b15f-274880c87029}
  9
$VERSIONGUID
  2
{FAEB1C32-E019-11D5-929B-00C0DF256EC4}
  9
$EXTNAMES
290
     1
  9
$PSVPSCALE
 40
0.0
  9
$OLESTARTUP
290
     0
  9
$SORTENTS
280
   127
  9
$INDEXCTL
280
     0
  9
$HIDETEXT
280
     1
  9
$XCLIPFRAME
280
     2
  9
$HALOGAP
280
     0
  9
$OBSCOLOR
 70
   257
  9
$OBSLTYPE
280
     0
  9
$INTERSECTIONDISPLAY
280
     0
  9
$INTERSECTIONCOLOR
 70
   257
  9
$DIMASSOC
280
     2
  9
$PROJECTNAME
  1

  9
$CAMERADISPLAY
290
     0
  9
$LENSLENGTH
 40
50.0
  9
$CAMERAHEIGHT
 40
0.0
  9
$STEPSPERSEC
 40
2.0
  9
$STEPSIZE
 40
6.0
  9
$3DDWFPREC
 40
2.0
  9
$PSOLWIDTH
 40
0.25
  9
$PSOLHEIGHT
 40
4.0
  9
$LOFTANG1
 40
1.570796
  9
$LOFTANG2
 40
1.570796
  9
$LOFTMAG1
 40
0.0
  9
$LOFTMAG2
 40
0.0
  9
$LOFTPARAM
 70
     7
  9
$LOFTNORMALS
280
     1
  9
$LATITUDE
 40
37.795
  9
$LONGITUDE
 40
-122.394
  9
$NORTHDIRECTION
 40
0.0
  9
$TIMEZONE
 70
 -8000
  9
$LIGHTGLYPHDISPLAY
280
     1
  9
$TILEMODELIGHTSYNCH
280
     1
  9
$CMATERIAL
347
C3
  9
$SOLIDHIST
280
     0
  9
$SHOWHIST
280
     1
  9
$DWFFRAME
280
     2
  9
$DGNFRAME
280
     2
  9
$REALWORLDSCALE
290
     1
  9
$INTERFERECOLOR
 62
   256
  9
$CSHADOW
280
     0
  9
$SHADOWPLANELOCATION
 40
0.0
  0
ENDSEC
  0
SECTION
  2
CLASSES
  0
CLASS
  1
ACDBDICTIONARYWDFLT
  2
AcDbDictionaryWithDefault
  3
ObjectDBX Classes
 90
        0
 91
        3
280
     0
281
     0
  0
CLASS
  1
VISUALSTYLE
  2
AcDbVisualStyle
  3
ObjectDBX Classes
 90
     4095
 91
        3
280
     0
281
     0
  0
CLASS
  1
MATERIAL
  2
AcDbMaterial
  3
ObjectDBX Classes
 90
     1153
 91
        3
280
     0
281
     0
  0
CLASS
  1
SCALE
  2
AcDbScale
  3
ObjectDBX Classes
 90
     1153
 91
        3
280
     0
281
     0
  0
CLASS
  1
TABLESTYLE
  2
AcDbTableStyle
  3
ObjectDBX Classes
 90
     4095
 91
        3
280
     0
281
     0
  0
CLASS
  1
MLEADERSTYLE
  2
AcDbMLeaderStyle
  3
ACDB_MLEADERSTYLE_CLASS
 90
     4095
 91
        3
280
     0
281
     0
  0
CLASS
  1
SUN
  2
AcDbSun
  3
SCENEOE
 90
     1153
 91
        3
280
     0
281
     0
  0
CLASS
  1
ACDBPLACEHOLDER
  2
AcDbPlaceHolder
  3
ObjectDBX Classes
 90
        0
 91
        1
280
     0
281
     0
  0
CLASS
  1
LAYOUT
  2
AcDbLayout
  3
ObjectDBX Classes
 90
        0
 91
        1
280
     0
281
     0
  0
CLASS
  1
DICTIONARYVAR
  2
AcDbDictionaryVar
  3
ObjectDBX Classes
 90
        0
 91
        3
280
     0
281
     0
  0
CLASS
  1
CELLSTYLEMAP
  2
AcDbCellStyleMap
  3
ObjectDBX Classes
 90
     1152
 91
        3
280
     0
281
     0
  0
ENDSEC
  0
SECTION
  2
TABLES
  0
TABLE
  2
VPORT
  5
8
330
0
100
AcDbSymbolTable
 70
     1
  0
VPORT
  5
29
330
8
100
AcDbSymbolTableRecord
100
AcDbViewportTableRecord
  2
*Active
 70
     0
 10
0.0
 20
0.0
 11
1.0
 21
1.0
 12
22.503205
 22
-8.477564
 13
0.0
 23
0.0
 14
10.0
 24
10.0
 15
10.0
 25
10.0
 16
0.0
 26
0.0
 36
1.0
 17
0.0
 27
0.0
 37
0.0
 40
24.617308
 41
1.849934
 42
50.0
 43
0.0
 44
0.0
 50
0.0
 51
0.0
 71
     0
 72
   100
 73
     1
 74
     3
 75
     0
 76
     0
 77
     0
 78
     0
281
     0
 65
     1
110
0.0
120
0.0
130
0.0
111
1.0
121
0.0
131
0.0
112
0.0
122
1.0
132
0.0
 79
     0
146
0.0
348
AE
 60
     3
 61
     5
292
     1
282
     1
141
0.0
142
0.0
 63
   256
  0
ENDTAB
  0
TABLE
  2
LTYPE
  5
5
330
0
100
AcDbSymbolTable
 70
     6
  0
LTYPE
  5
14
330
5
100
AcDbSymbolTableRecord
100
AcDbLinetypeTableRecord
  2
ByBlock
 70
     0
  3

 72
    65
 73
     0
 40
0.0
  0
LTYPE
  5
15
330
5
100
AcDbSymbolTableRecord
100
AcDbLinetypeTableRecord
  2
ByLayer
 70
     0
  3

 72
    65
 73
     0
 40
0.0
  0
LTYPE
  5
16
330
5
100
AcDbSymbolTableRecord
100
AcDbLinetypeTableRecord
  2
Continuous
 70
     0
  3
Solid line
 72
    65
 73
     0
 40
0.0
  0
LTYPE
  5
6E
330
5
100
AcDbSymbolTableRecord
100
AcDbLinetypeTableRecord
  2
HIDDEN
 70
     0
  3
Hidden __ __ __ __ __ __ __ __ __ __ __ __ __ __
 72
    65
 73
     2
 40
1.905
 49
1.27
 74
     0
 49
-0.635
 74
     0
  0
LTYPE
  5
6F
330
5
100
AcDbSymbolTableRecord
100
AcDbLinetypeTableRecord
  2
PHANTOM
 70
     0
  3
Phantom ______  __  __  ______  __  __  ______
 72
    65
 73
     6
 40
12.7
 49
6.35
 74
     0
 49
-1.27
 74
     0
 49
1.27
 74
     0
 49
-1.27
 74
     0
 49
1.27
 74
     0
 49
-1.27
 74
     0
  0
LTYPE
  5
70
330
5
100
AcDbSymbolTableRecord
100
AcDbLinetypeTableRecord
  2
CENTER
 70
     0
  3
Center ____ _ ____ _ ____ _ ____ _ ____ _ ____
 72
    65
 73
     4
 40
10.16
 49
6.35
 74
     0
 49
-1.27
 74
     0
 49
1.27
 74
     0
 49
-1.27
 74
     0
  0
LTYPE
  5
71
330
5
100
AcDbSymbolTableRecord
100
AcDbLinetypeTableRecord
  2
CENTERX2
 70
     0
  3
Center (2x) ________  __  ________  __  _____
 72
    65
 73
     4
 40
20.32
 49
12.7
 74
     0
 49
-2.54
 74
     0
 49
2.54
 74
     0
 49
-2.54
 74
     0
  0
LTYPE
  5
72
330
5
100
AcDbSymbolTableRecord
100
AcDbLinetypeTableRecord
  2
DOT2
 70
     0
  3
Dot (.5x) ........................................
 72
    65
 73
     2
 40
0.635
 49
0.0
 74
     0
 49
-0.635
 74
     0
  0
ENDTAB
  0
TABLE
  2
LAYER
  5
2
330
0
100
AcDbSymbolTable
 70
     1
  0
LAYER
  5
10
330
2
100
AcDbSymbolTableRecord
100
AcDbLayerTableRecord
  2
0
 70
     0
 62
     7
  6
Continuous
370
    -3
390
F
347
C5
348
0
  0
ENDTAB
  0
TABLE
  2
STYLE
  5
3
330
0
100
AcDbSymbolTable
 70
     1
  0
STYLE
  5
11
330
3
100
AcDbSymbolTableRecord
100
AcDbTextStyleTableRecord
  2
Standard
 70
     0
 40
0.0
 41
1.0
 50
0.0
 71
     0
 42
3.5
  3
txt
  4

  0
ENDTAB
  0
TABLE
  2
VIEW
  5
6
330
0
100
AcDbSymbolTable
 70
     0
  0
ENDTAB
  0
TABLE
  2
UCS
  5
7
330
0
100
AcDbSymbolTable
 70
     0
  0
ENDTAB
  0
TABLE
  2
APPID
  5
9
330
0
100
AcDbSymbolTable
 70
     1
  0
APPID
  5
12
330
9
100
AcDbSymbolTableRecord
100
AcDbRegAppTableRecord
  2
ACAD
 70
     0
  0
ENDTAB
  0
TABLE
  2
DIMSTYLE
  5
A
330
0
100
AcDbSymbolTable
 70
     1
100
AcDbDimStyleTable
  0
DIMSTYLE
105
27
330
A
100
AcDbSymbolTableRecord
100
AcDbDimStyleTableRecord
  2
ISO-25
 70
     0
 41
2.5
 42
0.625
 43
3.75
 44
1.25
 73
     0
 74
     0
 77
     1
 78
     8
140
2.5
141
2.5
143
0.03937
147
0.625
171
     3
172
     1
178
     0
271
     2
272
     2
274
     3
278
    44
283
     0
284
     8
340
11
  0
ENDTAB
  0
TABLE
  2
BLOCK_RECORD
  5
1
330
0
100
AcDbSymbolTable
 70
     1
  0
BLOCK_RECORD
  5
1F
330
1
100
AcDbSymbolTableRecord
100
AcDbBlockTableRecord
  2
*Model_Space
340
22
 70
     0
280
     1
281
     0
  0
BLOCK_RECORD
  5
1B
330
1
100
AcDbSymbolTableRecord
100
AcDbBlockTableRecord
  2
*Paper_Space
340
1E
 70
     0
280
     1
281
     0
  0
BLOCK_RECORD
  5
23
330
1
100
AcDbSymbolTableRecord
100
AcDbBlockTableRecord
  2
*Paper_Space0
340
26
 70
     0
280
     1
281
     0
  0
ENDTAB
  0
ENDSEC
  0
SECTION
  2
BLOCKS
  0
BLOCK
  5
20
330
1F
100
AcDbEntity
  8
0
100
AcDbBlockBegin
  2
*Model_Space
 70
     0
 10
0.0
 20
0.0
 30
0.0
  3
*Model_Space
  1

  0
ENDBLK
  5
21
330
1F
100
AcDbEntity
  8
0
100
AcDbBlockEnd
  0
BLOCK
  5
1C
330
1B
100
AcDbEntity
 67
     1
  8
0
100
AcDbBlockBegin
  2
*Paper_Space
 70
     0
 10
0.0
 20
0.0
 30
0.0
  3
*Paper_Space
  1

  0
ENDBLK
  5
1D
330
1B
100
AcDbEntity
 67
     1
  8
0
100
AcDbBlockEnd
  0
BLOCK
  5
24
330
23
100
AcDbEntity
  8
0
100
AcDbBlockBegin
  2
*Paper_Space0
 70
     0
 10
0.0
 20
0.0
 30
0.0
  3
*Paper_Space0
  1

  0
ENDBLK
  5
25
330
23
100
AcDbEntity
  8
0
100
AcDbBlockEnd
  0
ENDSEC
  0
SECTION
  2
ENTITIES
  0
LWPOLYLINE
  5
73
330
1F
100
AcDbEntity
  8
0
  6
Continuous
 62
     7
100
AcDbPolyline
 90
       24
 70
   128
 43
0.0
 10
0.448718
 20
3.5
 10
0.762821
 20
3.5
 10
0.762821
 20
3.5
 10
0.762821
 20
2.064103
 10
0.762821
 20
2.064103
 10
2.557692
 20
2.064103
 10
2.557692
 20
2.064103
 10
2.557692
 20
3.5
 10
2.557692
 20
3.5
 10
2.871795
 20
3.5
 10
2.871795
 20
3.5
 10
2.871795
 20
0.0
 10
2.871795
 20
0.0
 10
2.557692
 20
0.0
 10
2.557692
 20
0.0
 10
2.557692
 20
1.705128
 10
2.557692
 20
1.705128
 10
0.762821
 20
1.705128
 10
0.762821
 20
1.705128
 10
0.762821
 20
0.0
 10
0.762821
 20
0.0
 10
0.448718
 20
0.0
 10
0.448718
 20
0.0
 10
0.448718
 20
3.5
  0
LWPOLYLINE
  5
74
330
1F
100
AcDbEntity
  8
0
  6
Continuous
 62
     7
100
AcDbPolyline
 90
      107
 70
   128
 43
0.0
 10
3.76923
 20
3.5
 10
4.083333
 20
3.5
 10
4.083333
 20
3.5
 10
4.083333
 20
1.402945
 10
4.083333
 20
1.402945
 10
4.083333
 20
1.313902
 10
4.084034
 20
1.233974
 10
4.085437
 20
1.16246
 10
4.086839
 20
1.10006
 10
4.088942
 20
1.046074
 10
4.091046
 20
1.001202
 10
4.09385
 20
0.964744
 10
4.097356
 20
0.9374
 10
4.097356
 20
0.9374
 10
4.114884
 20
0.839243
 10
4.140825
 20
0.748798
 10
4.175881
 20
0.667468
 10
4.21865
 20
0.59385
 10
4.272636
 20
0.527945
 10
4.339243
 20
0.466947
 10
4.419171
 20
0.41226
 10
4.511018
 20
0.36248
 10
4.609876
 20
0.321815
 10
4.708734
 20
0.292368
 10
4.808293
 20
0.27484
 10
4.907853
 20
0.269231
 10
4.907853
 20
0.269231
 10
4.993389
 20
0.274139
 10
5.077524
 20
0.28746
 10
5.159555
 20
0.310597
 10
5.240184
 20
0.342147
 10
5.316607
 20
0.382812
 10
5.386018
 20
0.429788
 10
5.449119
 20
0.484475
 10
5.505909
 20
0.545473
 10
5.555689
 20
0.613482
 10
5.599159
 20
0.689203
 10
5.634215
 20
0.770533
 10
5.662961
 20
0.859575
 10
5.662961
 20
0.859575
 10
5.671374
 20
0.896735
 10
5.678385
 20
0.943009
 10
5.684696
 20
0.998397
 10
5.689603
 20
1.061498
 10
5.69381
 20
1.133714
 10
5.696615
 20
1.215044
 10
5.698017
 20
1.304788
 10
5.698718
 20
1.402945
 10
5.698718
 20
1.402945
 10
5.698718
 20
3.5
 10
5.698718
 20
3.5
 10
6.012821
 20
3.5
 10
6.012821
 20
3.5
 10
6.012821
 20
1.386118
 10
6.012821
 20
1.386118
 10
6.011418
 20
1.271835
 10
6.007212
 20
1.163161
 10
6.0002
 20
1.059395
 10
5.990385
 20
0.961939
 10
5.977764
 20
0.870092
 10
5.963041
 20
0.783854
 10
5.944812
 20
0.702524
 10
5.923778
 20
0.627504
 10
5.899239
 20
0.556691
 10
5.868389
 20
0.487981
 10
5.832632
 20
0.421374
 10
5.791266
 20
0.357572
 10
5.74359
 20
0.295172
 10
5.691006
 20
0.236278
 10
5.632812
 20
0.178786
 10
5.56901
 20
0.124099
 10
5.501002
 20
0.074319
 10
5.429487
 20
0.030849
 10
5.353766
 20
-0.00631
 10
5.27524
 20
-0.036458
 10
5.193209
 20
-0.059595
 10
5.107672
 20
-0.076422
 10
5.017929
 20
-0.086238
 10
4.925381
 20
-0.089744
 10
4.925381
 20
-0.089744
 10
4.824419
 20
-0.086238
 10
4.727664
 20
-0.077123
 10
4.634415
 20
-0.060998
 10
4.544671
 20
-0.039263
 10
4.458433
 20
-0.010517
 10
4.376402
 20
0.023838
 10
4.297877
 20
0.065204
 10
4.222857
 20
0.112179
 10
4.152744
 20
0.164764
 10
4.088942
 20
0.221554
 10
4.030749
 20
0.282552
 10
3.978866
 20
0.347756
 10
3.933293
 20
0.416466
 10
3.893329
 20
0.490084
 10
3.859675
 20
0.567208
 10
3.831631
 20
0.648538
 10
3.831631
 20
0.648538
 10
3.816907
 20
0.704627
 10
3.804287
 20
0.771234
 10
3.79377
 20
0.848357
 10
3.784655
 20
0.935296
 10
3.778345
 20
1.032752
 10
3.773438
 20
1.140024
 10
3.769932
 20
1.257812
 10
3.769231
 20
1.386118
 10
3.769231
 20
1.386118
 10
3.769231
 20
3.5
  0
LWPOLYLINE
  5
75
330
1F
100
AcDbEntity
  8
0
  6
Continuous
 62
     7
100
AcDbPolyline
 90
       16
 70
   128
 43
0.0
 10
8.346148
 20
3.5
 10
9.961538
 20
0.0
 10
9.961538
 20
0.0
 10
9.620092
 20
0.0
 10
9.620092
 20
0.0
 10
9.102664
 20
1.121795
 10
9.102664
 20
1.121795
 10
7.516026
 20
1.121795
 10
7.516026
 20
1.121795
 10
6.983874
 20
0.0
 10
6.983874
 20
0.0
 10
6.641026
 20
0.0
 10
6.641026
 20
0.0
 10
8.301282
 20
3.5
 10
8.301282
 20
3.5
 10
8.346154
 20
3.5
  0
LWPOLYLINE
  5
76
330
1F
100
AcDbEntity
  8
0
  6
Continuous
 62
     7
100
AcDbPolyline
 90
        6
 70
   128
 43
0.0
 10
8.320205
 20
2.817808
 10
7.686398
 20
1.480769
 10
7.686398
 20
1.480769
 10
8.9372
 20
1.480769
 10
8.9372
 20
1.480769
 10
8.320212
 20
2.817808
  0
LWPOLYLINE
  5
77
330
1F
100
AcDbEntity
  8
0
  6
Continuous
 62
     7
100
AcDbPolyline
 90
       20
 70
   128
 43
0.0
 10
10.589741
 20
0.0
 10
10.589744
 20
3.5
 10
10.589744
 20
3.5
 10
10.655649
 20
3.5
 10
10.655649
 20
3.5
 10
12.967949
 20
0.745292
 10
12.967949
 20
0.745292
 10
12.967949
 20
3.5
 10
12.967949
 20
3.5
 10
13.282051
 20
3.5
 10
13.282051
 20
3.5
 10
13.282051
 20
0.0
 10
13.282051
 20
0.0
 10
13.210537
 20
0.0
 10
13.210537
 20
0.0
 10
10.903846
 20
2.748397
 10
10.903846
 20
2.748397
 10
10.903846
 20
0.0
 10
10.903846
 20
0.0
 10
10.589744
 20
0.0
  0
LWPOLYLINE
  5
78
330
1F
100
AcDbEntity
  8
0
  6
Continuous
 62
     7
100
AcDbPolyline
 90
      169
 70
   128
 43
0.0
 10
17.455116
 20
2.902644
 10
17.185897
 20
2.647436
 10
17.185897
 20
2.647436
 10
17.03726
 20
2.782051
 10
16.880909
 20
2.89984
 10
16.718249
 20
2.999399
 10
16.547877
 20
3.082131
 10
16.375401
 20
3.147336
 10
16.205729
 20
3.19361
 10
16.03746
 20
3.221655
 10
15.871995
 20
3.230769
 10
15.871995
 20
3.230769
 10
15.770333
 20
3.227965
 10
15.669371
 20
3.218149
 10
15.570513
 20
3.202724
 10
15.472356
 20
3.18099
 10
15.3749
 20
3.152945
 10
15.279547
 20
3.11859
 10
15.184896
 20
3.077925
 10
15.091647
 20
3.03095
 10
15.001903
 20
2.979067
 10
14.917067
 20
2.922276
 10
14.837139
 20
2.861278
 10
14.762821
 20
2.795373
 10
14.694111
 20
2.72526
 10
14.629607
 20
2.650942
 10
14.570713
 20
2.571715
 10
14.517428
 20
2.488281
 10
14.469752
 20
2.402043
 10
14.428385
 20
2.315104
 10
14.393329
 20
2.226062
 10
14.365284
 20
2.136318
 10
14.342849
 20
2.045873
 10
14.326723
 20
1.953325
 10
14.317608
 20
1.860076
 10
14.314103
 20
1.765425
 10
14.314103
 20
1.765425
 10
14.317608
 20
1.66867
 10
14.327424
 20
1.572616
 10
14.344952
 20
1.477965
 10
14.36879
 20
1.384716
 10
14.398938
 20
1.292167
 10
14.436098
 20
1.201022
 10
14.480268
 20
1.111278
 10
14.53145
 20
1.022937
 10
14.588241
 20
0.9374
 10
14.650641
 20
0.856771
 10
14.717949
 20
0.780349
 10
14.790164
 20
0.709535
 10
14.867989
 20
0.642228
 10
14.950721
 20
0.580529
 10
15.039062
 20
0.523037
 10
15.132312
 20
0.470453
 10
15.229067
 20
0.423478
 10
15.328626
 20
0.382111
 10
15.430288
 20
0.347756
 10
15.534054
 20
0.319712
 10
15.640625
 20
0.297276
 10
15.749299
 20
0.281851
 10
15.860076
 20
0.272035
 10
15.972957
 20
0.269231
 10
15.972957
 20
0.269231
 10
16.108974
 20
0.274139
 10
16.239383
 20
0.288161
 10
16.364884
 20
0.311298
 10
16.484776
 20
0.344251
 10
16.599058
 20
0.386318
 10
16.708433
 20
0.4375
 10
16.8122
 20
0.498498
 10
16.911058
 20
0.56861
 10
17.002204
 20
0.646434
 10
17.083534
 20
0.729868
 10
17.155048
 20
0.81891
 10
17.216747
 20
0.912861
 10
17.26863
 20
1.013121
 10
17.310697
 20
1.118289
 10
17.342949
 20
1.229768
 10
17.365385
 20
1.346154
 10
17.365385
 20
1.346154
 10
16.198718
 20
1.346154
 10
16.198718
 20
1.346154
 10
16.198718
 20
1.705128
 10
16.198718
 20
1.705128
 10
17.679487
 20
1.705128
 10
17.679487
 20
1.705128
 10
17.671074
 20
1.504607
 10
17.647937
 20
1.313902
 10
17.610076
 20
1.134415
 10
17.558193
 20
0.965445
 10
17.491587
 20
0.806991
 10
17.410256
 20
0.659054
 10
17.314203
 20
0.522336
 10
17.204127
 20
0.395433
 10
17.08143
 20
0.281851
 10
16.948918
 20
0.182993
 10
16.806591
 20
0.099559
 10
16.654447
 20
0.03155
 10
16.491787
 20
-0.021735
 10
16.320012
 20
-0.059595
 10
16.13772
 20
-0.082031
 10
15.945613
 20
-0.089744
 10
15.945613
 20
-0.089744
 10
15.827123
 20
-0.086939
 10
15.712139
 20
-0.079227
 10
15.600661
 20
-0.066607
 10
15.491987
 20
-0.048377
 10
15.386118
 20
-0.02524
 10
15.283754
 20
0.003506
 10
15.184195
 20
0.037159
 10
15.08744
 20
0.075721
 10
14.994191
 20
0.119892
 10
14.904447
 20
0.16897
 10
14.817508
 20
0.222957
 10
14.733373
 20
0.282552
 10
14.652744
 20
0.347055
 10
14.57492
 20
0.417167
 10
14.500601
 20
0.492188
 10
14.429087
 20
0.572115
 10
14.429087
 20
0.572115
 10
14.328826
 20
0.701823
 10
14.241186
 20
0.837139
 10
14.167568
 20
0.976663
 10
14.107272
 20
1.121795
 10
14.060296
 20
1.271835
 10
14.026643
 20
1.426783
 10
14.007011
 20
1.586639
 10
14.0
 20
1.751402
 10
14.0
 20
1.751402
 10
14.003506
 20
1.8748
 10
14.015425
 20
1.996094
 10
14.034355
 20
2.115284
 10
14.060998
 20
2.231671
 10
14.095353
 20
2.346655
 10
14.13742
 20
2.458834
 10
14.1872
 20
2.569611
 10
14.244692
 20
2.677584
 10
14.309195
 20
2.782051
 10
14.378606
 20
2.880208
 10
14.454327
 20
2.972756
 10
14.535657
 20
3.059696
 10
14.622596
 20
3.140325
 10
14.715144
 20
3.215345
 10
14.813301
 20
3.284756
 10
14.917067
 20
3.347857
 10
15.025741
 20
3.404647
 10
15.13722
 20
3.453726
 10
15.252905
 20
3.495092
 10
15.372095
 20
3.529447
 10
15.494091
 20
3.555389
 10
15.620292
 20
3.574319
 10
15.749299
 20
3.586238
 10
15.882512
 20
3.589744
 10
15.882512
 20
3.589744
 10
15.991186
 20
3.586939
 10
16.097756
 20
3.579227
 10
16.202925
 20
3.566607
 10
16.306691
 20
3.549079
 10
16.408353
 20
3.525942
 10
16.508614
 20
3.497897
 10
16.607472
 20
3.464944
 10
16.704227
 20
3.426382
 10
16.80028
 20
3.382212
 10
16.895633
 20
3.332432
 10
16.990284
 20
3.276342
 10
17.084235
 20
3.213942
 10
17.178185
 20
3.145232
 10
17.270733
 20
3.070212
 10
17.363281
 20
2.989583
 10
17.455128
 20
2.902644
  0
LWPOLYLINE
  5
79
330
1F
100
AcDbEntity
  8
0
  6
Continuous
 62
     7
100
AcDbPolyline
 90
       61
 70
   128
 43
0.0
 10
19.519225
 20
3.5
 10
19.833333
 20
3.5
 10
19.833333
 20
3.5
 10
19.833333
 20
1.136518
 10
19.833333
 20
1.136518
 10
19.831931
 20
1.005409
 10
19.828425
 20
0.884816
 10
19.822115
 20
0.774038
 10
19.813001
 20
0.674479
 10
19.801082
 20
0.584736
 10
19.787059
 20
0.505509
 10
19.770232
 20
0.436098
 10
19.751302
 20
0.377905
 10
19.703626
 20
0.276943
 10
19.642628
 20
0.186498
 10
19.567608
 20
0.106571
 10
19.479267
 20
0.037159
 10
19.379006
 20
-0.018229
 10
19.268229
 20
-0.058193
 10
19.147636
 20
-0.082031
 10
19.017228
 20
-0.089744
 10
19.017228
 20
-0.089744
 10
18.915565
 20
-0.084135
 10
18.813902
 20
-0.067308
 10
18.713642
 20
-0.039964
 10
18.613381
 20
-0.000701
 10
18.511018
 20
0.052584
 10
18.403746
 20
0.122696
 10
18.290865
 20
0.210337
 10
18.173077
 20
0.314103
 10
18.173077
 20
0.314103
 10
18.358173
 20
0.583333
 10
18.358173
 20
0.583333
 10
18.487179
 20
0.496394
 10
18.604968
 20
0.424179
 10
18.710837
 20
0.364583
 10
18.805489
 20
0.319712
 10
18.805489
 20
0.319712
 10
18.863682
 20
0.297977
 10
18.921174
 20
0.281851
 10
18.978666
 20
0.272736
 10
19.034756
 20
0.269231
 10
19.034756
 20
0.269231
 10
19.106971
 20
0.27484
 10
19.175681
 20
0.291667
 10
19.240885
 20
0.31901
 10
19.302584
 20
0.358273
 10
19.358674
 20
0.406651
 10
19.404948
 20
0.46274
 10
19.442808
 20
0.525841
 10
19.470853
 20
0.596655
 10
19.482071
 20
0.638021
 10
19.491887
 20
0.688502
 10
19.5003
 20
0.747396
 10
19.507312
 20
0.814704
 10
19.51222
 20
0.891126
 10
19.516426
 20
0.975962
 10
19.51853
 20
1.069211
 10
19.519231
 20
1.171575
 10
19.519231
 20
1.171575
 10
19.519231
 20
3.5
  0
LWPOLYLINE
  5
7A
330
1F
100
AcDbEntity
  8
0
  6
Continuous
 62
     7
100
AcDbPolyline
 90
      107
 70
   128
 43
0.0
 10
20.730764
 20
3.5
 10
21.044872
 20
3.5
 10
21.044872
 20
3.5
 10
21.044872
 20
1.402945
 10
21.044872
 20
1.402945
 10
21.044872
 20
1.313902
 10
21.045573
 20
1.233974
 10
21.046975
 20
1.16246
 10
21.048377
 20
1.10006
 10
21.050481
 20
1.046074
 10
21.052584
 20
1.001202
 10
21.055389
 20
0.964744
 10
21.058894
 20
0.9374
 10
21.058894
 20
0.9374
 10
21.076422
 20
0.839243
 10
21.102364
 20
0.748798
 10
21.13742
 20
0.667468
 10
21.180188
 20
0.59385
 10
21.234175
 20
0.527945
 10
21.300781
 20
0.466947
 10
21.380709
 20
0.41226
 10
21.472556
 20
0.36248
 10
21.571414
 20
0.321815
 10
21.670272
 20
0.292368
 10
21.769832
 20
0.27484
 10
21.869391
 20
0.269231
 10
21.869391
 20
0.269231
 10
21.954928
 20
0.274139
 10
22.039062
 20
0.28746
 10
22.121094
 20
0.310597
 10
22.201723
 20
0.342147
 10
22.278145
 20
0.382812
 10
22.347556
 20
0.429788
 10
22.410657
 20
0.484475
 10
22.467448
 20
0.545473
 10
22.517228
 20
0.613482
 10
22.560697
 20
0.689203
 10
22.595753
 20
0.770533
 10
22.624499
 20
0.859575
 10
22.624499
 20
0.859575
 10
22.632913
 20
0.896735
 10
22.639924
 20
0.943009
 10
22.646234
 20
0.998397
 10
22.651142
 20
1.061498
 10
22.655349
 20
1.133714
 10
22.658153
 20
1.215044
 10
22.659555
 20
1.304788
 10
22.660256
 20
1.402945
 10
22.660256
 20
1.402945
 10
22.660256
 20
3.5
 10
22.660256
 20
3.5
 10
22.974359
 20
3.5
 10
22.974359
 20
3.5
 10
22.974359
 20
1.386118
 10
22.974359
 20
1.386118
 10
22.972957
 20
1.271835
 10
22.96875
 20
1.163161
 10
22.961739
 20
1.059395
 10
22.951923
 20
0.961939
 10
22.939303
 20
0.870092
 10
22.924579
 20
0.783854
 10
22.90635
 20
0.702524
 10
22.885317
 20
0.627504
 10
22.860777
 20
0.556691
 10
22.829928
 20
0.487981
 10
22.794171
 20
0.421374
 10
22.752804
 20
0.357572
 10
22.705128
 20
0.295172
 10
22.652544
 20
0.236278
 10
22.594351
 20
0.178786
 10
22.530549
 20
0.124099
 10
22.46254
 20
0.074319
 10
22.391026
 20
0.030849
 10
22.315304
 20
-0.00631
 10
22.236779
 20
-0.036458
 10
22.154748
 20
-0.059595
 10
22.069211
 20
-0.076422
 10
21.979467
 20
-0.086238
 10
21.886919
 20
-0.089744
 10
21.886919
 20
-0.089744
 10
21.785958
 20
-0.086238
 10
21.689203
 20
-0.077123
 10
21.595954
 20
-0.060998
 10
21.50621
 20
-0.039263
 10
21.419972
 20
-0.010517
 10
21.337941
 20
0.023838
 10
21.259415
 20
0.065204
 10
21.184395
 20
0.112179
 10
21.114283
 20
0.164764
 10
21.050481
 20
0.221554
 10
20.992288
 20
0.282552
 10
20.940405
 20
0.347756
 10
20.894832
 20
0.416466
 10
20.854868
 20
0.490084
 10
20.821214
 20
0.567208
 10
20.793169
 20
0.648538
 10
20.793169
 20
0.648538
 10
20.778446
 20
0.704627
 10
20.765825
 20
0.771234
 10
20.755308
 20
0.848357
 10
20.746194
 20
0.935296
 10
20.739884
 20
1.032752
 10
20.734976
 20
1.140024
 10
20.73147
 20
1.257812
 10
20.730769
 20
1.386118
 10
20.730769
 20
1.386118
 10
20.730769
 20
3.5
  0
LWPOLYLINE
  5
7B
330
1F
100
AcDbEntity
  8
0
  6
Continuous
 62
     7
100
AcDbPolyline
 90
       20
 70
   128
 43
0.0
 10
23.871794
 20
0.0
 10
23.871795
 20
3.5
 10
23.871795
 20
3.5
 10
23.9377
 20
3.5
 10
23.9377
 20
3.5
 10
26.25
 20
0.745292
 10
26.25
 20
0.745292
 10
26.25
 20
3.5
 10
26.25
 20
3.5
 10
26.564103
 20
3.5
 10
26.564103
 20
3.5
 10
26.564103
 20
0.0
 10
26.564103
 20
0.0
 10
26.492588
 20
0.0
 10
26.492588
 20
0.0
 10
24.185897
 20
2.748397
 10
24.185897
 20
2.748397
 10
24.185897
 20
0.0
 10
24.185897
 20
0.0
 10
23.871795
 20
0.0
  0
LWPOLYLINE
  5
7C
330
1F
100
AcDbEntity
  8
0
  6
Continuous
 62
     7
100
AcDbPolyline
 90
       57
 70
   128
 43
0.0
 10
0.448718
 20
-6.833333
 10
0.448718
 20
-3.333333
 10
0.448718
 20
-3.333333
 10
1.155449
 20
-3.333333
 10
1.155449
 20
-3.333333
 10
1.339844
 20
-3.335437
 10
1.511619
 20
-3.341046
 10
1.670072
 20
-3.350861
 10
1.815905
 20
-3.364884
 10
1.947716
 20
-3.382412
 10
2.066907
 20
-3.404147
 10
2.172776
 20
-3.430088
 10
2.266026
 20
-3.459535
 10
2.266026
 20
-3.459535
 10
2.386619
 20
-3.507913
 10
2.5002
 20
-3.564704
 10
2.607472
 20
-3.629908
 10
2.707732
 20
-3.702825
 10
2.800982
 20
-3.784856
 10
2.887921
 20
-3.873898
 10
2.967849
 20
-3.972055
 10
3.040765
 20
-4.077925
 10
3.106671
 20
-4.190805
 10
3.163462
 20
-4.308594
 10
3.211138
 20
-4.431991
 10
3.250401
 20
-4.560296
 10
3.28125
 20
-4.694211
 10
3.302985
 20
-4.833734
 10
3.316306
 20
-4.978165
 10
3.320513
 20
-5.127504
 10
3.320513
 20
-5.127504
 10
3.317007
 20
-5.257212
 10
3.30649
 20
-5.382712
 10
3.289663
 20
-5.504006
 10
3.265124
 20
-5.621795
 10
3.234275
 20
-5.735377
 10
3.195713
 20
-5.845453
 10
3.150841
 20
-5.951322
 10
3.098958
 20
-6.052985
 10
3.041466
 20
-6.14974
 10
2.980469
 20
-6.239483
 10
2.914563
 20
-6.323618
 10
2.845152
 20
-6.40004
 10
2.770833
 20
-6.470853
 10
2.693009
 20
-6.534655
 10
2.610276
 20
-6.592147
 10
2.524038
 20
-6.643329
 10
2.43149
 20
-6.688201
 10
2.329828
 20
-6.726763
 10
2.21905
 20
-6.759014
 10
2.09986
 20
-6.785657
 10
1.971554
 20
-6.806691
 10
1.834135
 20
-6.821414
 10
1.688301
 20
-6.830529
 10
1.533353
 20
-6.833333
 10
1.533353
 20
-6.833333
 10
0.448718
 20
-6.833333
  0
LWPOLYLINE
  5
7D
330
1F
100
AcDbEntity
  8
0
  6
Continuous
 62
     7
100
AcDbPolyline
 90
       58
 70
   128
 43
0.0
 10
0.76282
 20
-6.474359
 10
1.164563
 20
-6.474359
 10
1.164563
 20
-6.474359
 10
1.33774
 20
-6.472957
 10
1.497596
 20
-6.46875
 10
1.643429
 20
-6.461739
 10
1.77524
 20
-6.451923
 10
1.89373
 20
-6.439303
 10
1.998197
 20
-6.424579
 10
2.088642
 20
-6.40635
 10
2.165064
 20
-6.385317
 10
2.165064
 20
-6.385317
 10
2.260417
 20
-6.35026
 10
2.350861
 20
-6.309595
 10
2.435697
 20
-6.261919
 10
2.514924
 20
-6.208634
 10
2.589243
 20
-6.148337
 10
2.658654
 20
-6.081731
 10
2.722456
 20
-6.009515
 10
2.78135
 20
-5.930288
 10
2.833934
 20
-5.845453
 10
2.879507
 20
-5.75641
 10
2.91877
 20
-5.663161
 10
2.950321
 20
-5.565004
 10
2.97486
 20
-5.461939
 10
2.992388
 20
-5.354667
 10
3.002905
 20
-5.243189
 10
3.00641
 20
-5.126803
 10
3.00641
 20
-5.126803
 10
3.002905
 20
-5.004107
 10
2.990986
 20
-4.886318
 10
2.972055
 20
-4.773438
 10
2.945413
 20
-4.664764
 10
2.911058
 20
-4.560296
 10
2.86899
 20
-4.460737
 10
2.819912
 20
-4.365385
 10
2.76242
 20
-4.27494
 10
2.698618
 20
-4.190104
 10
2.628506
 20
-4.11228
 10
2.552784
 20
-4.041466
 10
2.471454
 20
-3.976963
 10
2.383814
 20
-3.920172
 10
2.289864
 20
-3.869692
 10
2.190304
 20
-3.826923
 10
2.084435
 20
-3.790465
 10
2.084435
 20
-3.790465
 10
1.996094
 20
-3.767328
 10
1.895132
 20
-3.747696
 10
1.780148
 20
-3.730869
 10
1.652544
 20
-3.716847
 10
1.511619
 20
-3.70633
 10
1.357372
 20
-3.698618
 10
1.189804
 20
-3.69371
 10
1.008914
 20
-3.692308
 10
1.008914
 20
-3.692308
 10
0.762821
 20
-3.692308
 10
0.762821
 20
-3.692308
 10
0.762821
 20
-6.474359
  0
LWPOLYLINE
  5
7E
330
1F
100
AcDbEntity
  8
0
  6
Continuous
 62
     7
100
AcDbPolyline
 90
      100
 70
   128
 43
0.0
 10
6.047875
 20
-6.025641
 10
6.326923
 20
-6.172175
 10
6.326923
 20
-6.172175
 10
6.258213
 20
-6.289263
 10
6.184595
 20
-6.394431
 10
6.10607
 20
-6.488381
 10
6.021935
 20
-6.569712
 10
5.932893
 20
-6.640525
 10
5.838942
 20
-6.702224
 10
5.738682
 20
-6.755509
 10
5.633514
 20
-6.799679
 10
5.522035
 20
-6.834034
 10
5.403546
 20
-6.858574
 10
5.278045
 20
-6.873297
 10
5.145533
 20
-6.878205
 10
5.145533
 20
-6.878205
 10
4.998297
 20
-6.871895
 10
4.859475
 20
-6.852965
 10
4.729067
 20
-6.821414
 10
4.60637
 20
-6.777244
 10
4.492788
 20
-6.720453
 10
4.386919
 20
-6.651042
 10
4.288762
 20
-6.56901
 10
4.19972
 20
-6.474359
 10
4.119792
 20
-6.371995
 10
4.050381
 20
-6.266126
 10
3.992188
 20
-6.156751
 10
3.944511
 20
-6.04387
 10
3.906651
 20
-5.928185
 10
3.880008
 20
-5.809696
 10
3.864583
 20
-5.686999
 10
3.858974
 20
-5.561498
 10
3.858974
 20
-5.561498
 10
3.863882
 20
-5.44371
 10
3.877204
 20
-5.328726
 10
3.900341
 20
-5.217248
 10
3.932592
 20
-5.108574
 10
3.973958
 20
-5.003405
 10
4.024439
 20
-4.901743
 10
4.084736
 20
-4.802885
 10
4.153446
 20
-4.707532
 10
4.153446
 20
-4.707532
 10
4.250901
 20
-4.596054
 10
4.35607
 20
-4.498598
 10
4.46895
 20
-4.417268
 10
4.590244
 20
-4.34996
 10
4.719251
 20
-4.298077
 10
4.85597
 20
-4.260216
 10
5.000401
 20
-4.238482
 10
5.153245
 20
-4.230769
 10
5.153245
 20
-4.230769
 10
5.310296
 20
-4.238482
 10
5.459635
 20
-4.26232
 10
5.600561
 20
-4.301583
 10
5.733073
 20
-4.35627
 10
5.857873
 20
-4.427083
 10
5.974259
 20
-4.514022
 10
6.082933
 20
-4.616386
 10
6.183193
 20
-4.734175
 10
6.183193
 20
-4.734175
 10
6.247696
 20
-4.826022
 10
6.303085
 20
-4.922776
 10
6.350761
 20
-5.025841
 10
6.389323
 20
-5.133814
 10
6.420172
 20
-5.247396
 10
6.442608
 20
-5.366587
 10
6.455929
 20
-5.491386
 10
6.461538
 20
-5.621795
 10
6.461538
 20
-5.621795
 10
4.173077
 20
-5.621795
 10
4.173077
 20
-5.621795
 10
4.179387
 20
-5.722756
 10
4.193409
 20
-5.819511
 10
4.215845
 20
-5.911358
 10
4.246695
 20
-5.998297
 10
4.284555
 20
-6.080329
 10
4.330829
 20
-6.158153
 10
4.385517
 20
-6.23107
 10
4.447917
 20
-6.29978
 10
4.516627
 20
-6.361478
 10
4.588842
 20
-6.415465
 10
4.665264
 20
-6.461038
 10
4.745893
 20
-6.498197
 10
4.830028
 20
-6.526943
 10
4.918369
 20
-6.547276
 10
5.010216
 20
-6.559896
 10
5.10627
 20
-6.564103
 10
5.10627
 20
-6.564103
 10
5.20022
 20
-6.560597
 10
5.292067
 20
-6.549379
 10
5.383213
 20
-6.530449
 10
5.472957
 20
-6.504507
 10
5.559195
 20
-6.472256
 10
5.638421
 20
-6.434395
 10
5.710637
 20
-6.392328
 10
5.776542
 20
-6.345353
 10
5.840345
 20
-6.288562
 10
5.906951
 20
-6.215645
 10
5.976362
 20
-6.128706
 10
6.047877
 20
-6.025641
  0
LWPOLYLINE
  5
7F
330
1F
100
AcDbEntity
  8
0
  6
Continuous
 62
     7
100
AcDbPolyline
 90
       33
 70
   128
 43
0.0
 10
6.147433
 20
-5.307692
 10
6.110276
 20
-5.183594
 10
6.064704
 20
-5.072817
 10
6.012119
 20
-4.975361
 10
5.951823
 20
-4.891226
 10
5.883113
 20
-4.816907
 10
5.803185
 20
-4.7503
 10
5.713442
 20
-4.691406
 10
5.613181
 20
-4.640224
 10
5.506611
 20
-4.598157
 10
5.396534
 20
-4.56871
 10
5.284355
 20
-4.550481
 10
5.169371
 20
-4.544872
 10
5.169371
 20
-4.544872
 10
5.075421
 20
-4.548377
 10
4.984275
 20
-4.559595
 10
4.896635
 20
-4.578526
 10
4.813201
 20
-4.604467
 10
4.731871
 20
-4.638822
 10
4.654748
 20
-4.679487
 10
4.58113
 20
-4.728566
 10
4.510317
 20
-4.784655
 10
4.510317
 20
-4.784655
 10
4.461238
 20
-4.830929
 10
4.415665
 20
-4.882812
 10
4.372897
 20
-4.939603
 10
4.333634
 20
-5.002003
 10
4.297175
 20
-5.070713
 10
4.263522
 20
-5.144331
 10
4.233373
 20
-5.222857
 10
4.20603
 20
-5.307692
 10
4.20603
 20
-5.307692
 10
6.147436
 20
-5.307692
  0
LWPOLYLINE
  5
80
330
1F
100
AcDbEntity
  8
0
  6
Continuous
 62
     7
100
AcDbPolyline
 90
      148
 70
   128
 43
0.0
 10
8.30128
 20
-4.594651
 10
8.088141
 20
-4.814103
 10
8.088141
 20
-4.814103
 10
8.032051
 20
-4.751002
 10
7.975962
 20
-4.696314
 10
7.919872
 20
-4.65004
 10
7.865184
 20
-4.612179
 10
7.809796
 20
-4.582732
 10
7.755108
 20
-4.561699
 10
7.700421
 20
-4.549079
 10
7.646434
 20
-4.544872
 10
7.646434
 20
-4.544872
 10
7.580529
 20
-4.551182
 10
7.519531
 20
-4.570813
 10
7.46274
 20
-4.603065
 10
7.411558
 20
-4.648638
 10
7.36879
 20
-4.702624
 10
7.338642
 20
-4.760116
 10
7.320413
 20
-4.822516
 10
7.314103
 20
-4.889123
 10
7.314103
 20
-4.889123
 10
7.319712
 20
-4.949419
 10
7.335837
 20
-5.007612
 10
7.363181
 20
-5.065104
 10
7.401042
 20
-5.121194
 10
7.401042
 20
-5.121194
 10
7.425581
 20
-5.14994
 10
7.45643
 20
-5.179387
 10
7.492889
 20
-5.210938
 10
7.535657
 20
-5.243189
 10
7.584736
 20
-5.276843
 10
7.639423
 20
-5.311198
 10
7.69972
 20
-5.347656
 10
7.766326
 20
-5.384816
 10
7.766326
 20
-5.384816
 10
7.847656
 20
-5.43109
 10
7.921975
 20
-5.476663
 10
7.989984
 20
-5.522236
 10
8.050982
 20
-5.567107
 10
8.104968
 20
-5.611979
 10
8.152644
 20
-5.65615
 10
8.193309
 20
-5.700321
 10
8.226963
 20
-5.74379
 10
8.226963
 20
-5.74379
 10
8.278846
 20
-5.834235
 10
8.316707
 20
-5.930288
 10
8.338442
 20
-6.031951
 10
8.346154
 20
-6.139223
 10
8.346154
 20
-6.139223
 10
8.342648
 20
-6.214944
 10
8.332833
 20
-6.287861
 10
8.316006
 20
-6.357973
 10
8.292869
 20
-6.424579
 10
8.262019
 20
-6.489083
 10
8.225561
 20
-6.55008
 10
8.182091
 20
-6.608273
 10
8.131611
 20
-6.663662
 10
8.076222
 20
-6.714143
 10
8.018029
 20
-6.757612
 10
7.95633
 20
-6.794071
 10
7.891126
 20
-6.824219
 10
7.822416
 20
-6.848057
 10
7.7502
 20
-6.864884
 10
7.67518
 20
-6.8747
 10
7.596655
 20
-6.878205
 10
7.596655
 20
-6.878205
 10
7.490785
 20
-6.872596
 10
7.38772
 20
-6.855068
 10
7.286759
 20
-6.826322
 10
7.187901
 20
-6.786358
 10
7.094651
 20
-6.735877
 10
7.009816
 20
-6.676282
 10
6.933393
 20
-6.608273
 10
6.865385
 20
-6.531851
 10
6.865385
 20
-6.531851
 10
7.073618
 20
-6.294872
 10
7.073618
 20
-6.294872
 10
7.133914
 20
-6.357973
 10
7.194912
 20
-6.41266
 10
7.257312
 20
-6.458934
 10
7.319712
 20
-6.496795
 10
7.383514
 20
-6.526242
 10
7.448718
 20
-6.547276
 10
7.513922
 20
-6.559896
 10
7.580529
 20
-6.564103
 10
7.580529
 20
-6.564103
 10
7.670974
 20
-6.55639
 10
7.754407
 20
-6.533253
 10
7.830829
 20
-6.495393
 10
7.90024
 20
-6.441406
 10
7.957732
 20
-6.377604
 10
7.999099
 20
-6.307492
 10
8.023638
 20
-6.233173
 10
8.032051
 20
-6.152544
 10
8.032051
 20
-6.152544
 10
8.026442
 20
-6.085938
 10
8.010317
 20
-6.022837
 10
7.983674
 20
-5.963942
 10
7.945813
 20
-5.908554
 10
7.945813
 20
-5.908554
 10
7.921274
 20
-5.881911
 10
7.889724
 20
-5.853165
 10
7.851162
 20
-5.822316
 10
7.80629
 20
-5.790064
 10
7.754407
 20
-5.75641
 10
7.695513
 20
-5.721354
 10
7.630308
 20
-5.684195
 10
7.558093
 20
-5.644932
 10
7.558093
 20
-5.644932
 10
7.480268
 20
-5.600761
 10
7.408754
 20
-5.556591
 10
7.344251
 20
-5.51242
 10
7.285357
 20
-5.46895
 10
7.233474
 20
-5.425481
 10
7.188602
 20
-5.382011
 10
7.149339
 20
-5.338542
 10
7.117087
 20
-5.295773
 10
7.117087
 20
-5.295773
 10
7.065905
 20
-5.206731
 10
7.029447
 20
-5.110677
 10
7.007011
 20
-5.009716
 10
7.0
 20
-4.901743
 10
7.0
 20
-4.901743
 10
7.002804
 20
-4.830929
 10
7.011218
 20
-4.763622
 10
7.025942
 20
-4.699119
 10
7.045573
 20
-4.63742
 10
7.071514
 20
-4.579227
 10
7.103065
 20
-4.523838
 10
7.140224
 20
-4.471254
 10
7.182993
 20
-4.422175
 10
7.230669
 20
-4.377304
 10
7.28115
 20
-4.338742
 10
7.334435
 20
-4.305789
 10
7.390525
 20
-4.278446
 10
7.45012
 20
-4.257412
 10
7.51252
 20
-4.242688
 10
7.577724
 20
-4.233574
 10
7.646434
 20
-4.230769
 10
7.646434
 20
-4.230769
 10
7.727764
 20
-4.236378
 10
7.809095
 20
-4.253205
 10
7.891126
 20
-4.281951
 10
7.973157
 20
-4.321915
 10
8.054487
 20
-4.373097
 10
8.136518
 20
-4.435497
 10
8.219251
 20
-4.509115
 10
8.301282
 20
-4.594651
  0
LWPOLYLINE
  5
81
330
1F
100
AcDbEntity
  8
0
  6
Continuous
 62
     7
100
AcDbPolyline
 90
       36
 70
   128
 43
0.0
 10
9.085134
 20
-3.198718
 10
9.143329
 20
-3.203626
 10
9.197316
 20
-3.218349
 10
9.247095
 20
-3.24359
 10
9.291967
 20
-3.277945
 10
9.329828
 20
-3.319311
 10
9.35647
 20
-3.365585
 10
9.372596
 20
-3.415365
 10
9.378205
 20
-3.469351
 10
9.378205
 20
-3.469351
 10
9.372596
 20
-3.521935
 10
9.35647
 20
-3.571014
 10
9.329828
 20
-3.616587
 10
9.291967
 20
-3.657953
 10
9.247095
 20
-3.692308
 10
9.197316
 20
-3.717548
 10
9.143329
 20
-3.732272
 10
9.085136
 20
-3.737179
 10
9.085136
 20
-3.737179
 10
9.027644
 20
-3.732272
 10
8.97506
 20
-3.717548
 10
8.92528
 20
-3.692308
 10
8.880409
 20
-3.657953
 10
8.843249
 20
-3.616587
 10
8.816607
 20
-3.571014
 10
8.800481
 20
-3.521935
 10
8.794872
 20
-3.469351
 10
8.794872
 20
-3.469351
 10
8.800481
 20
-3.415365
 10
8.816607
 20
-3.365585
 10
8.843249
 20
-3.319311
 10
8.880409
 20
-3.277945
 10
8.92528
 20
-3.24359
 10
8.97506
 20
-3.218349
 10
9.027644
 20
-3.203626
 10
9.085136
 20
-3.198718
  0
LWPOLYLINE
  5
82
330
1F
100
AcDbEntity
  8
0
  6
Continuous
 62
     7
100
AcDbPolyline
 90
        8
 70
   128
 43
0.0
 10
8.929484
 20
-4.275641
 10
9.24359
 20
-4.275641
 10
9.24359
 20
-4.275641
 10
9.24359
 20
-6.833333
 10
9.24359
 20
-6.833333
 10
8.929487
 20
-6.833333
 10
8.929487
 20
-6.833333
 10
8.929487
 20
-4.275641
  0
LWPOLYLINE
  5
83
330
1F
100
AcDbEntity
  8
0
  6
Continuous
 62
     7
100
AcDbPolyline
 90
      143
 70
   128
 43
0.0
 10
12.249999
 20
-4.275641
 10
12.564103
 20
-4.275641
 10
12.564103
 20
-4.275641
 10
12.564103
 20
-6.305389
 10
12.564103
 20
-6.305389
 10
12.5627
 20
-6.435096
 10
12.558494
 20
-6.555689
 10
12.550781
 20
-6.667167
 10
12.540966
 20
-6.769531
 10
12.527644
 20
-6.863482
 10
12.511518
 20
-6.947616
 10
12.492588
 20
-7.023337
 10
12.470853
 20
-7.089944
 10
12.470853
 20
-7.089944
 10
12.435797
 20
-7.175481
 10
12.395132
 20
-7.255409
 10
12.348858
 20
-7.330429
 10
12.296274
 20
-7.400541
 10
12.23738
 20
-7.465745
 10
12.173578
 20
-7.526042
 10
12.103466
 20
-7.58143
 10
12.027043
 20
-7.63121
 10
11.946414
 20
-7.675381
 10
11.861579
 20
-7.713942
 10
11.772536
 20
-7.746895
 10
11.679287
 20
-7.772837
 10
11.582532
 20
-7.79387
 10
11.481571
 20
-7.808594
 10
11.376402
 20
-7.817708
 10
11.267728
 20
-7.820513
 10
11.267728
 20
-7.820513
 10
11.109275
 20
-7.814904
 10
10.959235
 20
-7.796675
 10
10.816907
 20
-7.767929
 10
10.682993
 20
-7.726562
 10
10.559595
 20
-7.675381
 10
10.448117
 20
-7.616486
 10
10.349259
 20
-7.54988
 10
10.261619
 20
-7.47486
 10
10.181691
 20
-7.386518
 10
10.105268
 20
-7.280649
 10
10.031651
 20
-7.155849
 10
9.961538
 20
-7.012821
 10
9.961538
 20
-7.012821
 10
10.275641
 20
-7.012821
 10
10.275641
 20
-7.012821
 10
10.354868
 20
-7.130609
 10
10.445312
 20
-7.231571
 10
10.546274
 20
-7.317107
 10
10.657752
 20
-7.385817
 10
10.781851
 20
-7.438401
 10
10.919972
 20
-7.476262
 10
11.071414
 20
-7.498698
 10
11.23758
 20
-7.50641
 10
11.23758
 20
-7.50641
 10
11.401643
 20
-7.498698
 10
11.552384
 20
-7.476262
 10
11.689804
 20
-7.438401
 10
11.813902
 20
-7.385817
 10
11.923277
 20
-7.321314
 10
12.015825
 20
-7.249099
 10
12.090845
 20
-7.169171
 10
12.14974
 20
-7.08153
 10
12.173578
 20
-7.031751
 10
12.19391
 20
-6.97496
 10
12.210737
 20
-6.910457
 10
12.22476
 20
-6.838241
 10
12.235978
 20
-6.759014
 10
12.24369
 20
-6.672075
 10
12.248598
 20
-6.577424
 10
12.25
 20
-6.475761
 10
12.25
 20
-6.475761
 10
12.25
 20
-6.343249
 10
12.25
 20
-6.343249
 10
12.151843
 20
-6.454728
 10
12.04387
 20
-6.552885
 10
11.925381
 20
-6.637019
 10
11.796374
 20
-6.707131
 10
11.660357
 20
-6.76252
 10
11.520132
 20
-6.801783
 10
11.376402
 20
-6.825621
 10
11.227764
 20
-6.833333
 10
11.227764
 20
-6.833333
 10
11.140124
 20
-6.830529
 10
11.053886
 20
-6.822115
 10
10.96905
 20
-6.808794
 10
10.885617
 20
-6.789864
 10
10.803586
 20
-6.765325
 10
10.722957
 20
-6.735176
 10
10.643029
 20
-6.70012
 10
10.565204
 20
-6.659455
 10
10.490184
 20
-6.613882
 10
10.419371
 20
-6.564804
 10
10.352764
 20
-6.51222
 10
10.290365
 20
-6.455429
 10
10.232873
 20
-6.395132
 10
10.179587
 20
-6.33133
 10
10.130509
 20
-6.263321
 10
10.085637
 20
-6.191807
 10
10.046374
 20
-6.117488
 10
10.012019
 20
-6.041066
 10
9.982572
 20
-5.963241
 10
9.958734
 20
-5.883313
 10
9.940505
 20
-5.801983
 10
9.927183
 20
-5.71855
 10
9.919471
 20
-5.633013
 10
9.916667
 20
-5.546074
 10
9.916667
 20
-5.546074
 10
9.919471
 20
-5.459135
 10
9.927885
 20
-5.372897
 10
9.941206
 20
-5.288762
 10
9.960837
 20
-5.20603
 10
9.985377
 20
-5.1247
 10
10.015525
 20
-5.044772
 10
10.051282
 20
-4.966947
 10
10.092648
 20
-4.889824
 10
10.138922
 20
-4.815505
 10
10.189403
 20
-4.745393
 10
10.244091
 20
-4.679487
 10
10.302985
 20
-4.617087
 10
10.366086
 20
-4.558894
 10
10.433393
 20
-4.504908
 10
10.504908
 20
-4.454427
 10
10.580629
 20
-4.408153
 10
10.659155
 20
-4.366787
 10
10.738381
 20
-4.330329
 10
10.81901
 20
-4.30018
 10
10.900341
 20
-4.27494
 10
10.983073
 20
-4.25601
 10
11.067208
 20
-4.241987
 10
11.152043
 20
-4.233574
 10
11.23758
 20
-4.230769
 10
11.23758
 20
-4.230769
 10
11.378506
 20
-4.23778
 10
11.514523
 20
-4.258113
 10
11.645633
 20
-4.291767
 10
11.771835
 20
-4.339443
 10
11.894531
 20
-4.403946
 10
12.015825
 20
-4.489483
 10
12.133614
 20
-4.596054
 10
12.25
 20
-4.722957
 10
12.25
 20
-4.722957
 10
12.25
 20
-4.275641
  0
LWPOLYLINE
  5
84
330
1F
100
AcDbEntity
  8
0
  6
Continuous
 62
     7
100
AcDbPolyline
 90
       60
 70
   128
 43
0.0
 10
11.262819
 20
-4.544872
 10
11.125401
 20
-4.553285
 10
10.992889
 20
-4.578526
 10
10.865986
 20
-4.619892
 10
10.743289
 20
-4.678786
 10
10.629708
 20
-4.751703
 10
10.529447
 20
-4.837941
 10
10.441807
 20
-4.936799
 10
10.366787
 20
-5.048277
 10
10.307192
 20
-5.16887
 10
10.265124
 20
-5.29367
 10
10.239183
 20
-5.424079
 10
10.230769
 20
-5.558694
 10
10.230769
 20
-5.558694
 10
10.234976
 20
-5.660357
 10
10.248297
 20
-5.757812
 10
10.270733
 20
-5.851062
 10
10.301583
 20
-5.938702
 10
10.340845
 20
-6.022837
 10
10.389223
 20
-6.102063
 10
10.446715
 20
-6.177083
 10
10.51262
 20
-6.247196
 10
10.585537
 20
-6.310998
 10
10.664062
 20
-6.366386
 10
10.748197
 20
-6.41266
 10
10.836538
 20
-6.451222
 10
10.930489
 20
-6.480669
 10
11.030048
 20
-6.502404
 10
11.134515
 20
-6.515024
 10
11.24389
 20
-6.519231
 10
11.24389
 20
-6.519231
 10
11.354667
 20
-6.515024
 10
11.459836
 20
-6.502404
 10
11.559395
 20
-6.48137
 10
11.653345
 20
-6.451923
 10
11.741687
 20
-6.414062
 10
11.824419
 20
-6.367087
 10
11.902244
 20
-6.3124
 10
11.973758
 20
-6.249299
 10
12.038261
 20
-6.179187
 10
12.094351
 20
-6.103466
 10
12.142027
 20
-6.022837
 10
12.18129
 20
-5.9373
 10
12.211438
 20
-5.846154
 10
12.232472
 20
-5.749399
 10
12.245793
 20
-5.647736
 10
12.25
 20
-5.540465
 10
12.25
 20
-5.540465
 10
12.242288
 20
-5.400942
 10
12.21845
 20
-5.269832
 10
12.178486
 20
-5.145733
 10
12.123097
 20
-5.030048
 10
12.052985
 20
-4.923478
 10
11.969551
 20
-4.828826
 10
11.873498
 20
-4.746094
 10
11.763421
 20
-4.67528
 10
11.644932
 20
-4.61849
 10
11.522236
 20
-4.577123
 10
11.394631
 20
-4.553285
 10
11.262821
 20
-4.544872
  0
LWPOLYLINE
  5
85
330
1F
100
AcDbEntity
  8
0
  6
Continuous
 62
     7
100
AcDbPolyline
 90
       86
 70
   128
 43
0.0
 10
13.282046
 20
-4.275641
 10
13.596154
 20
-4.275641
 10
13.596154
 20
-4.275641
 10
13.596154
 20
-4.736979
 10
13.596154
 20
-4.736979
 10
13.699219
 20
-4.613582
 10
13.807192
 20
-4.507712
 10
13.920773
 20
-4.420773
 10
14.039964
 20
-4.351362
 10
14.164062
 20
-4.298778
 10
14.29377
 20
-4.260917
 10
14.429087
 20
-4.238482
 10
14.569311
 20
-4.230769
 10
14.569311
 20
-4.230769
 10
14.710938
 20
-4.239884
 10
14.844151
 20
-4.266526
 10
14.96895
 20
-4.312099
 10
15.085337
 20
-4.3752
 10
15.190505
 20
-4.453726
 10
15.281651
 20
-4.544872
 10
15.357372
 20
-4.648638
 10
15.418369
 20
-4.765024
 10
15.44361
 20
-4.830228
 10
15.465345
 20
-4.904547
 10
15.483574
 20
-4.986579
 10
15.498998
 20
-5.077724
 10
15.510216
 20
-5.177284
 10
15.51863
 20
-5.285256
 10
15.524239
 20
-5.402344
 10
15.525641
 20
-5.527143
 10
15.525641
 20
-5.527143
 10
15.525641
 20
-6.833333
 10
15.525641
 20
-6.833333
 10
15.211538
 20
-6.833333
 10
15.211538
 20
-6.833333
 10
15.211538
 20
-5.630208
 10
15.211538
 20
-5.630208
 10
15.210837
 20
-5.525741
 10
15.209435
 20
-5.430389
 10
15.206631
 20
-5.344151
 10
15.202424
 20
-5.266326
 10
15.196815
 20
-5.198317
 10
15.190505
 20
-5.139423
 10
15.182792
 20
-5.088942
 10
15.174379
 20
-5.048277
 10
15.174379
 20
-5.048277
 10
15.138622
 20
-4.930489
 10
15.088842
 20
-4.828125
 10
15.025741
 20
-4.741887
 10
14.949319
 20
-4.671074
 10
14.859575
 20
-4.615685
 10
14.757212
 20
-4.576422
 10
14.642228
 20
-4.552584
 10
14.514623
 20
-4.544872
 10
14.514623
 20
-4.544872
 10
14.438902
 20
-4.547676
 10
14.365284
 20
-4.556791
 10
14.293069
 20
-4.572216
 10
14.223658
 20
-4.593249
 10
14.155649
 20
-4.621294
 10
14.089744
 20
-4.654247
 10
14.025942
 20
-4.694211
 10
13.964243
 20
-4.739784
 10
13.90605
 20
-4.790264
 10
13.853466
 20
-4.842849
 10
13.805789
 20
-4.898938
 10
13.763021
 20
-4.957833
 10
13.725861
 20
-5.019531
 10
13.69361
 20
-5.084034
 10
13.666266
 20
-5.152043
 10
13.644531
 20
-5.222155
 10
13.644531
 20
-5.222155
 10
13.633313
 20
-5.274038
 10
13.623498
 20
-5.335737
 10
13.615084
 20
-5.40655
 10
13.608073
 20
-5.487881
 10
13.603165
 20
-5.578325
 10
13.598958
 20
-5.678586
 10
13.596855
 20
-5.788662
 10
13.596154
 20
-5.908554
 10
13.596154
 20
-5.908554
 10
13.596154
 20
-6.833333
 10
13.596154
 20
-6.833333
 10
13.282051
 20
-6.833333
 10
13.282051
 20
-6.833333
 10
13.282051
 20
-4.275641
  0
LWPOLYLINE
  5
86
330
1F
100
AcDbEntity
  8
0
  6
Continuous
 62
     7
100
AcDbPolyline
 90
       36
 70
   128
 43
0.0
 10
17.700508
 20
-3.198718
 10
17.758714
 20
-3.203626
 10
17.8127
 20
-3.218349
 10
17.86248
 20
-3.24359
 10
17.907352
 20
-3.277945
 10
17.945212
 20
-3.319311
 10
17.971855
 20
-3.365585
 10
17.987981
 20
-3.415365
 10
17.99359
 20
-3.469351
 10
17.99359
 20
-3.469351
 10
17.987981
 20
-3.521935
 10
17.971855
 20
-3.571014
 10
17.945212
 20
-3.616587
 10
17.907352
 20
-3.657953
 10
17.86248
 20
-3.692308
 10
17.8127
 20
-3.717548
 10
17.758714
 20
-3.732272
 10
17.700521
 20
-3.737179
 10
17.700521
 20
-3.737179
 10
17.643029
 20
-3.732272
 10
17.590445
 20
-3.717548
 10
17.540665
 20
-3.692308
 10
17.495793
 20
-3.657953
 10
17.458634
 20
-3.616587
 10
17.431991
 20
-3.571014
 10
17.415865
 20
-3.521935
 10
17.410256
 20
-3.469351
 10
17.410256
 20
-3.469351
 10
17.415865
 20
-3.415365
 10
17.431991
 20
-3.365585
 10
17.458634
 20
-3.319311
 10
17.495793
 20
-3.277945
 10
17.540665
 20
-3.24359
 10
17.590445
 20
-3.218349
 10
17.643029
 20
-3.203626
 10
17.700521
 20
-3.198718
  0
LWPOLYLINE
  5
87
330
1F
100
AcDbEntity
  8
0
  6
Continuous
 62
     7
100
AcDbPolyline
 90
        8
 70
   128
 43
0.0
 10
17.544866
 20
-4.275641
 10
17.858974
 20
-4.275641
 10
17.858974
 20
-4.275641
 10
17.858974
 20
-6.833333
 10
17.858974
 20
-6.833333
 10
17.544872
 20
-6.833333
 10
17.544872
 20
-6.833333
 10
17.544872
 20
-4.275641
  0
LWPOLYLINE
  5
88
330
1F
100
AcDbEntity
  8
0
  6
Continuous
 62
     7
100
AcDbPolyline
 90
       86
 70
   128
 43
0.0
 10
18.621787
 20
-4.275641
 10
18.935897
 20
-4.275641
 10
18.935897
 20
-4.275641
 10
18.935897
 20
-4.736979
 10
18.935897
 20
-4.736979
 10
19.038962
 20
-4.613582
 10
19.146935
 20
-4.507712
 10
19.260517
 20
-4.420773
 10
19.379708
 20
-4.351362
 10
19.503806
 20
-4.298778
 10
19.633514
 20
-4.260917
 10
19.76883
 20
-4.238482
 10
19.909054
 20
-4.230769
 10
19.909054
 20
-4.230769
 10
20.050681
 20
-4.239884
 10
20.183894
 20
-4.266526
 10
20.308694
 20
-4.312099
 10
20.42508
 20
-4.3752
 10
20.530248
 20
-4.453726
 10
20.621394
 20
-4.544872
 10
20.697115
 20
-4.648638
 10
20.758113
 20
-4.765024
 10
20.783353
 20
-4.830228
 10
20.805088
 20
-4.904547
 10
20.823317
 20
-4.986579
 10
20.838742
 20
-5.077724
 10
20.84996
 20
-5.177284
 10
20.858373
 20
-5.285256
 10
20.863982
 20
-5.402344
 10
20.865385
 20
-5.527143
 10
20.865385
 20
-5.527143
 10
20.865385
 20
-6.833333
 10
20.865385
 20
-6.833333
 10
20.551282
 20
-6.833333
 10
20.551282
 20
-6.833333
 10
20.551282
 20
-5.630208
 10
20.551282
 20
-5.630208
 10
20.550581
 20
-5.525741
 10
20.549179
 20
-5.430389
 10
20.546374
 20
-5.344151
 10
20.542167
 20
-5.266326
 10
20.536558
 20
-5.198317
 10
20.530248
 20
-5.139423
 10
20.522536
 20
-5.088942
 10
20.514123
 20
-5.048277
 10
20.514123
 20
-5.048277
 10
20.478365
 20
-4.930489
 10
20.428586
 20
-4.828125
 10
20.365485
 20
-4.741887
 10
20.289062
 20
-4.671074
 10
20.199319
 20
-4.615685
 10
20.096955
 20
-4.576422
 10
19.981971
 20
-4.552584
 10
19.854367
 20
-4.544872
 10
19.854367
 20
-4.544872
 10
19.778646
 20
-4.547676
 10
19.705028
 20
-4.556791
 10
19.632812
 20
-4.572216
 10
19.563401
 20
-4.593249
 10
19.495393
 20
-4.621294
 10
19.429487
 20
-4.654247
 10
19.365685
 20
-4.694211
 10
19.303986
 20
-4.739784
 10
19.245793
 20
-4.790264
 10
19.193209
 20
-4.842849
 10
19.145533
 20
-4.898938
 10
19.102764
 20
-4.957833
 10
19.065605
 20
-5.019531
 10
19.033353
 20
-5.084034
 10
19.00601
 20
-5.152043
 10
18.984275
 20
-5.222155
 10
18.984275
 20
-5.222155
 10
18.973057
 20
-5.274038
 10
18.963241
 20
-5.335737
 10
18.954828
 20
-5.40655
 10
18.947817
 20
-5.487881
 10
18.942909
 20
-5.578325
 10
18.938702
 20
-5.678586
 10
18.936599
 20
-5.788662
 10
18.935897
 20
-5.908554
 10
18.935897
 20
-5.908554
 10
18.935897
 20
-6.833333
 10
18.935897
 20
-6.833333
 10
18.621795
 20
-6.833333
 10
18.621795
 20
-6.833333
 10
18.621795
 20
-4.275641
  0
LWPOLYLINE
  5
89
330
1F
100
AcDbEntity
  8
0
  6
Continuous
 62
     7
100
AcDbPolyline
 90
      171
 70
   128
 43
0.0
 10
22.660255
 20
-6.158153
 10
22.95613
 20
-5.980769
 10
22.95613
 20
-5.980769
 10
23.040966
 20
-6.117488
 10
23.128606
 20
-6.235978
 10
23.219752
 20
-6.336238
 10
23.314403
 20
-6.418269
 10
23.411859
 20
-6.482071
 10
23.512821
 20
-6.527644
 10
23.617288
 20
-6.554988
 10
23.724559
 20
-6.564103
 10
23.724559
 20
-6.564103
 10
23.816406
 20
-6.559195
 10
23.905449
 20
-6.54377
 10
23.991687
 20
-6.51853
 10
24.07512
 20
-6.482772
 10
24.152244
 20
-6.438602
 10
24.219551
 20
-6.386719
 10
24.277043
 20
-6.328526
 10
24.32472
 20
-6.263321
 10
24.361879
 20
-6.193209
 10
24.389223
 20
-6.120994
 10
24.404647
 20
-6.047376
 10
24.410256
 20
-5.970954
 10
24.410256
 20
-5.970954
 10
24.402544
 20
-5.884014
 10
24.378706
 20
-5.797075
 10
24.339443
 20
-5.71224
 10
24.284756
 20
-5.627404
 10
24.284756
 20
-5.627404
 10
24.237079
 20
-5.567808
 10
24.18099
 20
-5.505409
 10
24.115084
 20
-5.440204
 10
24.040765
 20
-5.371494
 10
23.957332
 20
-5.300681
 10
23.865485
 20
-5.226362
 10
23.763822
 20
-5.149239
 10
23.653746
 20
-5.069311
 10
23.653746
 20
-5.069311
 10
23.54367
 20
-4.990084
 10
23.444812
 20
-4.915765
 10
23.357171
 20
-4.847756
 10
23.280048
 20
-4.785357
 10
23.213442
 20
-4.728566
 10
23.158053
 20
-4.678085
 10
23.113882
 20
-4.632512
 10
23.080228
 20
-4.593249
 10
23.080228
 20
-4.593249
 10
23.034655
 20
-4.530849
 10
22.994692
 20
-4.467748
 10
22.961038
 20
-4.403245
 10
22.933694
 20
-4.336639
 10
22.911959
 20
-4.270032
 10
22.896534
 20
-4.201322
 10
22.88742
 20
-4.13121
 10
22.884615
 20
-4.060397
 10
22.884615
 20
-4.060397
 10
22.891627
 20
-3.949619
 10
22.91266
 20
-3.843049
 10
22.947015
 20
-3.742087
 10
22.995393
 20
-3.646034
 10
23.057091
 20
-3.557692
 10
23.129307
 20
-3.478466
 10
23.213442
 20
-3.410457
 10
23.308093
 20
-3.351562
 10
23.411158
 20
-3.304587
 10
23.519131
 20
-3.270232
 10
23.630609
 20
-3.250601
 10
23.746995
 20
-3.24359
 10
23.746995
 20
-3.24359
 10
23.870393
 20
-3.251302
 10
23.990284
 20
-3.27514
 10
24.105268
 20
-3.315104
 10
24.216747
 20
-3.370493
 10
24.272135
 20
-3.405549
 10
24.327524
 20
-3.446915
 10
24.384315
 20
-3.495292
 10
24.441807
 20
-3.54998
 10
24.5
 20
-3.611679
 10
24.558894
 20
-3.679688
 10
24.619191
 20
-3.754708
 10
24.679487
 20
-3.836038
 10
24.679487
 20
-3.836038
 10
24.395533
 20
-4.051282
 10
24.395533
 20
-4.051282
 10
24.34365
 20
-3.985377
 10
24.29387
 20
-3.925781
 10
24.246194
 20
-3.871795
 10
24.19992
 20
-3.824119
 10
24.15645
 20
-3.782051
 10
24.114383
 20
-3.745593
 10
24.073718
 20
-3.714744
 10
24.035857
 20
-3.690204
 10
23.960136
 20
-3.651643
 10
23.880909
 20
-3.624299
 10
23.798177
 20
-3.608173
 10
23.711939
 20
-3.602564
 10
23.711939
 20
-3.602564
 10
23.603966
 20
-3.610276
 10
23.50651
 20
-3.634816
 10
23.419571
 20
-3.67478
 10
23.342448
 20
-3.730869
 10
23.279347
 20
-3.798177
 10
23.234475
 20
-3.873197
 10
23.207833
 20
-3.955929
 10
23.198718
 20
-4.045673
 10
23.198718
 20
-4.045673
 10
23.201522
 20
-4.101763
 10
23.211338
 20
-4.157151
 10
23.226062
 20
-4.211839
 10
23.247796
 20
-4.265825
 10
23.277945
 20
-4.320513
 10
23.317909
 20
-4.377304
 10
23.368389
 20
-4.436198
 10
23.429387
 20
-4.497897
 10
23.429387
 20
-4.497897
 10
23.452524
 20
-4.518229
 10
23.485477
 20
-4.544872
 10
23.528946
 20
-4.577825
 10
23.582933
 20
-4.61849
 10
23.646735
 20
-4.665465
 10
23.721054
 20
-4.71875
 10
23.805188
 20
-4.779046
 10
23.89984
 20
-4.846354
 10
23.89984
 20
-4.846354
 10
24.013421
 20
-4.929788
 10
24.117889
 20
-5.010417
 10
24.21254
 20
-5.088942
 10
24.298077
 20
-5.165365
 10
24.374499
 20
-5.238982
 10
24.441807
 20
-5.310497
 10
24.5
 20
-5.379908
 10
24.548377
 20
-5.447216
 10
24.625501
 20
-5.579026
 10
24.680188
 20
-5.710837
 10
24.713141
 20
-5.843349
 10
24.724359
 20
-5.975861
 10
24.724359
 20
-5.975861
 10
24.720152
 20
-6.069812
 10
24.70613
 20
-6.160958
 10
24.683694
 20
-6.248598
 10
24.651442
 20
-6.333433
 10
24.610777
 20
-6.415465
 10
24.560296
 20
-6.49399
 10
24.501402
 20
-6.56901
 10
24.432692
 20
-6.641226
 10
24.357672
 20
-6.707131
 10
24.279147
 20
-6.764623
 10
24.196414
 20
-6.813001
 10
24.110176
 20
-6.852264
 10
24.019732
 20
-6.883113
 10
23.92508
 20
-6.905549
 10
23.826923
 20
-6.91887
 10
23.724559
 20
-6.923077
 10
23.724559
 20
-6.923077
 10
23.645333
 20
-6.920272
 10
23.567508
 20
-6.911859
 10
23.491787
 20
-6.898538
 10
23.418169
 20
-6.878906
 10
23.346655
 20
-6.854367
 10
23.276542
 20
-6.824219
 10
23.208534
 20
-6.788462
 10
23.141927
 20
-6.747095
 10
23.077424
 20
-6.699419
 10
23.014323
 20
-6.64403
 10
22.951923
 20
-6.581631
 10
22.890925
 20
-6.511518
 10
22.83133
 20
-6.434395
 10
22.773137
 20
-6.349559
 10
22.716346
 20
-6.257712
 10
22.660256
 20
-6.158153
  0
LWPOLYLINE
  5
8A
330
1F
100
AcDbEntity
  8
0
  6
Continuous
 62
     7
100
AcDbPolyline
 90
       86
 70
   128
 43
0.0
 10
25.352553
 20
-3.24359
 10
25.666667
 20
-3.24359
 10
25.666667
 20
-3.24359
 10
25.666667
 20
-4.758714
 10
25.666667
 20
-4.758714
 10
25.770433
 20
-4.634615
 10
25.879808
 20
-4.527344
 10
25.993389
 20
-4.436198
 10
26.11258
 20
-4.36258
 10
26.236679
 20
-4.305088
 10
26.366386
 20
-4.263722
 10
26.5003
 20
-4.239183
 10
26.639824
 20
-4.230769
 10
26.639824
 20
-4.230769
 10
26.78145
 20
-4.239884
 10
26.914663
 20
-4.266526
 10
27.039463
 20
-4.312099
 10
27.155849
 20
-4.3752
 10
27.261018
 20
-4.453726
 10
27.352163
 20
-4.544171
 10
27.427885
 20
-4.647937
 10
27.488882
 20
-4.763622
 10
27.514123
 20
-4.828826
 10
27.535857
 20
-4.903145
 10
27.554087
 20
-4.985176
 10
27.569511
 20
-5.076322
 10
27.580729
 20
-5.176583
 10
27.589143
 20
-5.284555
 10
27.594752
 20
-5.401643
 10
27.596154
 20
-5.527143
 10
27.596154
 20
-5.527143
 10
27.596154
 20
-6.833333
 10
27.596154
 20
-6.833333
 10
27.282051
 20
-6.833333
 10
27.282051
 20
-6.833333
 10
27.282051
 20
-5.630208
 10
27.282051
 20
-5.630208
 10
27.28135
 20
-5.525741
 10
27.279948
 20
-5.430389
 10
27.277143
 20
-5.344151
 10
27.272937
 20
-5.266326
 10
27.268029
 20
-5.198317
 10
27.261719
 20
-5.139423
 10
27.254006
 20
-5.088942
 10
27.245593
 20
-5.048277
 10
27.245593
 20
-5.048277
 10
27.207732
 20
-4.930489
 10
27.157252
 20
-4.828125
 10
27.094151
 20
-4.741887
 10
27.017728
 20
-4.671074
 10
26.928686
 20
-4.615685
 10
26.827023
 20
-4.576422
 10
26.712039
 20
-4.552584
 10
26.584435
 20
-4.544872
 10
26.584435
 20
-4.544872
 10
26.508714
 20
-4.547676
 10
26.435096
 20
-4.556791
 10
26.362881
 20
-4.572216
 10
26.29347
 20
-4.593249
 10
26.225461
 20
-4.621294
 10
26.160256
 20
-4.654247
 10
26.096454
 20
-4.694211
 10
26.034756
 20
-4.739784
 10
25.976562
 20
-4.790264
 10
25.923978
 20
-4.842849
 10
25.876302
 20
-4.898938
 10
25.833534
 20
-4.957833
 10
25.796374
 20
-5.019531
 10
25.764123
 20
-5.084034
 10
25.736779
 20
-5.152043
 10
25.715044
 20
-5.222155
 10
25.715044
 20
-5.222155
 10
25.703826
 20
-5.273337
 10
25.69401
 20
-5.334335
 10
25.685597
 20
-5.405148
 10
25.678586
 20
-5.486478
 10
25.673678
 20
-5.576923
 10
25.669471
 20
-5.677885
 10
25.667368
 20
-5.787961
 10
25.666667
 20
-5.908554
 10
25.666667
 20
-5.908554
 10
25.666667
 20
-6.833333
 10
25.666667
 20
-6.833333
 10
25.352564
 20
-6.833333
 10
25.352564
 20
-6.833333
 10
25.352564
 20
-3.24359
  0
LWPOLYLINE
  5
8B
330
1F
100
AcDbEntity
  8
0
  6
Continuous
 62
     7
100
AcDbPolyline
 90
      100
 70
   128
 43
0.0
 10
30.413255
 20
-6.025641
 10
30.692308
 20
-6.172175
 10
30.692308
 20
-6.172175
 10
30.623598
 20
-6.289263
 10
30.54998
 20
-6.394431
 10
30.471454
 20
-6.488381
 10
30.38732
 20
-6.569712
 10
30.298277
 20
-6.640525
 10
30.204327
 20
-6.702224
 10
30.104067
 20
-6.755509
 10
29.998898
 20
-6.799679
 10
29.88742
 20
-6.834034
 10
29.76893
 20
-6.858574
 10
29.643429
 20
-6.873297
 10
29.510917
 20
-6.878205
 10
29.510917
 20
-6.878205
 10
29.363682
 20
-6.871895
 10
29.22486
 20
-6.852965
 10
29.094451
 20
-6.821414
 10
28.971755
 20
-6.777244
 10
28.858173
 20
-6.720453
 10
28.752304
 20
-6.651042
 10
28.654147
 20
-6.56901
 10
28.565104
 20
-6.474359
 10
28.485176
 20
-6.371995
 10
28.415765
 20
-6.266126
 10
28.357572
 20
-6.156751
 10
28.309896
 20
-6.04387
 10
28.272035
 20
-5.928185
 10
28.245393
 20
-5.809696
 10
28.229968
 20
-5.686999
 10
28.224359
 20
-5.561498
 10
28.224359
 20
-5.561498
 10
28.229267
 20
-5.44371
 10
28.242588
 20
-5.328726
 10
28.265725
 20
-5.217248
 10
28.297977
 20
-5.108574
 10
28.339343
 20
-5.003405
 10
28.389824
 20
-4.901743
 10
28.45012
 20
-4.802885
 10
28.51883
 20
-4.707532
 10
28.51883
 20
-4.707532
 10
28.616286
 20
-4.596054
 10
28.721454
 20
-4.498598
 10
28.834335
 20
-4.417268
 10
28.955629
 20
-4.34996
 10
29.084635
 20
-4.298077
 10
29.221354
 20
-4.260216
 10
29.365785
 20
-4.238482
 10
29.51863
 20
-4.230769
 10
29.51863
 20
-4.230769
 10
29.675681
 20
-4.238482
 10
29.82502
 20
-4.26232
 10
29.965946
 20
-4.301583
 10
30.098458
 20
-4.35627
 10
30.223257
 20
-4.427083
 10
30.339643
 20
-4.514022
 10
30.448317
 20
-4.616386
 10
30.548578
 20
-4.734175
 10
30.548578
 20
-4.734175
 10
30.613081
 20
-4.826022
 10
30.66847
 20
-4.922776
 10
30.716146
 20
-5.025841
 10
30.754708
 20
-5.133814
 10
30.785557
 20
-5.247396
 10
30.807993
 20
-5.366587
 10
30.821314
 20
-5.491386
 10
30.826923
 20
-5.621795
 10
30.826923
 20
-5.621795
 10
28.538462
 20
-5.621795
 10
28.538462
 20
-5.621795
 10
28.544772
 20
-5.722756
 10
28.558794
 20
-5.819511
 10
28.58123
 20
-5.911358
 10
28.612079
 20
-5.998297
 10
28.64994
 20
-6.080329
 10
28.696214
 20
-6.158153
 10
28.750901
 20
-6.23107
 10
28.813301
 20
-6.29978
 10
28.882011
 20
-6.361478
 10
28.954227
 20
-6.415465
 10
29.030649
 20
-6.461038
 10
29.111278
 20
-6.498197
 10
29.195413
 20
-6.526943
 10
29.283754
 20
-6.547276
 10
29.375601
 20
-6.559896
 10
29.471655
 20
-6.564103
 10
29.471655
 20
-6.564103
 10
29.565605
 20
-6.560597
 10
29.657452
 20
-6.549379
 10
29.748598
 20
-6.530449
 10
29.838341
 20
-6.504507
 10
29.924579
 20
-6.472256
 10
30.003806
 20
-6.434395
 10
30.076022
 20
-6.392328
 10
30.141927
 20
-6.345353
 10
30.205729
 20
-6.288562
 10
30.272336
 20
-6.215645
 10
30.341747
 20
-6.128706
 10
30.413261
 20
-6.025641
  0
LWPOLYLINE
  5
8C
330
1F
100
AcDbEntity
  8
0
  6
Continuous
 62
     7
100
AcDbPolyline
 90
       33
 70
   128
 43
0.0
 10
30.51281
 20
-5.307692
 10
30.475661
 20
-5.183594
 10
30.430088
 20
-5.072817
 10
30.377504
 20
-4.975361
 10
30.317208
 20
-4.891226
 10
30.248498
 20
-4.816907
 10
30.16857
 20
-4.7503
 10
30.078826
 20
-4.691406
 10
29.978566
 20
-4.640224
 10
29.871995
 20
-4.598157
 10
29.761919
 20
-4.56871
 10
29.64974
 20
-4.550481
 10
29.534756
 20
-4.544872
 10
29.534756
 20
-4.544872
 10
29.440805
 20
-4.548377
 10
29.349659
 20
-4.559595
 10
29.262019
 20
-4.578526
 10
29.178586
 20
-4.604467
 10
29.097256
 20
-4.638822
 10
29.020132
 20
-4.679487
 10
28.946514
 20
-4.728566
 10
28.875701
 20
-4.784655
 10
28.875701
 20
-4.784655
 10
28.826623
 20
-4.830929
 10
28.78105
 20
-4.882812
 10
28.738281
 20
-4.939603
 10
28.699018
 20
-5.002003
 10
28.66256
 20
-5.070713
 10
28.628906
 20
-5.144331
 10
28.598758
 20
-5.222857
 10
28.571414
 20
-5.307692
 10
28.571414
 20
-5.307692
 10
30.512821
 20
-5.307692
  0
LWPOLYLINE
  5
8D
330
1F
100
AcDbEntity
  8
0
  6
Continuous
 62
     7
100
AcDbPolyline
 90
       86
 70
   128
 43
0.0
 10
31.4551
 20
-4.275641
 10
31.769231
 20
-4.275641
 10
31.769231
 20
-4.275641
 10
31.769231
 20
-4.736979
 10
31.769231
 20
-4.736979
 10
31.872296
 20
-4.613582
 10
31.980268
 20
-4.507712
 10
32.09385
 20
-4.420773
 10
32.213041
 20
-4.351362
 10
32.337139
 20
-4.298778
 10
32.466847
 20
-4.260917
 10
32.602163
 20
-4.238482
 10
32.742388
 20
-4.230769
 10
32.742388
 20
-4.230769
 10
32.884014
 20
-4.239884
 10
33.017228
 20
-4.266526
 10
33.142027
 20
-4.312099
 10
33.258413
 20
-4.3752
 10
33.363582
 20
-4.453726
 10
33.454728
 20
-4.544872
 10
33.530449
 20
-4.648638
 10
33.591446
 20
-4.765024
 10
33.616687
 20
-4.830228
 10
33.638421
 20
-4.904547
 10
33.656651
 20
-4.986579
 10
33.672075
 20
-5.077724
 10
33.683293
 20
-5.177284
 10
33.691707
 20
-5.285256
 10
33.697316
 20
-5.402344
 10
33.698718
 20
-5.527143
 10
33.698718
 20
-5.527143
 10
33.698718
 20
-6.833333
 10
33.698718
 20
-6.833333
 10
33.384615
 20
-6.833333
 10
33.384615
 20
-6.833333
 10
33.384615
 20
-5.630208
 10
33.384615
 20
-5.630208
 10
33.383914
 20
-5.525741
 10
33.382512
 20
-5.430389
 10
33.379708
 20
-5.344151
 10
33.375501
 20
-5.266326
 10
33.369892
 20
-5.198317
 10
33.363582
 20
-5.139423
 10
33.355869
 20
-5.088942
 10
33.347456
 20
-5.048277
 10
33.347456
 20
-5.048277
 10
33.311699
 20
-4.930489
 10
33.261919
 20
-4.828125
 10
33.198818
 20
-4.741887
 10
33.122396
 20
-4.671074
 10
33.032652
 20
-4.615685
 10
32.930288
 20
-4.576422
 10
32.815304
 20
-4.552584
 10
32.6877
 20
-4.544872
 10
32.6877
 20
-4.544872
 10
32.611979
 20
-4.547676
 10
32.538361
 20
-4.556791
 10
32.466146
 20
-4.572216
 10
32.396735
 20
-4.593249
 10
32.328726
 20
-4.621294
 10
32.262821
 20
-4.654247
 10
32.199018
 20
-4.694211
 10
32.13732
 20
-4.739784
 10
32.079127
 20
-4.790264
 10
32.026542
 20
-4.842849
 10
31.978866
 20
-4.898938
 10
31.936098
 20
-4.957833
 10
31.898938
 20
-5.019531
 10
31.866687
 20
-5.084034
 10
31.839343
 20
-5.152043
 10
31.817608
 20
-5.222155
 10
31.817608
 20
-5.222155
 10
31.80639
 20
-5.274038
 10
31.796575
 20
-5.335737
 10
31.788161
 20
-5.40655
 10
31.78115
 20
-5.487881
 10
31.776242
 20
-5.578325
 10
31.772035
 20
-5.678586
 10
31.769932
 20
-5.788662
 10
31.769231
 20
-5.908554
 10
31.769231
 20
-5.908554
 10
31.769231
 20
-6.833333
 10
31.769231
 20
-6.833333
 10
31.455128
 20
-6.833333
 10
31.455128
 20
-6.833333
 10
31.455128
 20
-4.275641
  0
LWPOLYLINE
  5
8E
330
1F
100
AcDbEntity
  8
0
  6
Continuous
 62
     7
100
AcDbPolyline
 90
       16
 70
   128
 43
0.0
 10
34.192294
 20
-4.275641
 10
36.121795
 20
-4.275641
 10
36.121795
 20
-4.275641
 10
34.634014
 20
-6.519231
 10
34.634014
 20
-6.519231
 10
36.076923
 20
-6.519231
 10
36.076923
 20
-6.519231
 10
36.076923
 20
-6.833333
 10
36.076923
 20
-6.833333
 10
34.057692
 20
-6.833333
 10
34.057692
 20
-6.833333
 10
35.546174
 20
-4.589744
 10
35.546174
 20
-4.589744
 10
34.192308
 20
-4.589744
 10
34.192308
 20
-4.589744
 10
34.192308
 20
-4.275641
  0
LWPOLYLINE
  5
8F
330
1F
100
AcDbEntity
  8
0
  6
Continuous
 62
     7
100
AcDbPolyline
 90
       86
 70
   128
 43
0.0
 10
36.480755
 20
-3.24359
 10
36.794872
 20
-3.24359
 10
36.794872
 20
-3.24359
 10
36.794872
 20
-4.758714
 10
36.794872
 20
-4.758714
 10
36.898638
 20
-4.634615
 10
37.008013
 20
-4.527344
 10
37.121595
 20
-4.436198
 10
37.240785
 20
-4.36258
 10
37.364884
 20
-4.305088
 10
37.494591
 20
-4.263722
 10
37.628506
 20
-4.239183
 10
37.768029
 20
-4.230769
 10
37.768029
 20
-4.230769
 10
37.909655
 20
-4.239884
 10
38.042869
 20
-4.266526
 10
38.167668
 20
-4.312099
 10
38.284054
 20
-4.3752
 10
38.389223
 20
-4.453726
 10
38.480369
 20
-4.544171
 10
38.55609
 20
-4.647937
 10
38.617087
 20
-4.763622
 10
38.642328
 20
-4.828826
 10
38.664062
 20
-4.903145
 10
38.682292
 20
-4.985176
 10
38.697716
 20
-5.076322
 10
38.708934
 20
-5.176583
 10
38.717348
 20
-5.284555
 10
38.722957
 20
-5.401643
 10
38.724359
 20
-5.527143
 10
38.724359
 20
-5.527143
 10
38.724359
 20
-6.833333
 10
38.724359
 20
-6.833333
 10
38.410256
 20
-6.833333
 10
38.410256
 20
-6.833333
 10
38.410256
 20
-5.630208
 10
38.410256
 20
-5.630208
 10
38.409555
 20
-5.525741
 10
38.408153
 20
-5.430389
 10
38.405349
 20
-5.344151
 10
38.401142
 20
-5.266326
 10
38.396234
 20
-5.198317
 10
38.389924
 20
-5.139423
 10
38.382212
 20
-5.088942
 10
38.373798
 20
-5.048277
 10
38.373798
 20
-5.048277
 10
38.335938
 20
-4.930489
 10
38.285457
 20
-4.828125
 10
38.222356
 20
-4.741887
 10
38.145933
 20
-4.671074
 10
38.056891
 20
-4.615685
 10
37.955228
 20
-4.576422
 10
37.840244
 20
-4.552584
 10
37.71264
 20
-4.544872
 10
37.71264
 20
-4.544872
 10
37.636919
 20
-4.547676
 10
37.563301
 20
-4.556791
 10
37.491086
 20
-4.572216
 10
37.421675
 20
-4.593249
 10
37.353666
 20
-4.621294
 10
37.288462
 20
-4.654247
 10
37.224659
 20
-4.694211
 10
37.162961
 20
-4.739784
 10
37.104768
 20
-4.790264
 10
37.052183
 20
-4.842849
 10
37.004507
 20
-4.898938
 10
36.961739
 20
-4.957833
 10
36.924579
 20
-5.019531
 10
36.892328
 20
-5.084034
 10
36.864984
 20
-5.152043
 10
36.843249
 20
-5.222155
 10
36.843249
 20
-5.222155
 10
36.832031
 20
-5.273337
 10
36.822216
 20
-5.334335
 10
36.813802
 20
-5.405148
 10
36.806791
 20
-5.486478
 10
36.801883
 20
-5.576923
 10
36.797676
 20
-5.677885
 10
36.795573
 20
-5.787961
 10
36.794872
 20
-5.908554
 10
36.794872
 20
-5.908554
 10
36.794872
 20
-6.833333
 10
36.794872
 20
-6.833333
 10
36.480769
 20
-6.833333
 10
36.480769
 20
-6.833333
 10
36.480769
 20
-3.24359
  0
LWPOLYLINE
  5
90
330
1F
100
AcDbEntity
  8
0
  6
Continuous
 62
     7
100
AcDbPolyline
 90
      100
 70
   128
 43
0.0
 10
41.541457
 20
-6.025641
 10
41.820513
 20
-6.172175
 10
41.820513
 20
-6.172175
 10
41.751803
 20
-6.289263
 10
41.678185
 20
-6.394431
 10
41.599659
 20
-6.488381
 10
41.515525
 20
-6.569712
 10
41.426482
 20
-6.640525
 10
41.332532
 20
-6.702224
 10
41.232272
 20
-6.755509
 10
41.127103
 20
-6.799679
 10
41.015625
 20
-6.834034
 10
40.897135
 20
-6.858574
 10
40.771635
 20
-6.873297
 10
40.639123
 20
-6.878205
 10
40.639123
 20
-6.878205
 10
40.491887
 20
-6.871895
 10
40.353065
 20
-6.852965
 10
40.222656
 20
-6.821414
 10
40.09996
 20
-6.777244
 10
39.986378
 20
-6.720453
 10
39.880509
 20
-6.651042
 10
39.782352
 20
-6.56901
 10
39.693309
 20
-6.474359
 10
39.613381
 20
-6.371995
 10
39.54397
 20
-6.266126
 10
39.485777
 20
-6.156751
 10
39.438101
 20
-6.04387
 10
39.40024
 20
-5.928185
 10
39.373598
 20
-5.809696
 10
39.358173
 20
-5.686999
 10
39.352564
 20
-5.561498
 10
39.352564
 20
-5.561498
 10
39.357472
 20
-5.44371
 10
39.370793
 20
-5.328726
 10
39.39393
 20
-5.217248
 10
39.426182
 20
-5.108574
 10
39.467548
 20
-5.003405
 10
39.518029
 20
-4.901743
 10
39.578325
 20
-4.802885
 10
39.647035
 20
-4.707532
 10
39.647035
 20
-4.707532
 10
39.744491
 20
-4.596054
 10
39.849659
 20
-4.498598
 10
39.96254
 20
-4.417268
 10
40.083834
 20
-4.34996
 10
40.212841
 20
-4.298077
 10
40.349559
 20
-4.260216
 10
40.49399
 20
-4.238482
 10
40.646835
 20
-4.230769
 10
40.646835
 20
-4.230769
 10
40.803886
 20
-4.238482
 10
40.953225
 20
-4.26232
 10
41.094151
 20
-4.301583
 10
41.226663
 20
-4.35627
 10
41.351462
 20
-4.427083
 10
41.467849
 20
-4.514022
 10
41.576522
 20
-4.616386
 10
41.676783
 20
-4.734175
 10
41.676783
 20
-4.734175
 10
41.741286
 20
-4.826022
 10
41.796675
 20
-4.922776
 10
41.844351
 20
-5.025841
 10
41.882913
 20
-5.133814
 10
41.913762
 20
-5.247396
 10
41.936198
 20
-5.366587
 10
41.949519
 20
-5.491386
 10
41.955128
 20
-5.621795
 10
41.955128
 20
-5.621795
 10
39.666667
 20
-5.621795
 10
39.666667
 20
-5.621795
 10
39.672977
 20
-5.722756
 10
39.686999
 20
-5.819511
 10
39.709435
 20
-5.911358
 10
39.740284
 20
-5.998297
 10
39.778145
 20
-6.080329
 10
39.824419
 20
-6.158153
 10
39.879107
 20
-6.23107
 10
39.941506
 20
-6.29978
 10
40.010216
 20
-6.361478
 10
40.082432
 20
-6.415465
 10
40.158854
 20
-6.461038
 10
40.239483
 20
-6.498197
 10
40.323618
 20
-6.526943
 10
40.411959
 20
-6.547276
 10
40.503806
 20
-6.559896
 10
40.59986
 20
-6.564103
 10
40.59986
 20
-6.564103
 10
40.69381
 20
-6.560597
 10
40.785657
 20
-6.549379
 10
40.876803
 20
-6.530449
 10
40.966546
 20
-6.504507
 10
41.052784
 20
-6.472256
 10
41.132011
 20
-6.434395
 10
41.204227
 20
-6.392328
 10
41.270132
 20
-6.345353
 10
41.333934
 20
-6.288562
 10
41.400541
 20
-6.215645
 10
41.469952
 20
-6.128706
 10
41.541466
 20
-6.025641
  0
LWPOLYLINE
  5
91
330
1F
100
AcDbEntity
  8
0
  6
Continuous
 62
     7
100
AcDbPolyline
 90
       33
 70
   128
 43
0.0
 10
41.640997
 20
-5.307692
 10
41.603866
 20
-5.183594
 10
41.558293
 20
-5.072817
 10
41.505709
 20
-4.975361
 10
41.445413
 20
-4.891226
 10
41.376703
 20
-4.816907
 10
41.296775
 20
-4.7503
 10
41.207031
 20
-4.691406
 10
41.106771
 20
-4.640224
 10
41.0002
 20
-4.598157
 10
40.890124
 20
-4.56871
 10
40.777945
 20
-4.550481
 10
40.662961
 20
-4.544872
 10
40.662961
 20
-4.544872
 10
40.56901
 20
-4.548377
 10
40.477865
 20
-4.559595
 10
40.390224
 20
-4.578526
 10
40.306791
 20
-4.604467
 10
40.225461
 20
-4.638822
 10
40.148337
 20
-4.679487
 10
40.07472
 20
-4.728566
 10
40.003906
 20
-4.784655
 10
40.003906
 20
-4.784655
 10
39.954828
 20
-4.830929
 10
39.909255
 20
-4.882812
 10
39.866486
 20
-4.939603
 10
39.827224
 20
-5.002003
 10
39.790765
 20
-5.070713
 10
39.757111
 20
-5.144331
 10
39.726963
 20
-5.222857
 10
39.699619
 20
-5.307692
 10
39.699619
 20
-5.307692
 10
41.641026
 20
-5.307692
  0
LWPOLYLINE
  5
92
330
1F
100
AcDbEntity
  8
0
  6
Continuous
 62
     7
100
AcDbPolyline
 90
       86
 70
   128
 43
0.0
 10
42.583317
 20
-4.275641
 10
42.897436
 20
-4.275641
 10
42.897436
 20
-4.275641
 10
42.897436
 20
-4.736979
 10
42.897436
 20
-4.736979
 10
43.000501
 20
-4.613582
 10
43.108474
 20
-4.507712
 10
43.222055
 20
-4.420773
 10
43.341246
 20
-4.351362
 10
43.465345
 20
-4.298778
 10
43.595052
 20
-4.260917
 10
43.730369
 20
-4.238482
 10
43.870593
 20
-4.230769
 10
43.870593
 20
-4.230769
 10
44.01222
 20
-4.239884
 10
44.145433
 20
-4.266526
 10
44.270232
 20
-4.312099
 10
44.386619
 20
-4.3752
 10
44.491787
 20
-4.453726
 10
44.582933
 20
-4.544872
 10
44.658654
 20
-4.648638
 10
44.719651
 20
-4.765024
 10
44.744892
 20
-4.830228
 10
44.766627
 20
-4.904547
 10
44.784856
 20
-4.986579
 10
44.80028
 20
-5.077724
 10
44.811498
 20
-5.177284
 10
44.819912
 20
-5.285256
 10
44.825521
 20
-5.402344
 10
44.826923
 20
-5.527143
 10
44.826923
 20
-5.527143
 10
44.826923
 20
-6.833333
 10
44.826923
 20
-6.833333
 10
44.512821
 20
-6.833333
 10
44.512821
 20
-6.833333
 10
44.512821
 20
-5.630208
 10
44.512821
 20
-5.630208
 10
44.512119
 20
-5.525741
 10
44.510717
 20
-5.430389
 10
44.507913
 20
-5.344151
 10
44.503706
 20
-5.266326
 10
44.498097
 20
-5.198317
 10
44.491787
 20
-5.139423
 10
44.484075
 20
-5.088942
 10
44.475661
 20
-5.048277
 10
44.475661
 20
-5.048277
 10
44.439904
 20
-4.930489
 10
44.390124
 20
-4.828125
 10
44.327023
 20
-4.741887
 10
44.250601
 20
-4.671074
 10
44.160857
 20
-4.615685
 10
44.058494
 20
-4.576422
 10
43.94351
 20
-4.552584
 10
43.815905
 20
-4.544872
 10
43.815905
 20
-4.544872
 10
43.740184
 20
-4.547676
 10
43.666567
 20
-4.556791
 10
43.594351
 20
-4.572216
 10
43.52494
 20
-4.593249
 10
43.456931
 20
-4.621294
 10
43.391026
 20
-4.654247
 10
43.327224
 20
-4.694211
 10
43.265525
 20
-4.739784
 10
43.207332
 20
-4.790264
 10
43.154748
 20
-4.842849
 10
43.107071
 20
-4.898938
 10
43.064303
 20
-4.957833
 10
43.027143
 20
-5.019531
 10
42.994892
 20
-5.084034
 10
42.967548
 20
-5.152043
 10
42.945813
 20
-5.222155
 10
42.945813
 20
-5.222155
 10
42.934595
 20
-5.274038
 10
42.92478
 20
-5.335737
 10
42.916366
 20
-5.40655
 10
42.909355
 20
-5.487881
 10
42.904447
 20
-5.578325
 10
42.90024
 20
-5.678586
 10
42.898137
 20
-5.788662
 10
42.897436
 20
-5.908554
 10
42.897436
 20
-5.908554
 10
42.897436
 20
-6.833333
 10
42.897436
 20
-6.833333
 10
42.583333
 20
-6.833333
 10
42.583333
 20
-6.833333
 10
42.583333
 20
-4.275641
  0
LWPOLYLINE
  5
93
330
1F
100
AcDbEntity
  8
0
  6
Continuous
 62
     7
100
AcDbPolyline
 90
       18
 70
   128
 43
0.0
 10
0.179487
 20
-10.166667
 10
0.539163
 20
-10.166667
 10
0.539163
 20
-10.166667
 10
1.459034
 20
-11.670573
 10
1.459034
 20
-11.670573
 10
2.377504
 20
-10.166667
 10
2.377504
 20
-10.166667
 10
2.737179
 20
-10.166667
 10
2.737179
 20
-10.166667
 10
1.615385
 20
-12.002905
 10
1.615385
 20
-12.002905
 10
1.615385
 20
-13.666667
 10
1.615385
 20
-13.666667
 10
1.301282
 20
-13.666667
 10
1.301282
 20
-13.666667
 10
1.301282
 20
-12.002905
 10
1.301282
 20
-12.002905
 10
0.179487
 20
-10.166667
  0
LWPOLYLINE
  5
94
330
1F
100
AcDbEntity
  8
0
  6
Continuous
 62
     7
100
AcDbPolyline
 90
      100
 70
   128
 43
0.0
 10
5.374797
 20
-12.858974
 10
5.653846
 20
-13.005509
 10
5.653846
 20
-13.005509
 10
5.585136
 20
-13.122596
 10
5.511518
 20
-13.227764
 10
5.432993
 20
-13.321715
 10
5.348858
 20
-13.403045
 10
5.259816
 20
-13.473858
 10
5.165865
 20
-13.535557
 10
5.065605
 20
-13.588842
 10
4.960437
 20
-13.633013
 10
4.848958
 20
-13.667368
 10
4.730469
 20
-13.691907
 10
4.604968
 20
-13.706631
 10
4.472456
 20
-13.711538
 10
4.472456
 20
-13.711538
 10
4.32522
 20
-13.705228
 10
4.186398
 20
-13.686298
 10
4.05599
 20
-13.654748
 10
3.933293
 20
-13.610577
 10
3.819712
 20
-13.553786
 10
3.713842
 20
-13.484375
 10
3.615685
 20
-13.402344
 10
3.526643
 20
-13.307692
 10
3.446715
 20
-13.205329
 10
3.377304
 20
-13.099459
 10
3.319111
 20
-12.990084
 10
3.271434
 20
-12.877204
 10
3.233574
 20
-12.761518
 10
3.206931
 20
-12.643029
 10
3.191506
 20
-12.520333
 10
3.185897
 20
-12.394832
 10
3.185897
 20
-12.394832
 10
3.190805
 20
-12.277043
 10
3.204127
 20
-12.162059
 10
3.227264
 20
-12.050581
 10
3.259515
 20
-11.941907
 10
3.300881
 20
-11.836739
 10
3.351362
 20
-11.735076
 10
3.411659
 20
-11.636218
 10
3.480369
 20
-11.540865
 10
3.480369
 20
-11.540865
 10
3.577825
 20
-11.429387
 10
3.682993
 20
-11.331931
 10
3.795873
 20
-11.250601
 10
3.917167
 20
-11.183293
 10
4.046174
 20
-11.13141
 10
4.182893
 20
-11.09355
 10
4.327324
 20
-11.071815
 10
4.480168
 20
-11.064103
 10
4.480168
 20
-11.064103
 10
4.63722
 20
-11.071815
 10
4.786558
 20
-11.095653
 10
4.927484
 20
-11.134916
 10
5.059996
 20
-11.189603
 10
5.184796
 20
-11.260417
 10
5.301182
 20
-11.347356
 10
5.409856
 20
-11.44972
 10
5.510116
 20
-11.567508
 10
5.510116
 20
-11.567508
 10
5.574619
 20
-11.659355
 10
5.630008
 20
-11.75611
 10
5.677684
 20
-11.859175
 10
5.716246
 20
-11.967147
 10
5.747095
 20
-12.080729
 10
5.769531
 20
-12.19992
 10
5.782853
 20
-12.32472
 10
5.788462
 20
-12.455128
 10
5.788462
 20
-12.455128
 10
3.5
 20
-12.455128
 10
3.5
 20
-12.455128
 10
3.50631
 20
-12.55609
 10
3.520333
 20
-12.652845
 10
3.542768
 20
-12.744692
 10
3.573618
 20
-12.831631
 10
3.611478
 20
-12.913662
 10
3.657752
 20
-12.991486
 10
3.71244
 20
-13.064403
 10
3.77484
 20
-13.133113
 10
3.84355
 20
-13.194812
 10
3.915765
 20
-13.248798
 10
3.992188
 20
-13.294371
 10
4.072817
 20
-13.33153
 10
4.156951
 20
-13.360276
 10
4.245292
 20
-13.380609
 10
4.337139
 20
-13.393229
 10
4.433193
 20
-13.397436
 10
4.433193
 20
-13.397436
 10
4.527143
 20
-13.39393
 10
4.61899
 20
-13.382712
 10
4.710136
 20
-13.363782
 10
4.79988
 20
-13.337841
 10
4.886118
 20
-13.305589
 10
4.965345
 20
-13.267728
 10
5.03756
 20
-13.225661
 10
5.103466
 20
-13.178686
 10
5.167268
 20
-13.121895
 10
5.233874
 20
-13.048978
 10
5.303285
 20
-12.962039
 10
5.3748
 20
-12.858974
  0
LWPOLYLINE
  5
95
330
1F
100
AcDbEntity
  8
0
  6
Continuous
 62
     7
100
AcDbPolyline
 90
       33
 70
   128
 43
0.0
 10
5.474359
 20
-12.141026
 10
5.4372
 20
-12.016927
 10
5.391627
 20
-11.90615
 10
5.339042
 20
-11.808694
 10
5.278746
 20
-11.724559
 10
5.210036
 20
-11.65024
 10
5.130108
 20
-11.583634
 10
5.040365
 20
-11.52474
 10
4.940104
 20
-11.473558
 10
4.833534
 20
-11.43149
 10
4.723458
 20
-11.402043
 10
4.611278
 20
-11.383814
 10
4.496294
 20
-11.378205
 10
4.496294
 20
-11.378205
 10
4.402344
 20
-11.381711
 10
4.311198
 20
-11.392929
 10
4.223558
 20
-11.411859
 10
4.140124
 20
-11.4378
 10
4.058794
 20
-11.472155
 10
3.981671
 20
-11.512821
 10
3.908053
 20
-11.561899
 10
3.83724
 20
-11.617989
 10
3.83724
 20
-11.617989
 10
3.788161
 20
-11.664263
 10
3.742588
 20
-11.716146
 10
3.69982
 20
-11.772937
 10
3.660557
 20
-11.835337
 10
3.624099
 20
-11.904046
 10
3.590445
 20
-11.977664
 10
3.560296
 20
-12.05619
 10
3.532953
 20
-12.141026
 10
3.532953
 20
-12.141026
 10
5.474359
 20
-12.141026
  0
LWPOLYLINE
  5
96
330
1F
100
AcDbEntity
  8
0
  6
Continuous
 62
     7
100
AcDbPolyline
 90
       62
 70
   128
 43
0.0
 10
9.019226
 20
-11.108974
 10
9.019231
 20
-13.666667
 10
9.019231
 20
-13.666667
 10
8.705128
 20
-13.666667
 10
8.705128
 20
-13.666667
 10
8.705128
 20
-13.224259
 10
8.705128
 20
-13.224259
 10
8.596454
 20
-13.342047
 10
8.482171
 20
-13.443009
 10
8.360176
 20
-13.527143
 10
8.232572
 20
-13.594451
 10
8.098658
 20
-13.645633
 10
7.959135
 20
-13.682091
 10
7.8126
 20
-13.704527
 10
7.660457
 20
-13.711538
 10
7.660457
 20
-13.711538
 10
7.52514
 20
-13.705228
 10
7.394732
 20
-13.686999
 10
7.269231
 20
-13.656851
 10
7.148638
 20
-13.614784
 10
7.033654
 20
-13.560096
 10
6.922877
 20
-13.49349
 10
6.817708
 20
-13.414964
 10
6.717448
 20
-13.323818
 10
6.625601
 20
-13.224259
 10
6.546374
 20
-13.119792
 10
6.479768
 20
-13.009716
 10
6.424379
 20
-12.89403
 10
6.381611
 20
-12.773438
 10
6.351462
 20
-12.647937
 10
6.333233
 20
-12.516827
 10
6.326923
 20
-12.380809
 10
6.326923
 20
-12.380809
 10
6.333233
 20
-12.247596
 10
6.351462
 20
-12.11859
 10
6.382312
 20
-11.995192
 10
6.425781
 20
-11.876002
 10
6.48117
 20
-11.76242
 10
6.548478
 20
-11.653746
 10
6.628405
 20
-11.549279
 10
6.720954
 20
-11.450421
 10
6.821915
 20
-11.359976
 10
6.928486
 20
-11.28145
 10
7.039263
 20
-11.214844
 10
7.155649
 20
-11.160857
 10
7.276943
 20
-11.118089
 10
7.403145
 20
-11.087941
 10
7.534255
 20
-11.070413
 10
7.670272
 20
-11.064103
 10
7.670272
 20
-11.064103
 10
7.826623
 20
-11.071815
 10
7.97526
 20
-11.094952
 10
8.116186
 20
-11.134215
 10
8.249399
 20
-11.188201
 10
8.3749
 20
-11.259014
 10
8.493389
 20
-11.348758
 10
8.602764
 20
-11.45603
 10
8.705128
 20
-11.582232
 10
8.705128
 20
-11.582232
 10
8.705128
 20
-11.108974
 10
8.705128
 20
-11.108974
 10
9.019231
 20
-11.108974
  0
LWPOLYLINE
  5
97
330
1F
100
AcDbEntity
  8
0
  6
Continuous
 62
     7
100
AcDbPolyline
 90
       56
 70
   128
 43
0.0
 10
7.674478
 20
-11.378205
 10
7.537059
 20
-11.386619
 10
7.405248
 20
-11.411158
 10
7.279046
 20
-11.452524
 10
7.157752
 20
-11.510016
 10
7.045573
 20
-11.582232
 10
6.945312
 20
-11.66847
 10
6.856971
 20
-11.767328
 10
6.780549
 20
-11.880208
 10
6.719551
 20
-12.000801
 10
6.676082
 20
-12.125601
 10
6.649439
 20
-12.253205
 10
6.641026
 20
-12.384315
 10
6.641026
 20
-12.384315
 10
6.65014
 20
-12.514724
 10
6.676082
 20
-12.642328
 10
6.720252
 20
-12.767127
 10
6.781951
 20
-12.889123
 10
6.859075
 20
-13.002704
 10
6.947416
 20
-13.102965
 10
7.048377
 20
-13.189904
 10
7.161258
 20
-13.263522
 10
7.282552
 20
-13.322416
 10
7.408053
 20
-13.363782
 10
7.53776
 20
-13.389022
 10
7.671675
 20
-13.397436
 10
7.671675
 20
-13.397436
 10
7.807692
 20
-13.389022
 10
7.940204
 20
-13.364483
 10
8.06851
 20
-13.323117
 10
8.193309
 20
-13.264924
 10
8.308994
 20
-13.192708
 10
8.411358
 20
-13.108574
 10
8.498297
 20
-13.01252
 10
8.571915
 20
-12.905248
 10
8.630108
 20
-12.788161
 10
8.672175
 20
-12.663361
 10
8.696715
 20
-12.532252
 10
8.705128
 20
-12.393429
 10
8.705128
 20
-12.393429
 10
8.70022
 20
-12.28756
 10
8.686198
 20
-12.185897
 10
8.663061
 20
-12.088442
 10
8.630809
 20
-11.995893
 10
8.588742
 20
-11.907552
 10
8.53756
 20
-11.823417
 10
8.477264
 20
-11.744191
 10
8.407151
 20
-11.669171
 10
8.330729
 20
-11.601162
 10
8.2501
 20
-11.541567
 10
8.164563
 20
-11.491787
 10
8.075521
 20
-11.451122
 10
7.981571
 20
-11.41887
 10
7.883413
 20
-11.396434
 10
7.78105
 20
-11.382412
 10
7.674479
 20
-11.378205
  0
LWPOLYLINE
  5
98
330
1F
100
AcDbEntity
  8
0
  6
Continuous
 62
     7
100
AcDbPolyline
 90
       53
 70
   128
 43
0.0
 10
9.647429
 20
-11.108974
 10
9.961538
 20
-11.108974
 10
9.961538
 20
-11.108974
 10
9.961538
 20
-11.485477
 10
9.961538
 20
-11.485477
 10
10.033053
 20
-11.381711
 10
10.106671
 20
-11.293369
 10
10.181691
 20
-11.221154
 10
10.258814
 20
-11.163662
 10
10.338041
 20
-11.120192
 10
10.419371
 20
-11.088642
 10
10.501402
 20
-11.070413
 10
10.585537
 20
-11.064103
 10
10.585537
 20
-11.064103
 10
10.650741
 20
-11.069712
 10
10.718049
 20
-11.085837
 10
10.78746
 20
-11.113181
 10
10.858974
 20
-11.151743
 10
10.858974
 20
-11.151743
 10
10.686498
 20
-11.423778
 10
10.686498
 20
-11.423778
 10
10.640925
 20
-11.404147
 10
10.598858
 20
-11.389423
 10
10.560296
 20
-11.38101
 10
10.525942
 20
-11.378205
 10
10.525942
 20
-11.378205
 10
10.450921
 20
-11.386619
 10
10.376603
 20
-11.411859
 10
10.304387
 20
-11.453926
 10
10.232873
 20
-11.512821
 10
10.198518
 20
-11.548578
 10
10.166266
 20
-11.589243
 10
10.136819
 20
-11.634115
 10
10.108774
 20
-11.683894
 10
10.082833
 20
-11.738582
 10
10.058994
 20
-11.797476
 10
10.03726
 20
-11.861278
 10
10.017628
 20
-11.929287
 10
10.017628
 20
-11.929287
 10
10.004307
 20
-11.990284
 10
9.993089
 20
-12.065304
 10
9.983273
 20
-12.154347
 10
9.975561
 20
-12.257412
 10
9.969251
 20
-12.373798
 10
9.965044
 20
-12.504207
 10
9.96224
 20
-12.648638
 10
9.961538
 20
-12.807091
 10
9.961538
 20
-12.807091
 10
9.961538
 20
-13.666667
 10
9.961538
 20
-13.666667
 10
9.647436
 20
-13.666667
 10
9.647436
 20
-13.666667
 10
9.647436
 20
-11.108974
  0
LWPOLYLINE
  5
99
330
1F
100
AcDbEntity
  8
0
  6
Continuous
 62
     7
100
AcDbPolyline
 90
      106
 70
   128
 43
0.0
 10
12.743585
 20
-11.24359
 10
12.429487
 20
-11.24359
 10
12.429487
 20
-11.24359
 10
12.437901
 20
-11.11879
 10
12.45613
 20
-10.999599
 10
12.483474
 20
-10.886719
 10
12.521334
 20
-10.778746
 10
12.568309
 20
-10.677083
 10
12.6251
 20
-10.580329
 10
12.691707
 20
-10.489884
 10
12.768129
 20
-10.405048
 10
12.851562
 20
-10.327925
 10
12.940605
 20
-10.261318
 10
13.033854
 20
-10.205228
 10
13.13131
 20
-10.158954
 10
13.234375
 20
-10.123197
 10
13.341647
 20
-10.097256
 10
13.453826
 20
-10.081831
 10
13.570913
 20
-10.076923
 10
13.570913
 20
-10.076923
 10
13.685897
 20
-10.081831
 10
13.795974
 20
-10.096554
 10
13.89974
 20
-10.120393
 10
13.998598
 20
-10.154046
 10
14.091146
 20
-10.198217
 10
14.178085
 20
-10.251502
 10
14.260116
 20
-10.313902
 10
14.335837
 20
-10.386819
 10
14.404547
 20
-10.466046
 10
14.463442
 20
-10.548778
 10
14.513922
 20
-10.635016
 10
14.555288
 20
-10.724058
 10
14.586839
 20
-10.817308
 10
14.609976
 20
-10.914062
 10
14.623297
 20
-11.013622
 10
14.628205
 20
-11.117388
 10
14.628205
 20
-11.117388
 10
14.619091
 20
-11.263221
 10
14.591747
 20
-11.404147
 10
14.546875
 20
-11.540164
 10
14.483073
 20
-11.671975
 10
14.442408
 20
-11.739283
 10
14.393329
 20
-11.812901
 10
14.335837
 20
-11.892127
 10
14.269932
 20
-11.976262
 10
14.194912
 20
-12.067408
 10
14.112179
 20
-12.163462
 10
14.020333
 20
-12.265124
 10
13.920072
 20
-12.373097
 10
13.920072
 20
-12.373097
 10
13.044371
 20
-13.307692
 10
13.044371
 20
-13.307692
 10
14.673077
 20
-13.307692
 10
14.673077
 20
-13.307692
 10
14.673077
 20
-13.666667
 10
14.673077
 20
-13.666667
 10
12.294872
 20
-13.666667
 10
12.294872
 20
-13.666667
 10
13.652244
 20
-12.218149
 10
13.652244
 20
-12.218149
 10
13.751102
 20
-12.114383
 10
13.840845
 20
-12.017628
 10
13.921474
 20
-11.927885
 10
13.992989
 20
-11.845152
 10
14.055389
 20
-11.76873
 10
14.109375
 20
-11.70002
 10
14.153546
 20
-11.63762
 10
14.189303
 20
-11.582232
 10
14.24399
 20
-11.477063
 10
14.283253
 20
-11.369091
 10
14.30639
 20
-11.259014
 10
14.314103
 20
-11.145433
 10
14.314103
 20
-11.145433
 10
14.310597
 20
-11.073918
 10
14.30008
 20
-11.005208
 10
14.283253
 20
-10.939303
 10
14.259415
 20
-10.875501
 10
14.227865
 20
-10.813802
 10
14.190004
 20
-10.755609
 10
14.145833
 20
-10.699519
 10
14.09395
 20
-10.645533
 10
14.037159
 20
-10.596454
 10
13.977564
 20
-10.553686
 10
13.915164
 20
-10.517929
 10
13.849259
 20
-10.488482
 10
13.779848
 20
-10.465345
 10
13.708333
 20
-10.449219
 10
13.633313
 20
-10.439403
 10
13.554788
 20
-10.435897
 10
13.554788
 20
-10.435897
 10
13.472756
 20
-10.439403
 10
13.394231
 20
-10.449219
 10
13.319211
 20
-10.466046
 10
13.247696
 20
-10.489183
 10
13.179688
 20
-10.51863
 10
13.115184
 20
-10.555088
 10
13.054187
 20
-10.598558
 10
12.996695
 20
-10.648337
 10
12.944111
 20
-10.703726
 10
12.897837
 20
-10.764724
 10
12.857171
 20
-10.83133
 10
12.822115
 20
-10.902845
 10
12.793369
 20
-10.979968
 10
12.770933
 20
-11.0627
 10
12.754107
 20
-11.150341
 10
12.74359
 20
-11.24359
  0
LWPOLYLINE
  5
9A
330
1F
100
AcDbEntity
  8
0
  6
Continuous
 62
     7
100
AcDbPolyline
 90
      100
 70
   128
 43
0.0
 10
14.987178
 20
-11.918069
 10
14.989283
 20
-11.7498
 10
14.996294
 20
-11.591346
 10
15.008213
 20
-11.442007
 10
15.024339
 20
-11.303185
 10
15.044671
 20
-11.174179
 10
15.070613
 20
-11.054988
 10
15.100761
 20
-10.945613
 10
15.135116
 20
-10.846054
 10
15.173678
 20
-10.754207
 10
15.216446
 20
-10.667969
 10
15.263421
 20
-10.588041
 10
15.313902
 20
-10.513021
 10
15.367889
 20
-10.444311
 10
15.425381
 20
-10.38121
 10
15.487079
 20
-10.324419
 10
15.552985
 20
-10.272536
 10
15.621695
 20
-10.226963
 10
15.692508
 20
-10.186999
 10
15.764724
 20
-10.153345
 10
15.839744
 20
-10.126002
 10
15.916166
 20
-10.104267
 10
15.994692
 20
-10.088842
 10
16.074619
 20
-10.079728
 10
16.157352
 20
-10.076923
 10
16.157352
 20
-10.076923
 10
16.240785
 20
-10.079728
 10
16.322817
 20
-10.088842
 10
16.402043
 20
-10.104267
 10
16.479868
 20
-10.126002
 10
16.555589
 20
-10.153345
 10
16.629207
 20
-10.186999
 10
16.701422
 20
-10.226963
 10
16.770833
 20
-10.273237
 10
16.83744
 20
-10.32512
 10
16.901242
 20
-10.384014
 10
16.960837
 20
-10.448518
 10
17.016927
 20
-10.51863
 10
17.069511
 20
-10.595753
 10
17.11859
 20
-10.678486
 10
17.163462
 20
-10.767528
 10
17.205529
 20
-10.862881
 10
17.242688
 20
-10.965244
 10
17.275641
 20
-11.076022
 10
17.302985
 20
-11.195212
 10
17.325421
 20
-11.322817
 10
17.342949
 20
-11.458834
 10
17.355569
 20
-11.603966
 10
17.36258
 20
-11.756811
 10
17.365385
 20
-11.918069
 10
17.365385
 20
-11.918069
 10
17.36258
 20
-12.078626
 10
17.355569
 20
-12.230769
 10
17.342949
 20
-12.3752
 10
17.326122
 20
-12.510517
 10
17.303686
 20
-12.63742
 10
17.276342
 20
-12.755909
 10
17.244792
 20
-12.866687
 10
17.207632
 20
-12.968349
 10
17.166266
 20
-13.063001
 10
17.121394
 20
-13.151342
 10
17.073017
 20
-13.234075
 10
17.020433
 20
-13.311198
 10
16.964343
 20
-13.382011
 10
16.904046
 20
-13.446514
 10
16.840244
 20
-13.505409
 10
16.772937
 20
-13.557993
 10
16.702825
 20
-13.604267
 10
16.630609
 20
-13.644932
 10
16.55629
 20
-13.678586
 10
16.480569
 20
-13.706631
 10
16.402744
 20
-13.728365
 10
16.322817
 20
-13.74379
 10
16.240785
 20
-13.753606
 10
16.157352
 20
-13.75641
 10
16.157352
 20
-13.75641
 10
16.074619
 20
-13.753606
 10
15.994692
 20
-13.744491
 10
15.916166
 20
-13.729067
 10
15.840445
 20
-13.708033
 10
15.766126
 20
-13.68139
 10
15.69391
 20
-13.647736
 10
15.623798
 20
-13.608474
 10
15.555789
 20
-13.563602
 10
15.490585
 20
-13.51242
 10
15.428886
 20
-13.455629
 10
15.371394
 20
-13.392528
 10
15.317408
 20
-13.323117
 10
15.266927
 20
-13.248798
 10
15.219952
 20
-13.168169
 10
15.176482
 20
-13.08123
 10
15.13722
 20
-12.988682
 10
15.102163
 20
-12.888421
 10
15.071314
 20
-12.778345
 10
15.046074
 20
-12.658454
 10
15.02504
 20
-12.529447
 10
15.008213
 20
-12.391326
 10
14.996294
 20
-12.242688
 10
14.989283
 20
-12.084936
 10
14.987179
 20
-11.918069
  0
LWPOLYLINE
  5
9B
330
1F
100
AcDbEntity
  8
0
  6
Continuous
 62
     7
100
AcDbPolyline
 90
       85
 70
   128
 43
0.0
 10
15.30128
 20
-11.916667
 10
15.302684
 20
-12.056891
 10
15.308293
 20
-12.188702
 10
15.316707
 20
-12.312099
 10
15.327925
 20
-12.425681
 10
15.343349
 20
-12.530849
 10
15.361579
 20
-12.627604
 10
15.383313
 20
-12.715244
 10
15.408554
 20
-12.79377
 10
15.4373
 20
-12.865986
 10
15.46885
 20
-12.933293
 10
15.503205
 20
-12.996394
 10
15.541066
 20
-13.054587
 10
15.582432
 20
-13.108574
 10
15.626603
 20
-13.158353
 10
15.674279
 20
-13.203225
 10
15.72476
 20
-13.24389
 10
15.83133
 20
-13.311198
 10
15.940705
 20
-13.358874
 10
16.052885
 20
-13.38762
 10
16.167869
 20
-13.397436
 10
16.167869
 20
-13.397436
 10
16.283554
 20
-13.388321
 10
16.395733
 20
-13.359575
 10
16.503706
 20
-13.313301
 10
16.608173
 20
-13.247396
 10
16.657953
 20
-13.207432
 10
16.704227
 20
-13.163261
 10
16.747696
 20
-13.113482
 10
16.788361
 20
-13.059495
 10
16.825521
 20
-13.001302
 10
16.859876
 20
-12.9375
 10
16.890725
 20
-12.869491
 10
16.91877
 20
-12.796575
 10
16.91877
 20
-12.796575
 10
16.949619
 20
-12.702624
 10
16.976963
 20
-12.604467
 10
16.999399
 20
-12.501402
 10
17.018329
 20
-12.394131
 10
17.032352
 20
-12.281951
 10
17.042869
 20
-12.164864
 10
17.049179
 20
-12.042869
 10
17.051282
 20
-11.916667
 10
17.051282
 20
-11.916667
 10
17.049179
 20
-11.790465
 10
17.044271
 20
-11.669872
 10
17.034455
 20
-11.555589
 10
17.021835
 20
-11.446915
 10
17.005008
 20
-11.34385
 10
16.985377
 20
-11.247095
 10
16.960837
 20
-11.15595
 10
16.933494
 20
-11.070413
 10
16.902644
 20
-10.990485
 10
16.86899
 20
-10.916867
 10
16.832532
 20
-10.848157
 10
16.793269
 20
-10.785056
 10
16.751202
 20
-10.727564
 10
16.705629
 20
-10.675681
 10
16.657953
 20
-10.629407
 10
16.607472
 20
-10.588742
 10
16.501603
 20
-10.522135
 10
16.39363
 20
-10.473758
 10
16.282151
 20
-10.445713
 10
16.167869
 20
-10.435897
 10
16.167869
 20
-10.435897
 10
16.052183
 20
-10.445713
 10
15.939303
 20
-10.473758
 10
15.830629
 20
-10.522135
 10
15.72476
 20
-10.588742
 10
15.674279
 20
-10.628706
 10
15.627304
 20
-10.673578
 10
15.583133
 20
-10.723357
 10
15.542468
 20
-10.777344
 10
15.504607
 20
-10.835537
 10
15.469551
 20
-10.898638
 10
15.438001
 20
-10.965946
 10
15.409255
 20
-11.038161
 10
15.384014
 20
-11.116687
 10
15.36228
 20
-11.204327
 10
15.343349
 20
-11.300381
 10
15.328626
 20
-11.40625
 10
15.316707
 20
-11.520533
 10
15.308293
 20
-11.643229
 10
15.302684
 20
-11.775741
 10
15.301282
 20
-11.916667
  0
LWPOLYLINE
  5
9C
330
1F
100
AcDbEntity
  8
0
  6
Continuous
 62
     7
100
AcDbPolyline
 90
      106
 70
   128
 43
0.0
 10
18.128201
 20
-11.24359
 10
17.814103
 20
-11.24359
 10
17.814103
 20
-11.24359
 10
17.822516
 20
-11.11879
 10
17.840745
 20
-10.999599
 10
17.868089
 20
-10.886719
 10
17.90595
 20
-10.778746
 10
17.952925
 20
-10.677083
 10
18.009716
 20
-10.580329
 10
18.076322
 20
-10.489884
 10
18.152744
 20
-10.405048
 10
18.236178
 20
-10.327925
 10
18.32522
 20
-10.261318
 10
18.41847
 20
-10.205228
 10
18.515925
 20
-10.158954
 10
18.61899
 20
-10.123197
 10
18.726262
 20
-10.097256
 10
18.838442
 20
-10.081831
 10
18.955529
 20
-10.076923
 10
18.955529
 20
-10.076923
 10
19.070513
 20
-10.081831
 10
19.180589
 20
-10.096554
 10
19.284355
 20
-10.120393
 10
19.383213
 20
-10.154046
 10
19.475761
 20
-10.198217
 10
19.5627
 20
-10.251502
 10
19.644732
 20
-10.313902
 10
19.720453
 20
-10.386819
 10
19.789163
 20
-10.466046
 10
19.848057
 20
-10.548778
 10
19.898538
 20
-10.635016
 10
19.939904
 20
-10.724058
 10
19.971454
 20
-10.817308
 10
19.994591
 20
-10.914062
 10
20.007913
 20
-11.013622
 10
20.012821
 20
-11.117388
 10
20.012821
 20
-11.117388
 10
20.003706
 20
-11.263221
 10
19.976362
 20
-11.404147
 10
19.93149
 20
-11.540164
 10
19.867688
 20
-11.671975
 10
19.827023
 20
-11.739283
 10
19.777945
 20
-11.812901
 10
19.720453
 20
-11.892127
 10
19.654547
 20
-11.976262
 10
19.579527
 20
-12.067408
 10
19.496795
 20
-12.163462
 10
19.404948
 20
-12.265124
 10
19.304688
 20
-12.373097
 10
19.304688
 20
-12.373097
 10
18.428986
 20
-13.307692
 10
18.428986
 20
-13.307692
 10
20.057692
 20
-13.307692
 10
20.057692
 20
-13.307692
 10
20.057692
 20
-13.666667
 10
20.057692
 20
-13.666667
 10
17.679487
 20
-13.666667
 10
17.679487
 20
-13.666667
 10
19.036859
 20
-12.218149
 10
19.036859
 20
-12.218149
 10
19.135717
 20
-12.114383
 10
19.225461
 20
-12.017628
 10
19.30609
 20
-11.927885
 10
19.377604
 20
-11.845152
 10
19.440004
 20
-11.76873
 10
19.49399
 20
-11.70002
 10
19.538161
 20
-11.63762
 10
19.573918
 20
-11.582232
 10
19.628606
 20
-11.477063
 10
19.667869
 20
-11.369091
 10
19.691006
 20
-11.259014
 10
19.698718
 20
-11.145433
 10
19.698718
 20
-11.145433
 10
19.695212
 20
-11.073918
 10
19.684696
 20
-11.005208
 10
19.667869
 20
-10.939303
 10
19.64403
 20
-10.875501
 10
19.61248
 20
-10.813802
 10
19.574619
 20
-10.755609
 10
19.530449
 20
-10.699519
 10
19.478566
 20
-10.645533
 10
19.421775
 20
-10.596454
 10
19.362179
 20
-10.553686
 10
19.29978
 20
-10.517929
 10
19.233874
 20
-10.488482
 10
19.164463
 20
-10.465345
 10
19.092949
 20
-10.449219
 10
19.017929
 20
-10.439403
 10
18.939403
 20
-10.435897
 10
18.939403
 20
-10.435897
 10
18.857372
 20
-10.439403
 10
18.778846
 20
-10.449219
 10
18.703826
 20
-10.466046
 10
18.632312
 20
-10.489183
 10
18.564303
 20
-10.51863
 10
18.4998
 20
-10.555088
 10
18.438802
 20
-10.598558
 10
18.38131
 20
-10.648337
 10
18.328726
 20
-10.703726
 10
18.282452
 20
-10.764724
 10
18.241787
 20
-10.83133
 10
18.206731
 20
-10.902845
 10
18.177985
 20
-10.979968
 10
18.155549
 20
-11.0627
 10
18.138722
 20
-11.150341
 10
18.128205
 20
-11.24359
  0
LWPOLYLINE
  5
9D
330
1F
100
AcDbEntity
  8
0
  6
Continuous
 62
     7
100
AcDbPolyline
 90
      106
 70
   128
 43
0.0
 10
20.820498
 20
-11.24359
 10
20.50641
 20
-11.24359
 10
20.50641
 20
-11.24359
 10
20.514824
 20
-11.11879
 10
20.533053
 20
-10.999599
 10
20.560397
 20
-10.886719
 10
20.598257
 20
-10.778746
 10
20.645232
 20
-10.677083
 10
20.702023
 20
-10.580329
 10
20.76863
 20
-10.489884
 10
20.845052
 20
-10.405048
 10
20.928486
 20
-10.327925
 10
21.017528
 20
-10.261318
 10
21.110777
 20
-10.205228
 10
21.208233
 20
-10.158954
 10
21.311298
 20
-10.123197
 10
21.41857
 20
-10.097256
 10
21.530749
 20
-10.081831
 10
21.647837
 20
-10.076923
 10
21.647837
 20
-10.076923
 10
21.762821
 20
-10.081831
 10
21.872897
 20
-10.096554
 10
21.976663
 20
-10.120393
 10
22.075521
 20
-10.154046
 10
22.168069
 20
-10.198217
 10
22.255008
 20
-10.251502
 10
22.337039
 20
-10.313902
 10
22.41276
 20
-10.386819
 10
22.48147
 20
-10.466046
 10
22.540365
 20
-10.548778
 10
22.590845
 20
-10.635016
 10
22.632212
 20
-10.724058
 10
22.663762
 20
-10.817308
 10
22.686899
 20
-10.914062
 10
22.70022
 20
-11.013622
 10
22.705128
 20
-11.117388
 10
22.705128
 20
-11.117388
 10
22.696014
 20
-11.263221
 10
22.66867
 20
-11.404147
 10
22.623798
 20
-11.540164
 10
22.559996
 20
-11.671975
 10
22.519331
 20
-11.739283
 10
22.470252
 20
-11.812901
 10
22.41276
 20
-11.892127
 10
22.346855
 20
-11.976262
 10
22.271835
 20
-12.067408
 10
22.189103
 20
-12.163462
 10
22.097256
 20
-12.265124
 10
21.996995
 20
-12.373097
 10
21.996995
 20
-12.373097
 10
21.121294
 20
-13.307692
 10
21.121294
 20
-13.307692
 10
22.75
 20
-13.307692
 10
22.75
 20
-13.307692
 10
22.75
 20
-13.666667
 10
22.75
 20
-13.666667
 10
20.371795
 20
-13.666667
 10
20.371795
 20
-13.666667
 10
21.729167
 20
-12.218149
 10
21.729167
 20
-12.218149
 10
21.828025
 20
-12.114383
 10
21.917768
 20
-12.017628
 10
21.998397
 20
-11.927885
 10
22.069912
 20
-11.845152
 10
22.132312
 20
-11.76873
 10
22.186298
 20
-11.70002
 10
22.230469
 20
-11.63762
 10
22.266226
 20
-11.582232
 10
22.320913
 20
-11.477063
 10
22.360176
 20
-11.369091
 10
22.383313
 20
-11.259014
 10
22.391026
 20
-11.145433
 10
22.391026
 20
-11.145433
 10
22.38752
 20
-11.073918
 10
22.377003
 20
-11.005208
 10
22.360176
 20
-10.939303
 10
22.336338
 20
-10.875501
 10
22.304788
 20
-10.813802
 10
22.266927
 20
-10.755609
 10
22.222756
 20
-10.699519
 10
22.170873
 20
-10.645533
 10
22.114083
 20
-10.596454
 10
22.054487
 20
-10.553686
 10
21.992087
 20
-10.517929
 10
21.926182
 20
-10.488482
 10
21.856771
 20
-10.465345
 10
21.785256
 20
-10.449219
 10
21.710236
 20
-10.439403
 10
21.631711
 20
-10.435897
 10
21.631711
 20
-10.435897
 10
21.549679
 20
-10.439403
 10
21.471154
 20
-10.449219
 10
21.396134
 20
-10.466046
 10
21.324619
 20
-10.489183
 10
21.256611
 20
-10.51863
 10
21.192107
 20
-10.555088
 10
21.13111
 20
-10.598558
 10
21.073618
 20
-10.648337
 10
21.021034
 20
-10.703726
 10
20.97476
 20
-10.764724
 10
20.934095
 20
-10.83133
 10
20.899038
 20
-10.902845
 10
20.870292
 20
-10.979968
 10
20.847857
 20
-11.0627
 10
20.83103
 20
-11.150341
 10
20.820513
 20
-11.24359
  0
LWPOLYLINE
  5
9E
330
1F
100
AcDbEntity
  8
0
  6
Continuous
 62
     7
100
AcDbPolyline
 90
       12
 70
   128
 43
0.0
 10
0.448718
 20
-17.0
 10
0.762821
 20
-17.0
 10
0.762821
 20
-17.0
 10
0.762821
 20
-20.141026
 10
0.762821
 20
-20.141026
 10
2.108974
 20
-20.141026
 10
2.108974
 20
-20.141026
 10
2.108974
 20
-20.5
 10
2.108974
 20
-20.5
 10
0.448718
 20
-20.5
 10
0.448718
 20
-20.5
 10
0.448718
 20
-17.0
  0
LWPOLYLINE
  5
9F
330
1F
100
AcDbEntity
  8
0
  6
Continuous
 62
     7
100
AcDbPolyline
 90
       36
 70
   128
 43
0.0
 10
2.713341
 20
-16.865385
 10
2.771534
 20
-16.870292
 10
2.825521
 20
-16.885016
 10
2.8753
 20
-16.910256
 10
2.920172
 20
-16.944611
 10
2.958033
 20
-16.985978
 10
2.984675
 20
-17.032252
 10
3.000801
 20
-17.082031
 10
3.00641
 20
-17.136018
 10
3.00641
 20
-17.136018
 10
3.000801
 20
-17.188602
 10
2.984675
 20
-17.23768
 10
2.958033
 20
-17.283253
 10
2.920172
 20
-17.324619
 10
2.8753
 20
-17.358974
 10
2.825521
 20
-17.384215
 10
2.771534
 20
-17.398938
 10
2.713341
 20
-17.403846
 10
2.713341
 20
-17.403846
 10
2.655849
 20
-17.398938
 10
2.603265
 20
-17.384215
 10
2.553486
 20
-17.358974
 10
2.508614
 20
-17.324619
 10
2.471454
 20
-17.283253
 10
2.444812
 20
-17.23768
 10
2.428686
 20
-17.188602
 10
2.423077
 20
-17.136018
 10
2.423077
 20
-17.136018
 10
2.428686
 20
-17.082031
 10
2.444812
 20
-17.032252
 10
2.471454
 20
-16.985978
 10
2.508614
 20
-16.944611
 10
2.553486
 20
-16.910256
 10
2.603265
 20
-16.885016
 10
2.655849
 20
-16.870292
 10
2.713341
 20
-16.865385
  0
LWPOLYLINE
  5
A0
330
1F
100
AcDbEntity
  8
0
  6
Continuous
 62
     7
100
AcDbPolyline
 90
        8
 70
   128
 43
0.0
 10
2.557691
 20
-17.942308
 10
2.871795
 20
-17.942308
 10
2.871795
 20
-17.942308
 10
2.871795
 20
-20.5
 10
2.871795
 20
-20.5
 10
2.557692
 20
-20.5
 10
2.557692
 20
-20.5
 10
2.557692
 20
-17.942308
  0
LWPOLYLINE
  5
A1
330
1F
100
AcDbEntity
  8
0
  6
Continuous
 62
     7
100
AcDbPolyline
 90
       14
 70
   128
 43
0.0
 10
3.365384
 20
-17.942308
 10
3.705429
 20
-17.942308
 10
3.705429
 20
-17.942308
 10
4.554487
 20
-19.804487
 10
4.554487
 20
-19.804487
 10
5.403546
 20
-17.942308
 10
5.403546
 20
-17.942308
 10
5.74359
 20
-17.942308
 10
5.74359
 20
-17.942308
 10
4.576923
 20
-20.5
 10
4.576923
 20
-20.5
 10
4.532051
 20
-20.5
 10
4.532051
 20
-20.5
 10
3.365385
 20
-17.942308
  0
LWPOLYLINE
  5
A2
330
1F
100
AcDbEntity
  8
0
  6
Continuous
 62
     7
100
AcDbPolyline
 90
      100
 70
   128
 43
0.0
 10
8.381203
 20
-19.692308
 10
8.660256
 20
-19.838842
 10
8.660256
 20
-19.838842
 10
8.591546
 20
-19.955929
 10
8.517929
 20
-20.061098
 10
8.439403
 20
-20.155048
 10
8.355268
 20
-20.236378
 10
8.266226
 20
-20.307192
 10
8.172276
 20
-20.36889
 10
8.072015
 20
-20.422175
 10
7.966847
 20
-20.466346
 10
7.855369
 20
-20.500701
 10
7.736879
 20
-20.52524
 10
7.611378
 20
-20.539964
 10
7.478866
 20
-20.544872
 10
7.478866
 20
-20.544872
 10
7.331631
 20
-20.538562
 10
7.192808
 20
-20.519631
 10
7.0624
 20
-20.488081
 10
6.939704
 20
-20.44391
 10
6.826122
 20
-20.387119
 10
6.720252
 20
-20.317708
 10
6.622095
 20
-20.235677
 10
6.533053
 20
-20.141026
 10
6.453125
 20
-20.038662
 10
6.383714
 20
-19.932792
 10
6.325521
 20
-19.823417
 10
6.277845
 20
-19.710537
 10
6.239984
 20
-19.594852
 10
6.213341
 20
-19.476362
 10
6.197917
 20
-19.353666
 10
6.192308
 20
-19.228165
 10
6.192308
 20
-19.228165
 10
6.197216
 20
-19.110377
 10
6.210537
 20
-18.995393
 10
6.233674
 20
-18.883914
 10
6.265925
 20
-18.77524
 10
6.307292
 20
-18.670072
 10
6.357772
 20
-18.568409
 10
6.418069
 20
-18.469551
 10
6.486779
 20
-18.374199
 10
6.486779
 20
-18.374199
 10
6.584235
 20
-18.26272
 10
6.689403
 20
-18.165264
 10
6.802284
 20
-18.083934
 10
6.923578
 20
-18.016627
 10
7.052584
 20
-17.964744
 10
7.189303
 20
-17.926883
 10
7.333734
 20
-17.905148
 10
7.486579
 20
-17.897436
 10
7.486579
 20
-17.897436
 10
7.64363
 20
-17.905148
 10
7.792969
 20
-17.928986
 10
7.933894
 20
-17.968249
 10
8.066406
 20
-18.022937
 10
8.191206
 20
-18.09375
 10
8.307592
 20
-18.180689
 10
8.416266
 20
-18.283053
 10
8.516526
 20
-18.400841
 10
8.516526
 20
-18.400841
 10
8.58103
 20
-18.492688
 10
8.636418
 20
-18.589443
 10
8.684095
 20
-18.692508
 10
8.722656
 20
-18.800481
 10
8.753506
 20
-18.914062
 10
8.775942
 20
-19.033253
 10
8.789263
 20
-19.158053
 10
8.794872
 20
-19.288462
 10
8.794872
 20
-19.288462
 10
6.50641
 20
-19.288462
 10
6.50641
 20
-19.288462
 10
6.51272
 20
-19.389423
 10
6.526743
 20
-19.486178
 10
6.549179
 20
-19.578025
 10
6.580028
 20
-19.664964
 10
6.617889
 20
-19.746995
 10
6.664163
 20
-19.82482
 10
6.71885
 20
-19.897736
 10
6.78125
 20
-19.966446
 10
6.84996
 20
-20.028145
 10
6.922175
 20
-20.082131
 10
6.998598
 20
-20.127704
 10
7.079227
 20
-20.164864
 10
7.163361
 20
-20.19361
 10
7.251703
 20
-20.213942
 10
7.34355
 20
-20.226562
 10
7.439603
 20
-20.230769
 10
7.439603
 20
-20.230769
 10
7.533554
 20
-20.227264
 10
7.625401
 20
-20.216046
 10
7.716546
 20
-20.197115
 10
7.80629
 20
-20.171174
 10
7.892528
 20
-20.138922
 10
7.971755
 20
-20.101062
 10
8.04397
 20
-20.058994
 10
8.109876
 20
-20.012019
 10
8.173678
 20
-19.955228
 10
8.240284
 20
-19.882312
 10
8.309696
 20
-19.795373
 10
8.38121
 20
-19.692308
  0
LWPOLYLINE
  5
A3
330
1F
100
AcDbEntity
  8
0
  6
Continuous
 62
     7
100
AcDbPolyline
 90
       33
 70
   128
 43
0.0
 10
8.480765
 20
-18.974359
 10
8.44361
 20
-18.85026
 10
8.398037
 20
-18.739483
 10
8.345453
 20
-18.642027
 10
8.285156
 20
-18.557893
 10
8.216446
 20
-18.483574
 10
8.136518
 20
-18.416967
 10
8.046775
 20
-18.358073
 10
7.946514
 20
-18.306891
 10
7.839944
 20
-18.264824
 10
7.729868
 20
-18.235377
 10
7.617688
 20
-18.217147
 10
7.502704
 20
-18.211538
 10
7.502704
 20
-18.211538
 10
7.408754
 20
-18.215044
 10
7.317608
 20
-18.226262
 10
7.229968
 20
-18.245192
 10
7.146534
 20
-18.271134
 10
7.065204
 20
-18.305489
 10
6.988081
 20
-18.346154
 10
6.914463
 20
-18.395232
 10
6.84365
 20
-18.451322
 10
6.84365
 20
-18.451322
 10
6.794571
 20
-18.497596
 10
6.748998
 20
-18.549479
 10
6.70623
 20
-18.60627
 10
6.666967
 20
-18.66867
 10
6.630509
 20
-18.73738
 10
6.596855
 20
-18.810998
 10
6.566707
 20
-18.889523
 10
6.539363
 20
-18.974359
 10
6.539363
 20
-18.974359
 10
8.480769
 20
-18.974359
  0
LWPOLYLINE
  5
A4
330
1F
100
AcDbEntity
  8
0
  6
Continuous
 62
     7
100
AcDbPolyline
 90
       26
 70
   128
 43
0.0
 10
10.634609
 20
-17.0
 10
10.959235
 20
-17.0
 10
10.959235
 20
-17.0
 10
11.644231
 20
-19.566807
 10
11.644231
 20
-19.566807
 10
12.662961
 20
-17.0
 10
12.662961
 20
-17.0
 10
12.708534
 20
-17.0
 10
12.708534
 20
-17.0
 10
13.708333
 20
-19.549279
 10
13.708333
 20
-19.549279
 10
14.396835
 20
-17.0
 10
14.396835
 20
-17.0
 10
14.717949
 20
-17.0
 10
14.717949
 20
-17.0
 10
13.774239
 20
-20.5
 10
13.774239
 20
-20.5
 10
13.729367
 20
-20.5
 10
13.729367
 20
-20.5
 10
12.676282
 20
-17.823117
 10
12.676282
 20
-17.823117
 10
11.610577
 20
-20.5
 10
11.610577
 20
-20.5
 10
11.565705
 20
-20.5
 10
11.565705
 20
-20.5
 10
10.634615
 20
-17.0
  0
LWPOLYLINE
  5
A5
330
1F
100
AcDbEntity
  8
0
  6
Continuous
 62
     7
100
AcDbPolyline
 90
      100
 70
   128
 43
0.0
 10
17.355561
 20
-19.692308
 10
17.634615
 20
-19.838842
 10
17.634615
 20
-19.838842
 10
17.565905
 20
-19.955929
 10
17.492288
 20
-20.061098
 10
17.413762
 20
-20.155048
 10
17.329627
 20
-20.236378
 10
17.240585
 20
-20.307192
 10
17.146635
 20
-20.36889
 10
17.046374
 20
-20.422175
 10
16.941206
 20
-20.466346
 10
16.829728
 20
-20.500701
 10
16.711238
 20
-20.52524
 10
16.585737
 20
-20.539964
 10
16.453225
 20
-20.544872
 10
16.453225
 20
-20.544872
 10
16.30599
 20
-20.538562
 10
16.167167
 20
-20.519631
 10
16.036759
 20
-20.488081
 10
15.914062
 20
-20.44391
 10
15.800481
 20
-20.387119
 10
15.694611
 20
-20.317708
 10
15.596454
 20
-20.235677
 10
15.507412
 20
-20.141026
 10
15.427484
 20
-20.038662
 10
15.358073
 20
-19.932792
 10
15.29988
 20
-19.823417
 10
15.252204
 20
-19.710537
 10
15.214343
 20
-19.594852
 10
15.1877
 20
-19.476362
 10
15.172276
 20
-19.353666
 10
15.166667
 20
-19.228165
 10
15.166667
 20
-19.228165
 10
15.171575
 20
-19.110377
 10
15.184896
 20
-18.995393
 10
15.208033
 20
-18.883914
 10
15.240284
 20
-18.77524
 10
15.281651
 20
-18.670072
 10
15.332131
 20
-18.568409
 10
15.392428
 20
-18.469551
 10
15.461138
 20
-18.374199
 10
15.461138
 20
-18.374199
 10
15.558594
 20
-18.26272
 10
15.663762
 20
-18.165264
 10
15.776643
 20
-18.083934
 10
15.897937
 20
-18.016627
 10
16.026943
 20
-17.964744
 10
16.163662
 20
-17.926883
 10
16.308093
 20
-17.905148
 10
16.460938
 20
-17.897436
 10
16.460938
 20
-17.897436
 10
16.617989
 20
-17.905148
 10
16.767328
 20
-17.928986
 10
16.908253
 20
-17.968249
 10
17.040765
 20
-18.022937
 10
17.165565
 20
-18.09375
 10
17.281951
 20
-18.180689
 10
17.390625
 20
-18.283053
 10
17.490885
 20
-18.400841
 10
17.490885
 20
-18.400841
 10
17.555389
 20
-18.492688
 10
17.610777
 20
-18.589443
 10
17.658454
 20
-18.692508
 10
17.697015
 20
-18.800481
 10
17.727865
 20
-18.914062
 10
17.7503
 20
-19.033253
 10
17.763622
 20
-19.158053
 10
17.769231
 20
-19.288462
 10
17.769231
 20
-19.288462
 10
15.480769
 20
-19.288462
 10
15.480769
 20
-19.288462
 10
15.487079
 20
-19.389423
 10
15.501102
 20
-19.486178
 10
15.523538
 20
-19.578025
 10
15.554387
 20
-19.664964
 10
15.592248
 20
-19.746995
 10
15.638522
 20
-19.82482
 10
15.693209
 20
-19.897736
 10
15.755609
 20
-19.966446
 10
15.824319
 20
-20.028145
 10
15.896534
 20
-20.082131
 10
15.972957
 20
-20.127704
 10
16.053586
 20
-20.164864
 10
16.13772
 20
-20.19361
 10
16.226062
 20
-20.213942
 10
16.317909
 20
-20.226562
 10
16.413962
 20
-20.230769
 10
16.413962
 20
-20.230769
 10
16.507913
 20
-20.227264
 10
16.59976
 20
-20.216046
 10
16.690905
 20
-20.197115
 10
16.780649
 20
-20.171174
 10
16.866887
 20
-20.138922
 10
16.946114
 20
-20.101062
 10
17.018329
 20
-20.058994
 10
17.084235
 20
-20.012019
 10
17.148037
 20
-19.955228
 10
17.214643
 20
-19.882312
 10
17.284054
 20
-19.795373
 10
17.355569
 20
-19.692308
  0
LWPOLYLINE
  5
A6
330
1F
100
AcDbEntity
  8
0
  6
Continuous
 62
     7
100
AcDbPolyline
 90
       33
 70
   128
 43
0.0
 10
17.455116
 20
-18.974359
 10
17.417969
 20
-18.85026
 10
17.372396
 20
-18.739483
 10
17.319812
 20
-18.642027
 10
17.259515
 20
-18.557893
 10
17.190805
 20
-18.483574
 10
17.110877
 20
-18.416967
 10
17.021134
 20
-18.358073
 10
16.920873
 20
-18.306891
 10
16.814303
 20
-18.264824
 10
16.704227
 20
-18.235377
 10
16.592047
 20
-18.217147
 10
16.477063
 20
-18.211538
 10
16.477063
 20
-18.211538
 10
16.383113
 20
-18.215044
 10
16.291967
 20
-18.226262
 10
16.204327
 20
-18.245192
 10
16.120893
 20
-18.271134
 10
16.039563
 20
-18.305489
 10
15.96244
 20
-18.346154
 10
15.888822
 20
-18.395232
 10
15.818009
 20
-18.451322
 10
15.818009
 20
-18.451322
 10
15.76893
 20
-18.497596
 10
15.723357
 20
-18.549479
 10
15.680589
 20
-18.60627
 10
15.641326
 20
-18.66867
 10
15.604868
 20
-18.73738
 10
15.571214
 20
-18.810998
 10
15.541066
 20
-18.889523
 10
15.513722
 20
-18.974359
 10
15.513722
 20
-18.974359
 10
17.455128
 20
-18.974359
  0
LWPOLYLINE
  5
A7
330
1F
100
AcDbEntity
  8
0
  6
Continuous
 62
     7
100
AcDbPolyline
 90
        8
 70
   128
 43
0.0
 10
18.352553
 20
-16.910256
 10
18.666667
 20
-16.910256
 10
18.666667
 20
-16.910256
 10
18.666667
 20
-20.5
 10
18.666667
 20
-20.5
 10
18.352564
 20
-20.5
 10
18.352564
 20
-20.5
 10
18.352564
 20
-16.910256
  0
LWPOLYLINE
  5
A8
330
1F
100
AcDbEntity
  8
0
  6
Continuous
 62
     7
100
AcDbPolyline
 90
        8
 70
   128
 43
0.0
 10
19.33974
 20
-16.910256
 10
19.653846
 20
-16.910256
 10
19.653846
 20
-16.910256
 10
19.653846
 20
-20.5
 10
19.653846
 20
-20.5
 10
19.339744
 20
-20.5
 10
19.339744
 20
-20.5
 10
19.339744
 20
-16.910256
  0
ENDSEC
  0
SECTION
  2
OBJECTS
  0
DICTIONARY
  5
C
330
0
100
AcDbDictionary
281
     1
  3
ACAD_DETAILVIEWSTYLE
350
D2
  3
ACAD_GROUP
350
D
  3
ACAD_LAYOUT
350
1A
  3
ACAD_MATERIAL
350
C2
  3
ACAD_MLEADERSTYLE
350
C8
  3
ACAD_MLINESTYLE
350
17
  3
ACAD_PLOTSETTINGS
350
19
  3
ACAD_PLOTSTYLENAME
350
E
  3
ACAD_SCALELIST
350
47
  3
ACAD_SECTIONVIEWSTYLE
350
D3
  3
ACAD_TABLESTYLE
350
C6
  3
ACAD_VISUALSTYLE
350
A9
  3
ACDB_RECOMPOSE_DATA
350
CE
  3
AcDbVariableDictionary
350
CA
  0
DICTIONARY
  5
D2
102
{ACAD_REACTORS
330
C
102
}
330
C
100
AcDbDictionary
281
     1
  0
DICTIONARY
  5
D
102
{ACAD_REACTORS
330
C
102
}
330
C
100
AcDbDictionary
281
     1
  0
DICTIONARY
  5
1A
102
{ACAD_REACTORS
330
C
102
}
330
C
100
AcDbDictionary
281
     1
  3
Layout1
350
1E
  3
Layout2
350
26
  3
Model
350
22
  0
DICTIONARY
  5
C2
102
{ACAD_REACTORS
330
C
102
}
330
C
100
AcDbDictionary
281
     1
  3
ByBlock
350
C4
  3
ByLayer
350
C3
  3
Global
350
C5
  0
DICTIONARY
  5
C8
102
{ACAD_REACTORS
330
C
102
}
330
C
100
AcDbDictionary
281
     1
  3
Standard
350
C9
  0
DICTIONARY
  5
17
102
{ACAD_REACTORS
330
C
102
}
330
C
100
AcDbDictionary
281
     1
  3
Standard
350
18
  0
DICTIONARY
  5
19
102
{ACAD_REACTORS
330
C
102
}
330
C
100
AcDbDictionary
281
     1
  0
ACDBDICTIONARYWDFLT
  5
E
102
{ACAD_REACTORS
330
C
102
}
330
C
100
AcDbDictionary
281
     1
  3
Normal
350
F
100
AcDbDictionaryWithDefault
340
F
  0
DICTIONARY
  5
47
102
{ACAD_REACTORS
330
C
102
}
330
C
100
AcDbDictionary
281
     1
  3
A0
350
48
  3
A1
350
49
  3
A2
350
4A
  3
A3
350
4B
  3
A4
350
4C
  3
A5
350
4D
  3
A6
350
4E
  3
A7
350
4F
  3
A8
350
50
  3
A9
350
51
  3
B0
350
52
  3
B1
350
53
  3
B2
350
54
  3
B3
350
55
  3
B4
350
56
  3
B5
350
57
  3
B6
350
58
  3
B7
350
59
  3
B8
350
5A
  3
B9
350
5B
  3
C0
350
5C
  3
C1
350
5D
  3
C2
350
5E
  3
C3
350
5F
  3
C4
350
60
  3
C5
350
61
  3
C6
350
62
  3
C7
350
63
  3
C8
350
64
  3
C9
350
65
  3
D0
350
66
  3
D1
350
67
  3
D2
350
68
  0
DICTIONARY
  5
D3
102
{ACAD_REACTORS
330
C
102
}
330
C
100
AcDbDictionary
281
     1
  0
DICTIONARY
  5
C6
102
{ACAD_REACTORS
330
C
102
}
330
C
100
AcDbDictionary
281
     1
  3
Standard
350
C7
  0
DICTIONARY
  5
A9
102
{ACAD_REACTORS
330
C
102
}
330
C
100
AcDbDictionary
281
     1
  3
2dWireframe
350
AE
  3
Basic
350
B1
  3
Brighten
350
B5
  3
ColorChange
350
B9
  3
Conceptual
350
B3
  3
Dim
350
B4
  3
EdgeColorOff
350
BC
  3
Facepattern
350
B8
  3
Flat
350
AA
  3
FlatWithEdges
350
AB
  3
Gouraud
350
AC
  3
GouraudWithEdges
350
AD
  3
Hidden
350
B0
  3
JitterOff
350
BA
  3
Linepattern
350
B7
  3
OverhangOff
350
BB
  3
Realistic
350
B2
  3
Shaded
350
C1
  3
Shaded with edges
350
C0
  3
Shades of Gray
350
BD
  3
Sketchy
350
BE
  3
Thicken
350
B6
  3
Wireframe
350
AF
  3
X-Ray
350
BF
  0
XRECORD
  5
CE
102
{ACAD_REACTORS
330
C
102
}
330
C
100
AcDbXrecord
280
     1
 90
        1
330
C7
  0
DICTIONARY
  5
CA
102
{ACAD_REACTORS
330
C
102
}
330
C
100
AcDbDictionary
281
     1
  3
CANNOSCALE
350
CB
  3
CMLEADERSTYLE
350
D0
  3
CTABLESTYLE
350
CF
  3
MSLTSCALE
350
D1
  0
LAYOUT
  5
1E
102
{ACAD_REACTORS
330
1A
102
}
330
1A
100
AcDbPlotSettings
  1

  2
none_device
  4

  6

 40
0.0
 41
0.0
 42
0.0
 43
0.0
 44
0.0
 45
0.0
 46
0.0
 47
0.0
 48
0.0
 49
0.0
140
0.0
141
0.0
142
1.0
143
1.0
 70
   688
 72
     1
 73
     0
 74
     5
  7

 75
    16
 76
     0
 77
     2
 78
   300
147
1.0
148
0.0
149
0.0
100
AcDbLayout
  1
Layout1
 70
     1
 71
     1
 10
0.0
 20
0.0
 11
420.0
 21
297.0
 12
0.0
 22
0.0
 32
0.0
 14
1.000000E+20
 24
1.000000E+20
 34
1.000000E+20
 15
-1.000000E+20
 25
-1.000000E+20
 35
-1.000000E+20
146
0.0
 13
0.0
 23
0.0
 33
0.0
 16
1.0
 26
0.0
 36
0.0
 17
0.0
 27
1.0
 37
0.0
 76
     0
330
1B
  0
LAYOUT
  5
26
102
{ACAD_REACTORS
330
1A
102
}
330
1A
100
AcDbPlotSettings
  1

  2
none_device
  4

  6

 40
0.0
 41
0.0
 42
0.0
 43
0.0
 44
0.0
 45
0.0
 46
0.0
 47
0.0
 48
0.0
 49
0.0
140
0.0
141
0.0
142
1.0
143
1.0
 70
   688
 72
     1
 73
     0
 74
     5
  7

 75
    16
 76
     0
 77
     2
 78
   300
147
1.0
148
0.0
149
0.0
100
AcDbLayout
  1
Layout2
 70
     1
 71
     2
 10
0.0
 20
0.0
 11
0.0
 21
0.0
 12
0.0
 22
0.0
 32
0.0
 14
0.0
 24
0.0
 34
0.0
 15
0.0
 25
0.0
 35
0.0
146
0.0
 13
0.0
 23
0.0
 33
0.0
 16
1.0
 26
0.0
 36
0.0
 17
0.0
 27
1.0
 37
0.0
 76
     0
330
23
  0
LAYOUT
  5
22
102
{ACAD_REACTORS
330
1A
102
}
330
1A
100
AcDbPlotSettings
  1

  2
none_device
  4
ANSI_A_(11.00_x_8.50_Inches)
  6

 40
6.35
 41
19.05
 42
6.350005
 43
19.050003
 44
279.4
 45
215.9
 46
-6.064986
 47
141.421382
 48
0.0
 49
0.0
140
0.0
141
0.0
142
0.243911
143
1.0
 70
  1696
 72
     0
 73
     0
 74
     0
  7

 75
     0
 76
     0
 77
     2
 78
   300
147
0.017919
148
-1300.490907
149
0.0
100
AcDbLayout
  1
Model
 70
     1
 71
     0
 10
0.0
 20
0.0
 11
420.0
 21
297.0
 12
0.0
 22
0.0
 32
0.0
 14
0.179487
 24
-20.544872
 34
0.0
 15
44.826923
 25
3.589744
 35
0.0
146
0.0
 13
0.0
 23
0.0
 33
0.0
 16
1.0
 26
0.0
 36
0.0
 17
0.0
 27
1.0
 37
0.0
 76
     0
330
1F
331
29
  0
MATERIAL
  5
C4
102
{ACAD_REACTORS
330
C2
102
}
330
C2
100
AcDbMaterial
  1
ByBlock
 72
     1
 94
      127
  0
MATERIAL
  5
C3
102
{ACAD_REACTORS
330
C2
102
}
330
C2
100
AcDbMaterial
  1
ByLayer
 72
     1
 94
      127
  0
MATERIAL
  5
C5
102
{ACAD_REACTORS
330
C2
102
}
330
C2
100
AcDbMaterial
  1
Global
 72
     1
 94
      127
  0
MLEADERSTYLE
  5
C9
102
{ACAD_REACTORS
330
C8
102
}
330
C8
100
AcDbMLeaderStyle
179
     2
170
     2
171
     1
172
     0
 90
        2
 40
0.0
 41
0.0
173
     1
 91
-1056964608
340
14
 92
       -2
290
     1
 42
2.0
291
     1
 43
8.0
  3
Standard
341
0
 44
4.0
300

342
11
174
     1
178
     6
175
     1
176
     0
 93
-1056964608
 45
4.0
292
     0
297
     0
 46
4.0
343
0
 94
-1056964608
 47
1.0
 49
1.0
140
1.0
293
     1
141
0.0
294
     1
177
     0
142
1.0
295
     0
296
     0
143
3.75
271
     0
272
     9
273
     9
298
     0
  0
MLINESTYLE
  5
18
102
{ACAD_REACTORS
330
17
102
}
330
17
100
AcDbMlineStyle
  2
Standard
 70
     0
  3

 62
   256
 51
90.0
 52
90.0
 71
     2
 49
0.5
 62
   256
  6
BYLAYER
 49
-0.5
 62
   256
  6
BYLAYER
  0
ACDBPLACEHOLDER
  5
F
102
{ACAD_REACTORS
330
E
102
}
330
E
  0
SCALE
  5
48
102
{ACAD_REACTORS
330
47
102
}
330
47
100
AcDbScale
 70
     0
300
1:1
140
1.0
141
1.0
290
     1
  0
SCALE
  5
49
102
{ACAD_REACTORS
330
47
102
}
330
47
100
AcDbScale
 70
     0
300
1:2
140
1.0
141
2.0
290
     0
  0
SCALE
  5
4A
102
{ACAD_REACTORS
330
47
102
}
330
47
100
AcDbScale
 70
     0
300
1:4
140
1.0
141
4.0
290
     0
  0
SCALE
  5
4B
102
{ACAD_REACTORS
330
47
102
}
330
47
100
AcDbScale
 70
     0
300
1:5
140
1.0
141
5.0
290
     0
  0
SCALE
  5
4C
102
{ACAD_REACTORS
330
47
102
}
330
47
100
AcDbScale
 70
     0
300
1:8
140
1.0
141
8.0
290
     0
  0
SCALE
  5
4D
102
{ACAD_REACTORS
330
47
102
}
330
47
100
AcDbScale
 70
     0
300
1:10
140
1.0
141
10.0
290
     0
  0
SCALE
  5
4E
102
{ACAD_REACTORS
330
47
102
}
330
47
100
AcDbScale
 70
     0
300
1:16
140
1.0
141
16.0
290
     0
  0
SCALE
  5
4F
102
{ACAD_REACTORS
330
47
102
}
330
47
100
AcDbScale
 70
     0
300
1:20
140
1.0
141
20.0
290
     0
  0
SCALE
  5
50
102
{ACAD_REACTORS
330
47
102
}
330
47
100
AcDbScale
 70
     0
300
1:30
140
1.0
141
30.0
290
     0
  0
SCALE
  5
51
102
{ACAD_REACTORS
330
47
102
}
330
47
100
AcDbScale
 70
     0
300
1:40
140
1.0
141
40.0
290
     0
  0
SCALE
  5
52
102
{ACAD_REACTORS
330
47
102
}
330
47
100
AcDbScale
 70
     0
300
1:50
140
1.0
141
50.0
290
     0
  0
SCALE
  5
53
102
{ACAD_REACTORS
330
47
102
}
330
47
100
AcDbScale
 70
     0
300
1:100
140
1.0
141
100.0
290
     0
  0
SCALE
  5
54
102
{ACAD_REACTORS
330
47
102
}
330
47
100
AcDbScale
 70
     0
300
2:1
140
2.0
141
1.0
290
     0
  0
SCALE
  5
55
102
{ACAD_REACTORS
330
47
102
}
330
47
100
AcDbScale
 70
     0
300
4:1
140
4.0
141
1.0
290
     0
  0
SCALE
  5
56
102
{ACAD_REACTORS
330
47
102
}
330
47
100
AcDbScale
 70
     0
300
8:1
140
8.0
141
1.0
290
     0
  0
SCALE
  5
57
102
{ACAD_REACTORS
330
47
102
}
330
47
100
AcDbScale
 70
     0
300
10:1
140
10.0
141
1.0
290
     0
  0
SCALE
  5
58
102
{ACAD_REACTORS
330
47
102
}
330
47
100
AcDbScale
 70
     0
300
100:1
140
100.0
141
1.0
290
     0
  0
SCALE
  5
59
102
{ACAD_REACTORS
330
47
102
}
330
47
100
AcDbScale
 70
     0
300
1/128" = 1'-0"
140
0.007812
141
12.0
290
     0
  0
SCALE
  5
5A
102
{ACAD_REACTORS
330
47
102
}
330
47
100
AcDbScale
 70
     0
300
1/64" = 1'-0"
140
0.015625
141
12.0
290
     0
  0
SCALE
  5
5B
102
{ACAD_REACTORS
330
47
102
}
330
47
100
AcDbScale
 70
     0
300
1/32" = 1'-0"
140
0.03125
141
12.0
290
     0
  0
SCALE
  5
5C
102
{ACAD_REACTORS
330
47
102
}
330
47
100
AcDbScale
 70
     0
300
1/16" = 1'-0"
140
0.0625
141
12.0
290
     0
  0
SCALE
  5
5D
102
{ACAD_REACTORS
330
47
102
}
330
47
100
AcDbScale
 70
     0
300
3/32" = 1'-0"
140
0.09375
141
12.0
290
     0
  0
SCALE
  5
5E
102
{ACAD_REACTORS
330
47
102
}
330
47
100
AcDbScale
 70
     0
300
1/8" = 1'-0"
140
0.125
141
12.0
290
     0
  0
SCALE
  5
5F
102
{ACAD_REACTORS
330
47
102
}
330
47
100
AcDbScale
 70
     0
300
3/16" = 1'-0"
140
0.1875
141
12.0
290
     0
  0
SCALE
  5
60
102
{ACAD_REACTORS
330
47
102
}
330
47
100
AcDbScale
 70
     0
300
1/4" = 1'-0"
140
0.25
141
12.0
290
     0
  0
SCALE
  5
61
102
{ACAD_REACTORS
330
47
102
}
330
47
100
AcDbScale
 70
     0
300
3/8" = 1'-0"
140
0.375
141
12.0
290
     0
  0
SCALE
  5
62
102
{ACAD_REACTORS
330
47
102
}
330
47
100
AcDbScale
 70
     0
300
1/2" = 1'-0"
140
0.5
141
12.0
290
     0
  0
SCALE
  5
63
102
{ACAD_REACTORS
330
47
102
}
330
47
100
AcDbScale
 70
     0
300
3/4" = 1'-0"
140
0.75
141
12.0
290
     0
  0
SCALE
  5
64
102
{ACAD_REACTORS
330
47
102
}
330
47
100
AcDbScale
 70
     0
300
1" = 1'-0"
140
1.0
141
12.0
290
     0
  0
SCALE
  5
65
102
{ACAD_REACTORS
330
47
102
}
330
47
100
AcDbScale
 70
     0
300
1-1/2" = 1'-0"
140
1.5
141
12.0
290
     0
  0
SCALE
  5
66
102
{ACAD_REACTORS
330
47
102
}
330
47
100
AcDbScale
 70
     0
300
3" = 1'-0"
140
3.0
141
12.0
290
     0
  0
SCALE
  5
67
102
{ACAD_REACTORS
330
47
102
}
330
47
100
AcDbScale
 70
     0
300
6" = 1'-0"
140
6.0
141
12.0
290
     0
  0
SCALE
  5
68
102
{ACAD_REACTORS
330
47
102
}
330
47
100
AcDbScale
 70
     0
300
1'-0" = 1'-0"
140
12.0
141
12.0
290
     0
  0
TABLESTYLE
  5
C7
102
{ACAD_REACTORS
330
C6
102
}
102
{ACAD_XDICTIONARY
360
CC
102
}
330
C6
100
AcDbTableStyle
  3
Standard
 70
     0
 71
     0
 40
0.06
 41
0.06
280
     0
281
     0
  7
Standard
140
4.5
170
     2
 62
     0
 63
   257
283
     0
 90
        4
 91
        0
  1

274
    -2
284
     1
 64
     0
275
    -2
285
     1
 65
     0
276
    -2
286
     1
 66
     0
277
    -2
287
     1
 67
     0
278
    -2
288
     1
 68
     0
279
    -2
289
     1
 69
     0
  7
Standard
140
6.0
170
     5
 62
     0
 63
   257
283
     0
 90
        4
 91
        0
  1

274
    -2
284
     1
 64
     0
275
    -2
285
     1
 65
     0
276
    -2
286
     1
 66
     0
277
    -2
287
     1
 67
     0
278
    -2
288
     1
 68
     0
279
    -2
289
     1
 69
     0
  7
Standard
140
4.5
170
     5
 62
     0
 63
   257
283
     0
 90
        4
 91
        0
  1

274
    -2
284
     1
 64
     0
275
    -2
285
     1
 65
     0
276
    -2
286
     1
 66
     0
277
    -2
287
     1
 67
     0
278
    -2
288
     1
 68
     0
279
    -2
289
     1
 69
     0
  0
VISUALSTYLE
  5
AE
102
{ACAD_REACTORS
330
A9
102
}
330
A9
100
AcDbVisualStyle
  2
2dWireframe
 70
     4
177
     3
291
     0
 70
    58
 90
        0
176
     1
 90
        2
176
     1
 90
        0
176
     1
 90
        0
176
     1
 40
0.6
176
     1
 40
30.0
176
     1
 62
     7
420
 16777215
176
     1
 90
        1
176
     1
 90
        4
176
     1
 62
     7
176
     1
 62
   257
176
     1
 90
        1
176
     1
 90
        1
176
     1
 40
1.0
176
     1
 90
        0
176
     1
 62
   257
176
     1
 40
1.0
176
     1
 90
        1
176
     1
 90
        6
176
     1
 90
        2
176
     1
 62
     7
176
     1
 90
        5
176
     1
 90
        0
176
     1
 90
        0
176
     1
290
     0
176
     1
 90
        1
176
     1
 40
0.0
176
     1
 90
        0
176
     1
290
     1
176
     1
290
     1
176
     1
290
     0
176
     1
290
     0
176
     1
290
     0
176
     1
290
     0
176
     1
290
     0
176
     1
290
     0
176
     1
290
     0
176
     1
 90
       50
176
     1
 40
0.0
176
     1
 40
1.0
176
     1
 90
        0
176
     1
 62
    18
420
        0
176
     1
 90
       50
176
     1
 90
        3
176
     1
 62
     5
420
      255
176
     1
290
     0
176
     1
 90
       50
176
     1
 90
       50
176
     1
 90
       50
176
     1
290
     0
176
     1
 90
       50
176
     1
 62
   256
176
     0
 40
1.0
176
     0
 90
        2
176
     1
  1
strokes_ogs.tif
176
     1
290
     0
176
     1
 40
1.0
176
     1
 40
1.0
176
     1
  0
VISUALSTYLE
  5
B1
102
{ACAD_REACTORS
330
A9
102
}
330
A9
100
AcDbVisualStyle
  2
Basic
 70
     7
177
     3
291
     1
 70
    58
 90
        1
176
     1
 90
        0
176
     1
 90
        1
176
     1
 90
        0
176
     1
 40
0.6
176
     1
 40
30.0
176
     1
 62
     7
420
 16777215
176
     1
 90
        0
176
     1
 90
        4
176
     1
 62
     7
176
     1
 62
   257
176
     1
 90
        1
176
     1
 90
        1
176
     1
 40
1.0
176
     1
 90
        8
176
     1
 62
     7
176
     1
 40
1.0
176
     1
 90
        1
176
     1
 90
        6
176
     1
 90
        2
176
     1
 62
     7
176
     1
 90
        5
176
     1
 90
        0
176
     1
 90
        0
176
     1
290
     0
176
     1
 90
        1
176
     1
 40
0.0
176
     1
 90
        0
176
     1
290
     0
176
     1
290
     1
176
     1
290
     1
176
     1
290
     0
176
     1
290
     0
176
     1
290
     0
176
     1
290
     0
176
     1
290
     0
176
     1
290
     0
176
     1
 90
       50
176
     1
 40
0.0
176
     1
 40
1.0
176
     1
 90
        0
176
     1
 62
    18
420
        0
176
     1
 90
       50
176
     1
 90
        3
176
     1
 62
     5
420
      255
176
     1
290
     0
176
     1
 90
       50
176
     1
 90
       50
176
     1
 90
       50
176
     1
290
     0
176
     1
 90
       50
176
     1
 62
   256
176
     0
 40
1.0
176
     0
 90
        2
176
     1
  1
strokes_ogs.tif
176
     1
290
     0
176
     1
 40
1.0
176
     1
 40
1.0
176
     1
  0
VISUALSTYLE
  5
B5
102
{ACAD_REACTORS
330
A9
102
}
330
A9
100
AcDbVisualStyle
  2
Brighten
 70
    12
177
     3
291
     1
 70
    58
 90
        2
176
     1
 90
        2
176
     1
 90
        0
176
     1
 90
        0
176
     1
 40
0.6
176
     1
 40
30.0
176
     1
 62
     7
420
 16777215
176
     1
 90
        1
176
     1
 90
        4
176
     1
 62
     7
176
     1
 62
   257
176
     1
 90
        1
176
     1
 90
        1
176
     1
 40
1.0
176
     1
 90
        8
176
     1
 62
     7
176
     1
 40
1.0
176
     1
 90
        1
176
     1
 90
        6
176
     1
 90
        2
176
     1
 62
     7
176
     1
 90
        5
176
     1
 90
        0
176
     1
 90
        0
176
     1
290
     0
176
     1
 90
        1
176
     1
 40
50.0
176
     1
 90
        0
176
     1
290
     0
176
     1
290
     1
176
     1
290
     1
176
     1
290
     0
176
     1
290
     0
176
     1
290
     0
176
     1
290
     0
176
     1
290
     0
176
     1
290
     0
176
     1
 90
       50
176
     1
 40
0.0
176
     1
 40
1.0
176
     1
 90
        0
176
     1
 62
    18
420
        0
176
     1
 90
       50
176
     1
 90
        3
176
     1
 62
     5
420
      255
176
     1
290
     0
176
     1
 90
       50
176
     1
 90
       50
176
     1
 90
       50
176
     1
290
     0
176
     1
 90
       50
176
     1
 62
   256
176
     0
 40
1.0
176
     0
 90
        2
176
     1
  1
strokes_ogs.tif
176
     1
290
     0
176
     1
 40
1.0
176
     1
 40
1.0
176
     1
  0
VISUALSTYLE
  5
B9
102
{ACAD_REACTORS
330
A9
102
}
330
A9
100
AcDbVisualStyle
  2
ColorChange
 70
    16
177
     3
291
     1
 70
    58
 90
        2
176
     1
 90
        2
176
     1
 90
        3
176
     1
 90
        0
176
     1
 40
0.6
176
     1
 40
30.0
176
     1
 62
     8
420
  8421504
176
     1
 90
        1
176
     1
 90
        4
176
     1
 62
     7
176
     1
 62
   257
176
     1
 90
        1
176
     1
 90
        1
176
     1
 40
1.0
176
     1
 90
        8
176
     1
 62
     8
420
  8421504
176
     1
 40
1.0
176
     1
 90
        1
176
     1
 90
        6
176
     1
 90
        2
176
     1
 62
     7
176
     1
 90
        5
176
     1
 90
        0
176
     1
 90
        0
176
     1
290
     0
176
     1
 90
        1
176
     1
 40
0.0
176
     1
 90
        0
176
     1
290
     0
176
     1
290
     1
176
     1
290
     1
176
     1
290
     0
176
     1
290
     0
176
     1
290
     0
176
     1
290
     0
176
     1
290
     0
176
     1
290
     0
176
     1
 90
       50
176
     1
 40
0.0
176
     1
 40
1.0
176
     1
 90
        0
176
     1
 62
    18
420
        0
176
     1
 90
       50
176
     1
 90
        3
176
     1
 62
     5
420
      255
176
     1
290
     0
176
     1
 90
       50
176
     1
 90
       50
176
     1
 90
       50
176
     1
290
     0
176
     1
 90
       50
176
     1
 62
   256
176
     0
 40
1.0
176
     0
 90
        2
176
     1
  1
strokes_ogs.tif
176
     1
290
     0
176
     1
 40
1.0
176
     1
 40
1.0
176
     1
  0
VISUALSTYLE
  5
B3
102
{ACAD_REACTORS
330
A9
102
}
330
A9
100
AcDbVisualStyle
  2
Conceptual
 70
     9
177
     3
291
     0
 70
    58
 90
        3
176
     1
 90
        2
176
     1
 90
        0
176
     1
 90
        0
176
     1
 40
0.6
176
     1
 40
30.0
176
     1
 62
     7
420
 16777215
176
     1
 90
        2
176
     1
 90
        2
176
     1
 62
     7
176
     1
 62
   257
176
     1
 90
        1
176
     1
 90
        1
176
     1
 40
179.0
176
     1
 90
        8
176
     1
 62
     7
176
     1
 40
1.0
176
     1
 90
        1
176
     1
 90
        6
176
     1
 90
        2
176
     1
 62
     7
176
     1
 90
        3
176
     1
 90
        0
176
     1
 90
        0
176
     1
290
     0
176
     1
 90
        1
176
     1
 40
0.0
176
     1
 90
        0
176
     1
290
     0
176
     1
290
     1
176
     1
290
     1
176
     1
290
     0
176
     1
290
     0
176
     1
290
     0
176
     1
290
     0
176
     1
290
     0
176
     1
290
     0
176
     1
 90
       50
176
     1
 40
0.0
176
     1
 40
1.0
176
     1
 90
        0
176
     1
 62
    18
420
        0
176
     1
 90
       50
176
     1
 90
        3
176
     1
 62
     5
420
      255
176
     1
290
     0
176
     1
 90
       50
176
     1
 90
       50
176
     1
 90
       50
176
     1
290
     0
176
     1
 90
       50
176
     1
 62
   256
176
     0
 40
1.0
176
     0
 90
        2
176
     1
  1
strokes_ogs.tif
176
     1
290
     0
176
     1
 40
1.0
176
     1
 40
1.0
176
     1
  0
VISUALSTYLE
  5
B4
102
{ACAD_REACTORS
330
A9
102
}
330
A9
100
AcDbVisualStyle
  2
Dim
 70
    11
177
     3
291
     1
 70
    58
 90
        2
176
     1
 90
        2
176
     1
 90
        0
176
     1
 90
        0
176
     1
 40
0.6
176
     1
 40
30.0
176
     1
 62
     7
420
 16777215
176
     1
 90
        1
176
     1
 90
        4
176
     1
 62
     7
176
     1
 62
   257
176
     1
 90
        1
176
     1
 90
        1
176
     1
 40
1.0
176
     1
 90
        8
176
     1
 62
     7
176
     1
 40
1.0
176
     1
 90
        1
176
     1
 90
        6
176
     1
 90
        2
176
     1
 62
     7
176
     1
 90
        5
176
     1
 90
        0
176
     1
 90
        0
176
     1
290
     0
176
     1
 90
        1
176
     1
 40
-50.0
176
     1
 90
        0
176
     1
290
     0
176
     1
290
     1
176
     1
290
     1
176
     1
290
     0
176
     1
290
     0
176
     1
290
     0
176
     1
290
     0
176
     1
290
     0
176
     1
290
     0
176
     1
 90
       50
176
     1
 40
0.0
176
     1
 40
1.0
176
     1
 90
        0
176
     1
 62
    18
420
        0
176
     1
 90
       50
176
     1
 90
        3
176
     1
 62
     5
420
      255
176
     1
290
     0
176
     1
 90
       50
176
     1
 90
       50
176
     1
 90
       50
176
     1
290
     0
176
     1
 90
       50
176
     1
 62
   256
176
     0
 40
1.0
176
     0
 90
        2
176
     1
  1
strokes_ogs.tif
176
     1
290
     0
176
     1
 40
1.0
176
     1
 40
1.0
176
     1
  0
VISUALSTYLE
  5
BC
102
{ACAD_REACTORS
330
A9
102
}
330
A9
100
AcDbVisualStyle
  2
EdgeColorOff
 70
    22
177
     3
291
     1
 70
    58
 90
        2
176
     0
 90
        2
176
     0
 90
        0
176
     0
 90
        0
176
     0
 40
0.6
176
     0
 40
30.0
176
     0
 62
     7
420
 16777215
176
     0
 90
        1
176
     0
 90
        4
176
     0
 62
     7
176
     0
 62
   257
176
     0
 90
        1
176
     0
 90
        1
176
     0
 40
1.0
176
     0
 90
        8
176
     2
 62
     7
176
     0
 40
1.0
176
     0
 90
        1
176
     0
 90
        6
176
     0
 90
        2
176
     0
 62
     7
176
     0
 90
        5
176
     0
 90
        0
176
     0
 90
        0
176
     0
290
     0
176
     0
 90
        1
176
     0
 40
0.0
176
     0
 90
        0
176
     0
290
     0
176
     0
290
     1
176
     0
290
     1
176
     0
290
     0
176
     0
290
     0
176
     0
290
     0
176
     0
290
     0
176
     0
290
     0
176
     0
290
     0
176
     0
 90
       50
176
     0
 40
0.0
176
     0
 40
1.0
176
     0
 90
        0
176
     0
 62
    18
420
        0
176
     0
 90
       50
176
     0
 90
        3
176
     0
 62
     5
420
      255
176
     0
290
     0
176
     0
 90
       50
176
     0
 90
       50
176
     0
 90
       50
176
     0
290
     0
176
     0
 90
       50
176
     0
 62
   256
176
     0
 40
1.0
176
     0
 90
        2
176
     0
  1
strokes_ogs.tif
176
     0
290
     0
176
     0
 40
1.0
176
     0
 40
1.0
176
     0
  0
VISUALSTYLE
  5
B8
102
{ACAD_REACTORS
330
A9
102
}
330
A9
100
AcDbVisualStyle
  2
Facepattern
 70
    15
177
     3
291
     1
 70
    58
 90
        2
176
     1
 90
        2
176
     1
 90
        0
176
     1
 90
        0
176
     1
 40
0.6
176
     1
 40
30.0
176
     1
 62
     7
420
 16777215
176
     1
 90
        1
176
     1
 90
        4
176
     1
 62
     7
176
     1
 62
   257
176
     1
 90
        1
176
     1
 90
        1
176
     1
 40
1.0
176
     1
 90
        8
176
     1
 62
     7
176
     1
 40
1.0
176
     1
 90
        1
176
     1
 90
        6
176
     1
 90
        2
176
     1
 62
     7
176
     1
 90
        5
176
     1
 90
        0
176
     1
 90
        0
176
     1
290
     0
176
     1
 90
        1
176
     1
 40
0.0
176
     1
 90
        0
176
     1
290
     0
176
     1
290
     1
176
     1
290
     1
176
     1
290
     0
176
     1
290
     0
176
     1
290
     0
176
     1
290
     0
176
     1
290
     0
176
     1
290
     0
176
     1
 90
       50
176
     1
 40
0.0
176
     1
 40
1.0
176
     1
 90
        0
176
     1
 62
    18
420
        0
176
     1
 90
       50
176
     1
 90
        3
176
     1
 62
     5
420
      255
176
     1
290
     0
176
     1
 90
       50
176
     1
 90
       50
176
     1
 90
       50
176
     1
290
     0
176
     1
 90
       50
176
     1
 62
   256
176
     0
 40
1.0
176
     0
 90
        2
176
     1
  1
strokes_ogs.tif
176
     1
290
     0
176
     1
 40
1.0
176
     1
 40
1.0
176
     1
  0
VISUALSTYLE
  5
AA
102
{ACAD_REACTORS
330
A9
102
}
330
A9
100
AcDbVisualStyle
  2
Flat
 70
     0
177
     3
291
     1
 70
    58
 90
        2
176
     1
 90
        1
176
     1
 90
        1
176
     1
 90
        2
176
     1
 40
0.6
176
     1
 40
30.0
176
     1
 62
     7
420
 16777215
176
     1
 90
        0
176
     1
 90
        0
176
     1
 62
     7
176
     1
 62
   257
176
     1
 90
        1
176
     1
 90
        1
176
     1
 40
1.0
176
     1
 90
        8
176
     1
 62
     7
176
     1
 40
1.0
176
     1
 90
        1
176
     1
 90
        6
176
     1
 90
        2
176
     1
 62
     7
176
     1
 90
        5
176
     1
 90
        0
176
     1
 90
        0
176
     1
290
     0
176
     1
 90
       13
176
     1
 40
0.0
176
     1
 90
        0
176
     1
290
     0
176
     1
290
     1
176
     1
290
     1
176
     1
290
     0
176
     1
290
     0
176
     1
290
     0
176
     1
290
     0
176
     1
290
     0
176
     1
290
     0
176
     1
 90
       50
176
     1
 40
0.0
176
     1
 40
1.0
176
     1
 90
        0
176
     1
 62
    18
420
        0
176
     1
 90
       50
176
     1
 90
        3
176
     1
 62
     5
420
      255
176
     1
290
     0
176
     1
 90
       50
176
     1
 90
       50
176
     1
 90
       50
176
     1
290
     0
176
     1
 90
       50
176
     1
 62
   256
176
     0
 40
1.0
176
     0
 90
        2
176
     1
  1
strokes_ogs.tif
176
     1
290
     0
176
     1
 40
1.0
176
     1
 40
1.0
176
     1
  0
VISUALSTYLE
  5
AB
102
{ACAD_REACTORS
330
A9
102
}
330
A9
100
AcDbVisualStyle
  2
FlatWithEdges
 70
     1
177
     3
291
     1
 70
    58
 90
        2
176
     1
 90
        1
176
     1
 90
        1
176
     1
 90
        2
176
     1
 40
0.6
176
     1
 40
30.0
176
     1
 62
     7
420
 16777215
176
     1
 90
        1
176
     1
 90
        0
176
     1
 62
     7
176
     1
 62
   257
176
     1
 90
        1
176
     1
 90
        1
176
     1
 40
1.0
176
     1
 90
        0
176
     1
 62
   257
176
     1
 40
1.0
176
     1
 90
        1
176
     1
 90
        6
176
     1
 90
        2
176
     1
 62
     7
176
     1
 90
        5
176
     1
 90
        0
176
     1
 90
        0
176
     1
290
     0
176
     1
 90
       13
176
     1
 40
0.0
176
     1
 90
        0
176
     1
290
     0
176
     1
290
     1
176
     1
290
     1
176
     1
290
     0
176
     1
290
     0
176
     1
290
     0
176
     1
290
     0
176
     1
290
     0
176
     1
290
     0
176
     1
 90
       50
176
     1
 40
0.0
176
     1
 40
1.0
176
     1
 90
        0
176
     1
 62
    18
420
        0
176
     1
 90
       50
176
     1
 90
        3
176
     1
 62
     5
420
      255
176
     1
290
     0
176
     1
 90
       50
176
     1
 90
       50
176
     1
 90
       50
176
     1
290
     0
176
     1
 90
       50
176
     1
 62
   256
176
     0
 40
1.0
176
     0
 90
        2
176
     1
  1
strokes_ogs.tif
176
     1
290
     0
176
     1
 40
1.0
176
     1
 40
1.0
176
     1
  0
VISUALSTYLE
  5
AC
102
{ACAD_REACTORS
330
A9
102
}
330
A9
100
AcDbVisualStyle
  2
Gouraud
 70
     2
177
     3
291
     1
 70
    58
 90
        2
176
     1
 90
        2
176
     1
 90
        1
176
     1
 90
        2
176
     1
 40
0.6
176
     1
 40
30.0
176
     1
 62
     7
420
 16777215
176
     1
 90
        0
176
     1
 90
        0
176
     1
 62
     7
176
     1
 62
   257
176
     1
 90
        1
176
     1
 90
        1
176
     1
 40
1.0
176
     1
 90
        0
176
     1
 62
     7
176
     1
 40
1.0
176
     1
 90
        1
176
     1
 90
        6
176
     1
 90
        2
176
     1
 62
     7
176
     1
 90
        5
176
     1
 90
        0
176
     1
 90
        0
176
     1
290
     0
176
     1
 90
       13
176
     1
 40
0.0
176
     1
 90
        0
176
     1
290
     0
176
     1
290
     1
176
     1
290
     1
176
     1
290
     0
176
     1
290
     0
176
     1
290
     0
176
     1
290
     0
176
     1
290
     0
176
     1
290
     0
176
     1
 90
       50
176
     1
 40
0.0
176
     1
 40
1.0
176
     1
 90
        0
176
     1
 62
    18
420
        0
176
     1
 90
       50
176
     1
 90
        3
176
     1
 62
     5
420
      255
176
     1
290
     0
176
     1
 90
       50
176
     1
 90
       50
176
     1
 90
       50
176
     1
290
     0
176
     1
 90
       50
176
     1
 62
   256
176
     0
 40
1.0
176
     0
 90
        2
176
     1
  1
strokes_ogs.tif
176
     1
290
     0
176
     1
 40
1.0
176
     1
 40
1.0
176
     1
  0
VISUALSTYLE
  5
AD
102
{ACAD_REACTORS
330
A9
102
}
330
A9
100
AcDbVisualStyle
  2
GouraudWithEdges
 70
     3
177
     3
291
     1
 70
    58
 90
        2
176
     1
 90
        2
176
     1
 90
        1
176
     1
 90
        2
176
     1
 40
0.6
176
     1
 40
30.0
176
     1
 62
     7
420
 16777215
176
     1
 90
        1
176
     1
 90
        0
176
     1
 62
     7
176
     1
 62
   257
176
     1
 90
        1
176
     1
 90
        1
176
     1
 40
1.0
176
     1
 90
        0
176
     1
 62
   257
176
     1
 40
1.0
176
     1
 90
        1
176
     1
 90
        6
176
     1
 90
        2
176
     1
 62
     7
176
     1
 90
        5
176
     1
 90
        0
176
     1
 90
        0
176
     1
290
     0
176
     1
 90
       13
176
     1
 40
0.0
176
     1
 90
        0
176
     1
290
     0
176
     1
290
     1
176
     1
290
     1
176
     1
290
     0
176
     1
290
     0
176
     1
290
     0
176
     1
290
     0
176
     1
290
     0
176
     1
290
     0
176
     1
 90
       50
176
     1
 40
0.0
176
     1
 40
1.0
176
     1
 90
        0
176
     1
 62
    18
420
        0
176
     1
 90
       50
176
     1
 90
        3
176
     1
 62
     5
420
      255
176
     1
290
     0
176
     1
 90
       50
176
     1
 90
       50
176
     1
 90
       50
176
     1
290
     0
176
     1
 90
       50
176
     1
 62
   256
176
     0
 40
1.0
176
     0
 90
        2
176
     1
  1
strokes_ogs.tif
176
     1
290
     0
176
     1
 40
1.0
176
     1
 40
1.0
176
     1
  0
VISUALSTYLE
  5
B0
102
{ACAD_REACTORS
330
A9
102
}
330
A9
100
AcDbVisualStyle
  2
Hidden
 70
     6
177
     3
291
     0
 70
    58
 90
        1
176
     1
 90
        2
176
     1
 90
        2
176
     1
 90
        0
176
     1
 40
0.6
176
     1
 40
30.0
176
     1
 62
     7
420
 16777215
176
     1
 90
        2
176
     1
 90
        2
176
     1
 62
     7
176
     1
 62
   257
176
     1
 90
        2
176
     1
 90
        1
176
     1
 40
40.0
176
     1
 90
        0
176
     1
 62
   257
176
     1
 40
1.0
176
     1
 90
        1
176
     1
 90
        6
176
     1
 90
        2
176
     1
 62
     7
176
     1
 90
        3
176
     1
 90
        0
176
     1
 90
        0
176
     1
290
     0
176
     1
 90
        1
176
     1
 40
0.0
176
     1
 90
        0
176
     1
290
     0
176
     1
290
     1
176
     1
290
     1
176
     1
290
     0
176
     1
290
     0
176
     1
290
     0
176
     1
290
     0
176
     1
290
     0
176
     1
290
     0
176
     1
 90
       50
176
     1
 40
0.0
176
     1
 40
1.0
176
     1
 90
        0
176
     1
 62
    18
420
        0
176
     1
 90
       50
176
     1
 90
        3
176
     1
 62
     5
420
      255
176
     1
290
     0
176
     1
 90
       50
176
     1
 90
       50
176
     1
 90
       50
176
     1
290
     0
176
     1
 90
       50
176
     1
 62
   256
176
     0
 40
1.0
176
     0
 90
        2
176
     1
  1
strokes_ogs.tif
176
     1
290
     0
176
     1
 40
1.0
176
     1
 40
1.0
176
     1
  0
VISUALSTYLE
  5
BA
102
{ACAD_REACTORS
330
A9
102
}
330
A9
100
AcDbVisualStyle
  2
JitterOff
 70
    20
177
     3
291
     1
 70
    58
 90
        2
176
     0
 90
        2
176
     0
 90
        0
176
     0
 90
        0
176
     0
 40
0.6
176
     0
 40
30.0
176
     0
 62
     7
420
 16777215
176
     0
 90
        1
176
     0
 90
        4
176
     0
 62
     7
176
     0
 62
   257
176
     0
 90
        1
176
     0
 90
        1
176
     0
 40
1.0
176
     0
 90
       10
176
     2
 62
     7
176
     0
 40
1.0
176
     0
 90
        1
176
     0
 90
        6
176
     0
 90
        2
176
     0
 62
     7
176
     0
 90
        5
176
     0
 90
        0
176
     0
 90
        0
176
     0
290
     0
176
     0
 90
        1
176
     0
 40
0.0
176
     0
 90
        0
176
     0
290
     0
176
     0
290
     1
176
     0
290
     1
176
     0
290
     0
176
     0
290
     0
176
     0
290
     0
176
     0
290
     0
176
     0
290
     0
176
     0
290
     0
176
     0
 90
       50
176
     0
 40
0.0
176
     0
 40
1.0
176
     0
 90
        0
176
     0
 62
    18
420
        0
176
     0
 90
       50
176
     0
 90
        3
176
     0
 62
     5
420
      255
176
     0
290
     0
176
     0
 90
       50
176
     0
 90
       50
176
     0
 90
       50
176
     0
290
     0
176
     0
 90
       50
176
     0
 62
   256
176
     0
 40
1.0
176
     0
 90
        2
176
     0
  1
strokes_ogs.tif
176
     0
290
     0
176
     0
 40
1.0
176
     0
 40
1.0
176
     0
  0
VISUALSTYLE
  5
B7
102
{ACAD_REACTORS
330
A9
102
}
330
A9
100
AcDbVisualStyle
  2
Linepattern
 70
    14
177
     3
291
     1
 70
    58
 90
        2
176
     1
 90
        2
176
     1
 90
        0
176
     1
 90
        0
176
     1
 40
0.6
176
     1
 40
30.0
176
     1
 62
     7
420
 16777215
176
     1
 90
        1
176
     1
 90
        4
176
     1
 62
     7
176
     1
 62
   257
176
     1
 90
        7
176
     1
 90
        7
176
     1
 40
1.0
176
     1
 90
        8
176
     1
 62
     7
176
     1
 40
1.0
176
     1
 90
        1
176
     1
 90
        6
176
     1
 90
        2
176
     1
 62
     7
176
     1
 90
        5
176
     1
 90
        0
176
     1
 90
        0
176
     1
290
     0
176
     1
 90
        1
176
     1
 40
0.0
176
     1
 90
        0
176
     1
290
     0
176
     1
290
     1
176
     1
290
     1
176
     1
290
     0
176
     1
290
     0
176
     1
290
     0
176
     1
290
     0
176
     1
290
     0
176
     1
290
     0
176
     1
 90
       50
176
     1
 40
0.0
176
     1
 40
1.0
176
     1
 90
        0
176
     1
 62
    18
420
        0
176
     1
 90
       50
176
     1
 90
        3
176
     1
 62
     5
420
      255
176
     1
290
     0
176
     1
 90
       50
176
     1
 90
       50
176
     1
 90
       50
176
     1
290
     0
176
     1
 90
       50
176
     1
 62
   256
176
     0
 40
1.0
176
     0
 90
        2
176
     1
  1
strokes_ogs.tif
176
     1
290
     0
176
     1
 40
1.0
176
     1
 40
1.0
176
     1
  0
VISUALSTYLE
  5
BB
102
{ACAD_REACTORS
330
A9
102
}
330
A9
100
AcDbVisualStyle
  2
OverhangOff
 70
    21
177
     3
291
     1
 70
    58
 90
        2
176
     0
 90
        2
176
     0
 90
        0
176
     0
 90
        0
176
     0
 40
0.6
176
     0
 40
30.0
176
     0
 62
     7
420
 16777215
176
     0
 90
        1
176
     0
 90
        4
176
     0
 62
     7
176
     0
 62
   257
176
     0
 90
        1
176
     0
 90
        1
176
     0
 40
1.0
176
     0
 90
        9
176
     2
 62
     7
176
     0
 40
1.0
176
     0
 90
        1
176
     0
 90
        6
176
     0
 90
        2
176
     0
 62
     7
176
     0
 90
        5
176
     0
 90
        0
176
     0
 90
        0
176
     0
290
     0
176
     0
 90
        1
176
     0
 40
0.0
176
     0
 90
        0
176
     0
290
     0
176
     0
290
     1
176
     0
290
     1
176
     0
290
     0
176
     0
290
     0
176
     0
290
     0
176
     0
290
     0
176
     0
290
     0
176
     0
290
     0
176
     0
 90
       50
176
     0
 40
0.0
176
     0
 40
1.0
176
     0
 90
        0
176
     0
 62
    18
420
        0
176
     0
 90
       50
176
     0
 90
        3
176
     0
 62
     5
420
      255
176
     0
290
     0
176
     0
 90
       50
176
     0
 90
       50
176
     0
 90
       50
176
     0
290
     0
176
     0
 90
       50
176
     0
 62
   256
176
     0
 40
1.0
176
     0
 90
        2
176
     0
  1
strokes_ogs.tif
176
     0
290
     0
176
     0
 40
1.0
176
     0
 40
1.0
176
     0
  0
VISUALSTYLE
  5
B2
102
{ACAD_REACTORS
330
A9
102
}
330
A9
100
AcDbVisualStyle
  2
Realistic
 70
     8
177
     3
291
     0
 70
    58
 90
        2
176
     1
 90
        3
176
     1
 90
        0
176
     1
 90
        2
176
     1
 40
0.6
176
     1
 40
30.0
176
     1
 62
     7
420
 16777215
176
     1
 90
        0
176
     1
 90
        0
176
     1
 62
     7
176
     1
 62
   257
176
     1
 90
        1
176
     1
 90
        1
176
     1
 40
1.0
176
     1
 90
        8
176
     1
 62
   257
176
     1
 40
1.0
176
     1
 90
        1
176
     1
 90
        6
176
     1
 90
        2
176
     1
 62
     7
176
     1
 90
        3
176
     1
 90
        0
176
     1
 90
        0
176
     1
290
     0
176
     1
 90
       13
176
     1
 40
0.0
176
     1
 90
        0
176
     1
290
     0
176
     1
290
     1
176
     1
290
     1
176
     1
290
     0
176
     1
290
     0
176
     1
290
     0
176
     1
290
     0
176
     1
290
     0
176
     1
290
     0
176
     1
 90
       50
176
     1
 40
0.0
176
     1
 40
1.0
176
     1
 90
        0
176
     1
 62
    18
420
        0
176
     1
 90
       50
176
     1
 90
        3
176
     1
 62
     5
420
      255
176
     1
290
     0
176
     1
 90
       50
176
     1
 90
       50
176
     1
 90
       50
176
     1
290
     0
176
     1
 90
       50
176
     1
 62
   256
176
     0
 40
1.0
176
     0
 90
        2
176
     1
  1
strokes_ogs.tif
176
     1
290
     0
176
     1
 40
1.0
176
     1
 40
1.0
176
     1
  0
VISUALSTYLE
  5
C1
102
{ACAD_REACTORS
330
A9
102
}
330
A9
100
AcDbVisualStyle
  2
Shaded
 70
    27
177
     3
291
     0
 70
    58
 90
        2
176
     1
 90
        2
176
     1
 90
        1
176
     1
 90
        2
176
     1
 40
0.6
176
     1
 40
30.0
176
     1
 62
     7
420
 16777215
176
     1
 90
        0
176
     1
 90
        4
176
     1
 62
     7
176
     1
 62
   257
176
     1
 90
        1
176
     1
 90
        1
176
     1
 40
1.0
176
     1
 90
        8
176
     1
 62
   257
176
     1
 40
1.0
176
     1
 90
        1
176
     1
 90
        6
176
     1
 90
        2
176
     1
 62
     8
420
  7895160
176
     1
 90
        3
176
     1
 90
        0
176
     1
 90
        0
176
     1
290
     0
176
     1
 90
        5
176
     1
 40
0.0
176
     1
 90
        0
176
     1
290
     0
176
     1
290
     1
176
     1
290
     1
176
     1
290
     0
176
     1
290
     0
176
     1
290
     0
176
     1
290
     0
176
     1
290
     0
176
     1
290
     0
176
     1
 90
       50
176
     1
 40
0.0
176
     1
 40
1.0
176
     1
 90
        0
176
     1
 62
    18
420
        0
176
     1
 90
       50
176
     1
 90
        3
176
     1
 62
     5
420
      255
176
     1
290
     0
176
     1
 90
       50
176
     1
 90
       50
176
     1
 90
       50
176
     1
290
     0
176
     1
 90
       50
176
     1
 62
   256
176
     0
 40
1.0
176
     0
 90
        2
176
     1
  1
strokes_ogs.tif
176
     1
290
     0
176
     1
 40
1.0
176
     1
 40
1.0
176
     1
  0
VISUALSTYLE
  5
C0
102
{ACAD_REACTORS
330
A9
102
}
330
A9
100
AcDbVisualStyle
  2
Shaded with edges
 70
    26
177
     3
291
     0
 70
    58
 90
        2
176
     1
 90
        2
176
     1
 90
        1
176
     1
 90
        2
176
     1
 40
0.6
176
     1
 40
30.0
176
     1
 62
     7
420
 16777215
176
     1
 90
        1
176
     1
 90
       10
176
     1
 62
     7
176
     1
 62
   257
176
     1
 90
        2
176
     1
 90
        1
176
     1
 40
1.0
176
     1
 90
        8
176
     1
 62
   257
176
     1
 40
1.0
176
     1
 90
        1
176
     1
 90
        6
176
     1
 90
        2
176
     1
 62
     7
176
     1
 90
        3
176
     1
 90
        0
176
     1
 90
        0
176
     1
290
     0
176
     1
 90
        5
176
     1
 40
0.0
176
     1
 90
        0
176
     1
290
     0
176
     1
290
     1
176
     1
290
     1
176
     1
290
     0
176
     1
290
     0
176
     1
290
     0
176
     1
290
     0
176
     1
290
     0
176
     1
290
     0
176
     1
 90
       50
176
     1
 40
0.0
176
     1
 40
1.0
176
     1
 90
        0
176
     1
 62
    18
420
        0
176
     1
 90
       50
176
     1
 90
        3
176
     1
 62
     5
420
      255
176
     1
290
     0
176
     1
 90
       50
176
     1
 90
       50
176
     1
 90
       50
176
     1
290
     0
176
     1
 90
       50
176
     1
 62
   256
176
     0
 40
1.0
176
     0
 90
        2
176
     1
  1
strokes_ogs.tif
176
     1
290
     0
176
     1
 40
1.0
176
     1
 40
1.0
176
     1
  0
VISUALSTYLE
  5
BD
102
{ACAD_REACTORS
330
A9
102
}
330
A9
100
AcDbVisualStyle
  2
Shades of Gray
 70
    23
177
     3
291
     0
 70
    58
 90
        2
176
     1
 90
        2
176
     1
 90
        3
176
     1
 90
        0
176
     1
 40
0.6
176
     1
 40
30.0
176
     1
 62
     7
420
 16777215
176
     1
 90
        2
176
     1
 90
        2
176
     1
 62
     7
176
     1
 62
     7
176
     1
 90
        1
176
     1
 90
        1
176
     1
 40
40.0
176
     1
 90
        8
176
     1
 62
     7
176
     1
 40
1.0
176
     1
 90
        1
176
     1
 90
        6
176
     1
 90
        2
176
     1
 62
     7
176
     1
 90
        3
176
     1
 90
        0
176
     1
 90
        0
176
     1
290
     0
176
     1
 90
        1
176
     1
 40
0.0
176
     1
 90
        0
176
     1
290
     0
176
     1
290
     1
176
     1
290
     1
176
     1
290
     0
176
     1
290
     0
176
     1
290
     0
176
     1
290
     0
176
     1
290
     0
176
     1
290
     0
176
     1
 90
       50
176
     1
 40
0.0
176
     1
 40
1.0
176
     1
 90
        0
176
     1
 62
    18
420
        0
176
     1
 90
       50
176
     1
 90
        3
176
     1
 62
     5
420
      255
176
     1
290
     0
176
     1
 90
       50
176
     1
 90
       50
176
     1
 90
       50
176
     1
290
     0
176
     1
 90
       50
176
     1
 62
   256
176
     0
 40
1.0
176
     0
 90
        2
176
     1
  1
strokes_ogs.tif
176
     1
290
     0
176
     1
 40
1.0
176
     1
 40
1.0
176
     1
  0
VISUALSTYLE
  5
BE
102
{ACAD_REACTORS
330
A9
102
}
330
A9
100
AcDbVisualStyle
  2
Sketchy
 70
    24
177
     3
291
     0
 70
    58
 90
        1
176
     1
 90
        2
176
     1
 90
        2
176
     1
 90
        0
176
     1
 40
0.6
176
     1
 40
30.0
176
     1
 62
     7
420
 16777215
176
     1
 90
        2
176
     1
 90
        2
176
     1
 62
     7
176
     1
 62
     7
176
     1
 90
        1
176
     1
 90
        1
176
     1
 40
40.0
176
     1
 90
       11
176
     1
 62
     7
176
     1
 40
1.0
176
     1
 90
        1
176
     1
 90
        6
176
     1
 90
        2
176
     1
 62
     7
176
     1
 90
        6
176
     1
 90
        0
176
     1
 90
        0
176
     1
290
     0
176
     1
 90
        1
176
     1
 40
0.0
176
     1
 90
        0
176
     1
290
     0
176
     1
290
     1
176
     1
290
     1
176
     1
290
     0
176
     1
290
     0
176
     1
290
     0
176
     1
290
     0
176
     1
290
     0
176
     1
290
     0
176
     1
 90
       50
176
     1
 40
0.0
176
     1
 40
1.0
176
     1
 90
        0
176
     1
 62
    18
420
        0
176
     1
 90
       50
176
     1
 90
        3
176
     1
 62
     5
420
      255
176
     1
290
     0
176
     1
 90
       50
176
     1
 90
       50
176
     1
 90
       50
176
     1
290
     0
176
     1
 90
       50
176
     1
 62
   256
176
     0
 40
1.0
176
     0
 90
        2
176
     1
  1
strokes_ogs.tif
176
     1
290
     0
176
     1
 40
1.0
176
     1
 40
1.0
176
     1
  0
VISUALSTYLE
  5
B6
102
{ACAD_REACTORS
330
A9
102
}
330
A9
100
AcDbVisualStyle
  2
Thicken
 70
    13
177
     3
291
     1
 70
    58
 90
        2
176
     1
 90
        2
176
     1
 90
        0
176
     1
 90
        0
176
     1
 40
0.6
176
     1
 40
30.0
176
     1
 62
     7
420
 16777215
176
     1
 90
        1
176
     1
 90
        4
176
     1
 62
     7
176
     1
 62
   257
176
     1
 90
        1
176
     1
 90
        1
176
     1
 40
1.0
176
     1
 90
       12
176
     1
 62
     7
176
     1
 40
1.0
176
     1
 90
        1
176
     1
 90
        6
176
     1
 90
        2
176
     1
 62
     7
176
     1
 90
        5
176
     1
 90
        0
176
     1
 90
        0
176
     1
290
     0
176
     1
 90
        1
176
     1
 40
0.0
176
     1
 90
        0
176
     1
290
     0
176
     1
290
     1
176
     1
290
     1
176
     1
290
     0
176
     1
290
     0
176
     1
290
     0
176
     1
290
     0
176
     1
290
     0
176
     1
290
     0
176
     1
 90
       50
176
     1
 40
0.0
176
     1
 40
1.0
176
     1
 90
        0
176
     1
 62
    18
420
        0
176
     1
 90
       50
176
     1
 90
        3
176
     1
 62
     5
420
      255
176
     1
290
     0
176
     1
 90
       50
176
     1
 90
       50
176
     1
 90
       50
176
     1
290
     0
176
     1
 90
       50
176
     1
 62
   256
176
     0
 40
1.0
176
     0
 90
        2
176
     1
  1
strokes_ogs.tif
176
     1
290
     0
176
     1
 40
1.0
176
     1
 40
1.0
176
     1
  0
VISUALSTYLE
  5
AF
102
{ACAD_REACTORS
330
A9
102
}
330
A9
100
AcDbVisualStyle
  2
Wireframe
 70
     5
177
     3
291
     0
 70
    58
 90
        0
176
     1
 90
        2
176
     1
 90
        0
176
     1
 90
        0
176
     1
 40
0.6
176
     1
 40
30.0
176
     1
 62
     7
420
 16777215
176
     1
 90
        1
176
     1
 90
        4
176
     1
 62
     7
176
     1
 62
   257
176
     1
 90
        1
176
     1
 90
        1
176
     1
 40
1.0
176
     1
 90
        0
176
     1
 62
   257
176
     1
 40
1.0
176
     1
 90
        1
176
     1
 90
        6
176
     1
 90
        2
176
     1
 62
     7
176
     1
 90
        3
176
     1
 90
        0
176
     1
 90
        0
176
     1
290
     0
176
     1
 90
        1
176
     1
 40
0.0
176
     1
 90
        0
176
     1
290
     0
176
     1
290
     1
176
     1
290
     1
176
     1
290
     0
176
     1
290
     0
176
     1
290
     0
176
     1
290
     0
176
     1
290
     0
176
     1
290
     0
176
     1
 90
       50
176
     1
 40
0.0
176
     1
 40
1.0
176
     1
 90
        0
176
     1
 62
    18
420
        0
176
     1
 90
       50
176
     1
 90
        3
176
     1
 62
     5
420
      255
176
     1
290
     0
176
     1
 90
       50
176
     1
 90
       50
176
     1
 90
       50
176
     1
290
     0
176
     1
 90
       50
176
     1
 62
   256
176
     0
 40
1.0
176
     0
 90
        2
176
     1
  1
strokes_ogs.tif
176
     1
290
     0
176
     1
 40
1.0
176
     1
 40
1.0
176
     1
  0
VISUALSTYLE
  5
BF
102
{ACAD_REACTORS
330
A9
102
}
330
A9
100
AcDbVisualStyle
  2
X-Ray
 70
    25
177
     3
291
     0
 70
    58
 90
        2
176
     1
 90
        2
176
     1
 90
        1
176
     1
 90
        1
176
     1
 40
0.5
176
     1
 40
30.0
176
     1
 62
     7
420
 16777215
176
     1
 90
        1
176
     1
 90
        0
176
     1
 62
     7
176
     1
 62
   257
176
     1
 90
        1
176
     1
 90
        1
176
     1
 40
1.0
176
     1
 90
        8
176
     1
 62
     7
176
     1
 40
1.0
176
     1
 90
        1
176
     1
 90
        6
176
     1
 90
        2
176
     1
 62
     7
176
     1
 90
        3
176
     1
 90
        0
176
     1
 90
        0
176
     1
290
     0
176
     1
 90
       13
176
     1
 40
0.0
176
     1
 90
        0
176
     1
290
     0
176
     1
290
     1
176
     1
290
     1
176
     1
290
     0
176
     1
290
     0
176
     1
290
     0
176
     1
290
     0
176
     1
290
     0
176
     1
290
     0
176
     1
 90
       50
176
     1
 40
0.0
176
     1
 40
1.0
176
     1
 90
        0
176
     1
 62
    18
420
        0
176
     1
 90
       50
176
     1
 90
        3
176
     1
 62
     5
420
      255
176
     1
290
     0
176
     1
 90
       50
176
     1
 90
       50
176
     1
 90
       50
176
     1
290
     0
176
     1
 90
       50
176
     1
 62
   256
176
     0
 40
1.0
176
     0
 90
        2
176
     1
  1
strokes_ogs.tif
176
     1
290
     0
176
     1
 40
1.0
176
     1
 40
1.0
176
     1
  0
DICTIONARYVAR
  5
CB
102
{ACAD_REACTORS
330
CA
102
}
330
CA
100
DictionaryVariables
280
     0
  1
1:1
  0
DICTIONARYVAR
  5
D0
102
{ACAD_REACTORS
330
CA
102
}
330
CA
100
DictionaryVariables
280
     0
  1
Standard
  0
DICTIONARYVAR
  5
CF
102
{ACAD_REACTORS
330
CA
102
}
330
CA
100
DictionaryVariables
280
     0
  1
Standard
  0
DICTIONARYVAR
  5
D1
102
{ACAD_REACTORS
330
CA
102
}
330
CA
100
DictionaryVariables
280
     0
  1
0
  0
DICTIONARY
  5
CC
330
C7
100
AcDbDictionary
280
     1
281
     1
  3
ACAD_ROUNDTRIP_2008_TABLESTYLE_CELLSTYLEMAP
360
CD
  0
CELLSTYLEMAP
  5
CD
102
{ACAD_REACTORS
330
CC
102
}
330
CC
100
AcDbCellStyleMap
 90
        3
300
CELLSTYLE
  1
TABLEFORMAT_BEGIN
 90
        5
170
     1
 91
        0
 92
    32768
 62
   257
 93
        1
300
CONTENTFORMAT
  1
CONTENTFORMAT_BEGIN
 90
        0
 91
        0
 92
        4
 93
        0
300

 40
0.0
140
1.0
 94
        5
 62
     0
340
11
144
6.0
309
CONTENTFORMAT_END
171
     1
301
MARGIN
  1
CELLMARGIN_BEGIN
 40
1.5
 40
1.5
 40
1.5
 40
1.5
 40
1.5
 40
1.5
309
CELLMARGIN_END
 94
        6
 95
        1
302
GRIDFORMAT
  1
GRIDFORMAT_BEGIN
 90
        0
 91
        1
 62
     0
 92
       -2
340
14
 93
        0
 40
0.045
309
GRIDFORMAT_END
 95
        2
302
GRIDFORMAT
  1
GRIDFORMAT_BEGIN
 90
        0
 91
        1
 62
     0
 92
       -2
340
14
 93
        0
 40
0.045
309
GRIDFORMAT_END
 95
        4
302
GRIDFORMAT
  1
GRIDFORMAT_BEGIN
 90
        0
 91
        1
 62
     0
 92
       -2
340
14
 93
        0
 40
0.045
309
GRIDFORMAT_END
 95
        8
302
GRIDFORMAT
  1
GRIDFORMAT_BEGIN
 90
        0
 91
        1
 62
     0
 92
       -2
340
14
 93
        0
 40
0.045
309
GRIDFORMAT_END
 95
       16
302
GRIDFORMAT
  1
GRIDFORMAT_BEGIN
 90
        0
 91
        1
 62
     0
 92
       -2
340
14
 93
        0
 40
0.045
309
GRIDFORMAT_END
 95
       32
302
GRIDFORMAT
  1
GRIDFORMAT_BEGIN
 90
        0
 91
        1
 62
     0
 92
       -2
340
14
 93
        0
 40
0.045
309
GRIDFORMAT_END
309
TABLEFORMAT_END
  1
CELLSTYLE_BEGIN
 90
        1
 91
        1
300
_TITLE
309
CELLSTYLE_END
300
CELLSTYLE
  1
TABLEFORMAT_BEGIN
 90
        5
170
     1
 91
        0
 92
        0
 62
   257
 93
        1
300
CONTENTFORMAT
  1
CONTENTFORMAT_BEGIN
 90
        0
 91
        0
 92
        4
 93
        0
300

 40
0.0
140
1.0
 94
        5
 62
     0
340
11
144
4.5
309
CONTENTFORMAT_END
171
     1
301
MARGIN
  1
CELLMARGIN_BEGIN
 40
1.5
 40
1.5
 40
1.5
 40
1.5
 40
1.5
 40
1.5
309
CELLMARGIN_END
 94
        6
 95
        1
302
GRIDFORMAT
  1
GRIDFORMAT_BEGIN
 90
        0
 91
        1
 62
     0
 92
       -2
340
14
 93
        0
 40
0.045
309
GRIDFORMAT_END
 95
        2
302
GRIDFORMAT
  1
GRIDFORMAT_BEGIN
 90
        0
 91
        1
 62
     0
 92
       -2
340
14
 93
        0
 40
0.045
309
GRIDFORMAT_END
 95
        4
302
GRIDFORMAT
  1
GRIDFORMAT_BEGIN
 90
        0
 91
        1
 62
     0
 92
       -2
340
14
 93
        0
 40
0.045
309
GRIDFORMAT_END
 95
        8
302
GRIDFORMAT
  1
GRIDFORMAT_BEGIN
 90
        0
 91
        1
 62
     0
 92
       -2
340
14
 93
        0
 40
0.045
309
GRIDFORMAT_END
 95
       16
302
GRIDFORMAT
  1
GRIDFORMAT_BEGIN
 90
        0
 91
        1
 62
     0
 92
       -2
340
14
 93
        0
 40
0.045
309
GRIDFORMAT_END
 95
       32
302
GRIDFORMAT
  1
GRIDFORMAT_BEGIN
 90
        0
 91
        1
 62
     0
 92
       -2
340
14
 93
        0
 40
0.045
309
GRIDFORMAT_END
309
TABLEFORMAT_END
  1
CELLSTYLE_BEGIN
 90
        2
 91
        1
300
_HEADER
309
CELLSTYLE_END
300
CELLSTYLE
  1
TABLEFORMAT_BEGIN
 90
        5
170
     1
 91
        0
 92
        0
 62
   257
 93
        1
300
CONTENTFORMAT
  1
CONTENTFORMAT_BEGIN
 90
        0
 91
        0
 92
        4
 93
        0
300

 40
0.0
140
1.0
 94
        2
 62
     0
340
11
144
4.5
309
CONTENTFORMAT_END
171
     1
301
MARGIN
  1
CELLMARGIN_BEGIN
 40
1.5
 40
1.5
 40
1.5
 40
1.5
 40
1.5
 40
1.5
309
CELLMARGIN_END
 94
        6
 95
        1
302
GRIDFORMAT
  1
GRIDFORMAT_BEGIN
 90
        0
 91
        1
 62
     0
 92
       -2
340
14
 93
        0
 40
0.045
309
GRIDFORMAT_END
 95
        2
302
GRIDFORMAT
  1
GRIDFORMAT_BEGIN
 90
        0
 91
        1
 62
     0
 92
       -2
340
14
 93
        0
 40
0.045
309
GRIDFORMAT_END
 95
        4
302
GRIDFORMAT
  1
GRIDFORMAT_BEGIN
 90
        0
 91
        1
 62
     0
 92
       -2
340
14
 93
        0
 40
0.045
309
GRIDFORMAT_END
 95
        8
302
GRIDFORMAT
  1
GRIDFORMAT_BEGIN
 90
        0
 91
        1
 62
     0
 92
       -2
340
14
 93
        0
 40
0.045
309
GRIDFORMAT_END
 95
       16
302
GRIDFORMAT
  1
GRIDFORMAT_BEGIN
 90
        0
 91
        1
 62
     0
 92
       -2
340
14
 93
        0
 40
0.045
309
GRIDFORMAT_END
 95
       32
302
GRIDFORMAT
  1
GRIDFORMAT_BEGIN
 90
        0
 91
        1
 62
     0
 92
       -2
340
14
 93
        0
 40
0.045
309
GRIDFORMAT_END
309
TABLEFORMAT_END
  1
CELLSTYLE_BEGIN
 90
        3
 91
        2
300
_DATA
309
CELLSTYLE_END
  0
ENDSEC
  0
EOF
